<svg version="1.1" xmlns="http://www.w3.org/2000/svg" viewBox="-277.50399894714354 -3655.6800292968746 4486.144140625 4249.599999999999"><desc>Created with Snap</desc><defs></defs><g><rect x="-277.50399894714354" y="-3655.6800292968746" width="4486.144140625" height="4249.599999999999" fill="#143d59" style=""></rect><g transform="matrix(26.3197,0,0,26.3197,69.4447,-4091.5114)"><path d="M130.875,28.231h-25.254c-1.658,0-3,1.343-3,3v17.933h-0.867v-4.543c0-1.657-1.344-3-3-3H56.296c-1.657,0-3,1.343-3,3v4.543  H41.461V31.231c0-1.657-1.344-3-3-3H13.208c-1.657,0-3,1.343-3,3V88.32c0,1.657,1.343,3,3,3h25.254c1.656,0,3-1.343,3-3V70.387  h0.935v0.313v8.924v0.001c0,0.213,0.023,0.42,0.065,0.62c0.008,0.034,0.022,0.066,0.031,0.102c0.041,0.164,0.09,0.326,0.156,0.479  c0.023,0.053,0.056,0.1,0.082,0.15c0.065,0.129,0.133,0.256,0.215,0.373c0.041,0.057,0.09,0.107,0.134,0.162  c0.084,0.103,0.169,0.203,0.266,0.294c0.017,0.016,0.028,0.035,0.046,0.051l12.798,11.498v19.416c0,1.657,1.343,3,3,3h31.452  c1.656,0,3-1.343,3-3v-19.21l7.932-21.835c0.015-0.04,0.016-0.083,0.028-0.124c0.049-0.154,0.087-0.311,0.11-0.475  c0.011-0.077,0.018-0.152,0.023-0.229c0.004-0.066,0.02-0.129,0.02-0.197v-0.313h0.867V88.32c0,1.657,1.342,3,3,3h25.254  c1.656,0,3-1.343,3-3V31.231C133.875,29.575,132.532,28.231,130.875,28.231z M95.754,67.699h-7.521V47.621h7.521V67.699z   M73.172,47.621h9.061v20.078h-9.061V47.621z M67.171,47.621v11.154h-7.875V47.621H67.171z M48.396,76.624V64.775h18.067v11.849  H48.396z M87.821,92.006c-0.119,0.328-0.18,0.675-0.18,1.024v16.738H62.189V92.015c0-0.852-0.362-1.663-0.995-2.231l-7.969-7.159  h16.238c1.656,0,3-1.343,3-3v-5.925h22.008L87.821,92.006z" fill="#f4b41a" style=""></path><desc>Created with Snap</desc><defs></defs></g><g><g transform="matrix(1.024,0,0,-1.024,0,0)"><path d="M228 -87Q174 -87 128 -58Q83 -28 56 28Q29 84 29 163Q29 240 53 319Q77 398 118 469Q160 541 214 597Q268 654 327 686Q387 719 447 719Q489 719 514 702Q539 686 550 659Q561 633 561 603Q561 568 548 533Q536 499 515 476Q494 453 469 453Q458 453 448 459Q439 466 431 483Q445 493 463 518Q482 544 496 575Q510 606 510 631Q510 652 497 666Q484 680 454 680Q410 680 362 646Q315 612 272 555Q229 499 194 429Q160 359 139 286Q119 214 119 149Q119 58 158 7Q197 -44 253 -44Q294 -44 328 -17Q363 10 389 53Q416 97 432 148Q449 199 453 247Q424 253 398 255Q373 258 347 258Q332 258 316 257Q301 257 283 257Q291 290 310 304Q329 319 359 319Q388 319 418 309Q449 300 479 289Q510 278 538 272L529 240Q510 187 498 150Q487 113 481 86Q475 60 472 39Q470 18 470 -2Q470 -22 471 -43Q473 -64 474 -91Q448 -86 434 -74Q421 -62 415 -45Q410 -28 410 -11Q410 -4 410 3Q411 10 413 18Q378 -28 332 -58Q286 -87 228 -87ZM621 -280Q596 -280 575 -265Q555 -250 555 -219Q555 -187 573 -162Q591 -136 620 -115Q649 -94 683 -76Q718 -58 752 -41Q764 -10 778 35Q792 80 803 124Q772 78 736 43Q701 9 658 9Q640 9 620 16Q601 24 588 42Q575 61 575 91Q575 118 584 155Q594 192 608 227Q623 262 638 285Q654 309 666 309Q671 309 682 305Q693 301 703 294Q714 287 716 279Q707 267 696 244Q685 221 675 193Q665 165 658 138Q652 111 652 92Q652 76 658 65Q665 54 683 54Q704 54 727 72Q751 90 774 118Q797 147 815 177Q818 186 820 199Q822 213 826 228Q830 244 842 259Q855 275 878 275Q885 275 891 274Q898 273 907 271Q907 256 896 212Q886 169 869 111Q852 54 830 -4Q874 13 919 53Q964 94 992 165L1008 153Q993 103 962 66Q932 30 894 4Q856 -21 818 -38Q791 -103 760 -159Q729 -214 694 -247Q660 -280 621 -280ZM613 -245Q631 -245 665 -205Q700 -165 736 -79Q701 -97 668 -119Q635 -140 613 -164Q591 -188 591 -216Q591 -225 596 -235Q601 -245 613 -245ZM1488 -31Q1450 -31 1432 -9Q1414 14 1414 45Q1414 69 1421 92Q1428 116 1435 139Q1443 162 1443 181Q1443 199 1435 206Q1428 213 1418 213Q1394 213 1364 176Q1334 140 1288 72Q1272 48 1259 22Q1246 -4 1235 -23Q1227 -23 1213 -20Q1199 -17 1188 -12Q1178 -7 1178 1Q1178 10 1188 36Q1198 62 1211 97Q1224 132 1233 166Q1243 201 1243 225Q1243 240 1238 248Q1233 257 1221 257Q1200 257 1170 231Q1140 206 1107 165Q1074 124 1045 73Q1017 23 999 -27Q988 -27 973 -23Q958 -19 947 -13Q936 -7 936 -2Q936 1 944 29Q952 57 963 98Q975 139 985 182Q996 225 1002 258Q1006 267 1023 275Q1040 283 1054 283Q1068 283 1076 275Q1085 267 1085 253Q1085 242 1080 218Q1075 195 1067 167Q1088 196 1112 225Q1136 255 1162 279Q1189 303 1215 317Q1242 332 1268 332Q1303 332 1315 307Q1328 282 1328 251Q1328 234 1324 216Q1321 199 1316 182Q1312 166 1306 150Q1326 182 1349 209Q1373 237 1400 253Q1427 270 1458 270Q1495 270 1509 248Q1523 226 1523 199Q1523 173 1514 143Q1506 114 1497 87Q1488 61 1488 42Q1488 31 1493 22Q1499 13 1515 13Q1542 13 1567 38Q1592 63 1613 99Q1634 136 1649 169L1665 151Q1649 109 1623 67Q1598 25 1564 -3Q1530 -31 1488 -31ZM2039 -87Q1980 -87 1950 -68Q1920 -48 1920 -3Q1920 5 1929 5Q1937 5 1955 0Q1974 -5 2025 -5Q2113 -5 2186 14Q2260 33 2314 65Q2368 98 2398 138Q2428 179 2428 222Q2428 262 2404 286Q2381 310 2343 322Q2305 335 2260 339Q2215 344 2171 344Q2152 344 2133 343Q2114 343 2097 343Q2075 265 2053 183Q2032 102 2009 25Q1981 25 1960 40Q1940 55 1940 77Q1940 87 1944 102Q1948 117 1954 135Q1960 154 1974 199Q1989 244 2009 305Q2030 366 2055 433Q2080 501 2107 565Q2134 630 2160 681Q2119 673 2092 660Q2066 648 2050 638Q2035 629 2027 629Q2022 629 2013 635Q2004 642 1997 650Q1990 658 1990 664Q2043 686 2099 703Q2156 720 2237 720Q2272 720 2314 714Q2356 709 2394 692Q2432 676 2456 644Q2481 612 2481 558Q2481 513 2462 480Q2443 448 2411 425Q2379 403 2341 389Q2303 375 2266 367Q2332 361 2374 343Q2417 326 2441 303Q2466 280 2475 255Q2485 230 2485 206Q2485 148 2454 101Q2424 54 2374 19Q2324 -16 2264 -40Q2204 -63 2145 -75Q2086 -87 2039 -87ZM2106 376Q2161 378 2215 388Q2270 399 2314 421Q2358 443 2384 478Q2411 514 2411 566Q2411 616 2385 642Q2360 669 2319 679Q2278 690 2232 690Q2229 690 2227 690Q2225 690 2223 689Q2188 621 2159 541Q2131 461 2106 376ZM2589 -32Q2545 -32 2528 -4Q2511 25 2511 61Q2511 93 2521 126Q2531 159 2548 188Q2565 217 2586 235Q2607 253 2629 253Q2635 253 2643 250Q2652 248 2656 244Q2645 232 2632 210Q2620 188 2609 162Q2599 137 2592 111Q2586 86 2586 65Q2586 42 2594 29Q2602 16 2620 16Q2640 16 2667 37Q2695 59 2720 90Q2689 117 2674 152Q2660 188 2660 233Q2660 258 2671 286Q2682 314 2705 333Q2728 352 2765 352Q2807 352 2823 328Q2840 305 2840 272Q2840 235 2820 188Q2801 142 2774 100Q2788 92 2805 92Q2820 92 2841 99Q2862 106 2881 122Q2901 139 2913 166L2929 154Q2908 105 2871 82Q2835 60 2801 60Q2788 60 2775 62Q2762 65 2751 70Q2717 28 2674 -2Q2632 -32 2589 -32ZM2743 120Q2768 155 2784 195Q2801 236 2801 270Q2801 295 2793 306Q2786 318 2773 318Q2753 318 2733 290Q2713 263 2713 221Q2713 197 2720 167Q2728 138 2743 120ZM2958 -30Q2939 -30 2920 -21Q2902 -12 2889 8Q2876 28 2876 58Q2876 91 2892 132Q2908 173 2935 214Q2963 255 2999 289Q3035 323 3075 344Q3115 365 3155 365Q3177 365 3189 357Q3202 350 3202 333Q3202 328 3200 323Q3199 318 3194 313Q3189 320 3179 322Q3170 325 3158 325Q3125 325 3095 306Q3065 288 3039 258Q3014 228 2995 193Q2977 159 2967 126Q2957 94 2957 71Q2957 51 2965 39Q2974 27 2990 27Q3017 27 3055 59Q3093 92 3132 152Q3172 213 3204 296Q3226 353 3250 412Q3274 472 3298 527Q3322 583 3345 626Q3368 669 3389 694Q3410 720 3428 720Q3438 720 3445 712Q3453 704 3453 692Q3453 676 3436 638Q3420 600 3394 547Q3368 495 3339 433Q3310 372 3284 308Q3258 244 3241 183Q3225 122 3225 69Q3225 44 3229 33Q3233 23 3246 23Q3268 23 3295 40Q3322 58 3350 91Q3378 125 3401 171L3417 158Q3396 104 3362 62Q3329 21 3290 -3Q3252 -26 3215 -26Q3176 -26 3160 -1Q3145 25 3145 57Q3145 73 3148 93Q3151 114 3156 136Q3125 88 3090 50Q3055 13 3021 -9Q2988 -30 2958 -30ZM3423 -280Q3398 -280 3377 -265Q3357 -250 3357 -219Q3357 -187 3375 -162Q3393 -136 3422 -115Q3451 -94 3485 -76Q3520 -58 3554 -41Q3566 -10 3580 35Q3594 80 3605 124Q3574 78 3538 43Q3503 9 3460 9Q3442 9 3422 16Q3403 24 3390 42Q3377 61 3377 91Q3377 118 3386 155Q3396 192 3410 227Q3425 262 3440 285Q3456 309 3468 309Q3473 309 3484 305Q3495 301 3505 294Q3516 287 3518 279Q3509 267 3498 244Q3487 221 3477 193Q3467 165 3460 138Q3454 111 3454 92Q3454 76 3460 65Q3467 54 3485 54Q3506 54 3529 72Q3553 90 3576 118Q3599 147 3617 177Q3620 186 3622 199Q3624 213 3628 228Q3632 244 3644 259Q3657 275 3680 275Q3687 275 3693 274Q3700 273 3709 271Q3709 256 3698 212Q3688 169 3671 111Q3654 54 3632 -4Q3676 13 3721 53Q3766 94 3794 165L3810 153Q3795 103 3764 66Q3734 30 3696 4Q3658 -21 3620 -38Q3593 -103 3562 -159Q3531 -214 3496 -247Q3462 -280 3423 -280ZM3415 -245Q3433 -245 3467 -205Q3502 -165 3538 -79Q3503 -97 3470 -119Q3437 -140 3415 -164Q3393 -188 3393 -216Q3393 -225 3398 -235Q3403 -245 3415 -245Z" fill="#ffffff" style=""></path></g></g></g></svg>