<svg id="Layer_1" data-name="Layer 1" xmlns="http://www.w3.org/2000/svg" xmlns:xlink="http://www.w3.org/1999/xlink" viewBox="0 0 841.89 595.28"><defs><style>.cls-1{fill:#004884;}</style></defs><image width="512" height="512" transform="translate(28.7 240.99) scale(0.4 0.34)" xlink:href="../favicon.png"/><path class="cls-1" d="M263.59,312.73a4.25,4.25,0,0,1-.76.34c.54,2.73-3.17,2.27-2.62,4.77-.76-.11-2.51,2.27-2.62,4.54-2.4.46-1.74,4-2.29,5.34,0-.23-.22-.68-.33-.68-.43,1.93.11.45.55,1.93-1.09.45-2.4,3.18-1.31,4.54-1.53,1.93-1.09,6.93-.11,9l-.65.23c-.11-.23-.33-.34-.44-.45,0,.11.11.34.11.45l-.87.34c-.22-.45-.55-.91-.77-1.36.44-7.5,1.86-16.69,6.33-21.69-.11-.34-.22-.57-.55-.68,2.19-2.61,4.15-5.11,5.9-7.61ZM260,353.27c-.11-.11-.22-.11-.43-.11a.11.11,0,0,0-.11.11l-3.49.23.21-.12c-.11.12-.11.12-.21.12l3.49-.23c-.22.23.21.23.43.23.11.57-.22.57-.65.68.22.68.22,1.36,1,1.13-.11,1.14-1.42-.79-1.42.12-.87-.34.11-1.14.22-1.48-.11-.45-.76-.34-1.2-.34.55.57.55.23.33,1.25-1.2-.11-.88-1.7-2-1.48l-.21.12a2.76,2.76,0,0,0-2.3-2.61,1.12,1.12,0,0,0-.65-1.82c.76-1,.87.79,1.75-.11a2.78,2.78,0,0,1-.33-1c-1.2.57-1.53.23-1.86-1.13.66,0,.44.91,1.2.68-.65-1-1.2-2.16-1.85-3.18l.87-.34c.44,1.7,1.2,4,2.73,3.75-.87-1.14-1.42-2.73-2.4-3.75l.65-.23a1.74,1.74,0,0,0,.77.8,10.08,10.08,0,0,0-.33-1h.44a1.06,1.06,0,0,0,.43.11v-.34l3.82-1.14a4,4,0,0,0,.66,2.39c.76-.12.1-1.37-.33-1.25a6.73,6.73,0,0,0,.76-1.48l1.2-.45c0,.68.76-.46,1.42-.12,1.2.69-1.75-.22-1.09,1-.66-.12-.66-.8-1-1.14a1.06,1.06,0,0,0-.11.57l-.44.11a7.32,7.32,0,0,0-.11-2.16c1.2-.34,1.2.69,1.31,1.71l-1.2.45.44-.11c.22,1.25,1.74,2.38,2.4,3.29-.55.68-1.31-1.25-2.18-1.36-1.31,2.38,1,2.95,3.92,4.31.22.12-.87.57-.87.46a.6.6,0,0,0,.76.34L262.83,357l.11-.91a2.3,2.3,0,0,1-.11.91l.76-3.75Zm-5.45-10.67c-.11-.46-.22-.91.22-1.14.65.23,0,.8.21,1.14ZM268,321.25a8,8,0,0,0-1,2.38c-3.38.91-5,3.75-5.12,8.07-1.53-.35-.55,1.93-1.2,2.49-.77-.56.43-1.59,0-2.84-1.75,2.16-2.19,6.93-.77,9.66.33,0,.22-.46.33-.68a2.53,2.53,0,0,1,.11.9l-3.93.91c0-1.81-.65-2-1.2-1.13.44-.91-1-1.59-.11-1.93.33,0,.44,1.81,1,.68-1-.12.33-1.7-.43-1.59,0,.34-.33.45-.55.68,1.2-2.61,0-7.61,1.75-9.65.87,2.15-1,5.22,0,7.49.11-2.72,1.2-6,.87-8.06a1.51,1.51,0,0,1-.54,1.25c-.55-1.14,0-1.48,0-2.84.87.34,1-1.48,1.74-.34-.22-1.7,1.64-3.07.87-4.32a8.23,8.23,0,0,1-1.74,3.41c1.53-4.77,4.69-8.74,6.87-12l.76,1.82a12,12,0,0,1-1.09,1.25c.22.11.55.11.55.34-.55.8-1.2-.45-1.42.68.22,0,.55,0,.55.23-.88.23-2.19,1.25-1.53,2.16-2.07.56-2.73,4.43-2.07,5.33,2.4-2,3.92-5.45,5.67-8.51l.43.91a4,4,0,0,0-.32,1,.41.41,0,0,0-.11.34c0-.12.11-.23.11-.34s.22-.34.54-.23l.22.57a11.07,11.07,0,0,0-2.07,2.84,15.33,15.33,0,0,1,2.29-2.39Zm-11.34,29.52c-.22-.91-1-1.13-1.42-1.7a1.73,1.73,0,0,1-.22,1c.22.34,1.2-.11,1.2.46C256.28,350.89,256.39,351.23,256.61,350.77Zm2-.91c-1.52,0-1-1.59-2.07-1.81-.11,1.47,1.09,1.93,1.64,3.06C258.14,350.55,258.57,350.55,258.57,349.86Zm0,1.94c-.76,0-1.09.45-1.09,1.24C258.36,353.16,258.79,352.7,258.57,351.8Zm1.2-16.13a8.8,8.8,0,0,1,1.2,2.73,13.37,13.37,0,0,0-1.74-1.93c.22-.23.43,0,.43.22C260,336.58,259.77,336.12,259.77,335.67Zm23.78,19.42.66-1.82,5.89.34a37.22,37.22,0,0,1-6.55,1.48l2.08-5.79c1.2-.23,2.18-.46,2.83.45.44-.23-.11-.45.11-1,.77.11,1.42.11,1.42-.57a1.37,1.37,0,0,1,.55,1A6.29,6.29,0,0,1,293,347c.66.68-.43,1.13-1.2,1.24.66.69,2.51-.45,1.75-1.59,2,.91,2.07-.11,3.27-1.13.87.23-.32.68,0,1.25.77-.34.87-1.59,2.07-1.36-.32.68,2,0,3.28-.34l-3.82,7c0-.12.11-.12.11-.23-.77,1-2.84,1-3.06,2.27h-.11c-.32-.91-.87-.23-1.41-.23h-.55c.22,1.14.87.57,1.75.57,0,.79-2.62,0-4.15.57,1.64-1.14-2.4-.8-1.74.79-.33-.11-.77-.57-.33-.57-.11-.79-.44.35-.87-.34a11.82,11.82,0,0,1,3.16-1.13l2.18.11h.55c-.22.12-.33.12-.55-.11V354l-2.18-.11c2.07-.68,4.36-1.25,5-2.39.54-.22,1.2.57,1.74-.9-1.74-.23-3.49,2.38-4.47.79a5.55,5.55,0,0,1-3.38,2.27l-10-.68,1,2.5a19,19,0,0,0-5.89,1.82c-.76,0-.54-1.48-.21-1.82-.88.34-1,1.47-2.19,1.59.11-.68-4.69.34-4.25-1.71l-2.4-.11,2.51-3.06-2.51,3.06h-.65c-.55-.91-.11-1-.88-1.59-.76,0-.76.91-2.07.57.55-.91-.76-1.14.33-1.25-.77-.11-1.75-.57-2.29-.34-.44-.23-.22-.91-.44-1.25l3.6.34,4.91.46-2.51,3.06,2.51-3.06,11.45.79-.54-1.7a1.36,1.36,0,0,1,.65.11c-1-.45-.54-1.59.55-1.59-.11.8-.33,1.14.32,1.59-.21-1.7,2.19.23,1.75-1.59a4.14,4.14,0,0,0,2.84-.45Zm-20.94.91c-.55.9-1.31,0-2.51-.23.11-.34.44-.23.66-.34s.76-1.36.32-1.25c.11-.8,1,.79,1.75,1Zm-1.31-19.42a10.48,10.48,0,0,0,.65-2.5C262.39,333.29,262.39,336.69,261.3,336.58Zm2.29-24a18.93,18.93,0,0,0,3-3.64c-.11.46-.33.35-.11.91,3.05-2.27,3.71-1.13,4.47-5.11-.55-.11-1.64.68-1,.8a.34.34,0,0,1,.65.11c-1.31,1.59-5.89,3.07-5,4.09-1.21.34-1.1,1.25-2.19,1.82l-.32-1a63,63,0,0,1,7.41-6.7,37.8,37.8,0,0,1,7.42-4.08,2.56,2.56,0,0,0,1.2-.69l2.18,1.25A31.73,31.73,0,0,1,278.1,303h-.33c-.22-.23-.22-.23-.11-.12l1.42-3.75-1.42,3.75-.87,2,.44-.8s.11.12.43,0c.55-.68,1.75-1.82,1.53-.68,1.42-1.7,2.62-1.25,2.73-2.61l.11.11,1.2.57c-2.29,1.36-4.37,2.38-6.44,3.41l.87-2s0,.12.11.12.11.34.22.56c-1.09.69-.76-.79-1.53-.11.44,0,.44.34.77.68l-.44.8a1.86,1.86,0,0,0-.54.34c0-.68,1-.8-.11-1-1.2.9-1.86,2.27-3.6,2.38-.77,1.59.54,1.59-.55,2.16a1.51,1.51,0,0,0-.44-1.37c-2.4,2.16-5.34,5.34-7.41,7Zm1.75,32.59c-.66.68-2-.8-2.29-1.59C264.25,343.51,264.25,345.1,265.34,345.21Zm-1.75,7.61,1.86-4.2c.76.22,2,.11,1.85.45s-.65.11-.65.45c.43.69,1.74.57,2.18,1.37,1-.34-.22-1.25.43-1.48-.87.11-1-.11-1.63-.68.43-1.36,1.31,1.13,2.07.11-.22.57.87.57,1.31,1.37a7.1,7.1,0,0,1,1.31-.23l-3.93,3.86Zm1.86-7.72c.76.68,1.52,1.58,2.29,2.27-.33.68-1.09-.8-1.64-.91-.33.57.22.68.76.79-1,1-1.63-.79-1.63-1.81Zm1.41,11.58c-.21.57-1,.91-1.52,1.47C265.34,357.25,265.88,356.79,266.86,356.68Zm-.76-11v-.34h.11Zm.55-28.16c1.3-3.18,2.61-6.13,5.23-7.61-1.09,3.18-4,5.68-4.69,8.41Zm.87,2.73c.76-1.25,1.63-2.39,1.63-3.3a19,19,0,0,1-2,2.84l-.33-.57h.22c.66-3.74,3.82-5.67,6.33-7.94-.66,1.47-3,3.4-3.16,4.31a29.87,29.87,0,0,0,3.49-3.41l-.11,1.82c-2,2.39-4.15,4.66-5.35,7.61Zm.11,32.36,3.49-4.32c1-.11,1.42.57,2.62,0,.43.12,0,.91.43.91-1.63,0-3.38.91-5.78-.22-.33,1,1.09.34,1.53.79ZM283,357.13a20,20,0,0,0-2.62.12l-.65-2.62-11.46-1.81,2.51-2.73a.47.47,0,0,1,.11.57c2.18.11,6.22-.57,6.87.57a1.36,1.36,0,0,1,1-.46l.22.91a3.28,3.28,0,0,0,.11.91c-.54.11-.87-.23-.87-.79-.11.79-1,.56-1.86,1.13.88.45,2-.23,2.95-.11l.44,1.81,4.14.68Zm-12.33-1.25c-.22,0-.33-.22-.54-.22,0,.45-.22.68-.66.9,0-.45,0-.79-.54-.68.21,1.25.87.68,1.74.68Zm0-51.32c1.09-.12-.43,1.13.44.9.76-.56,1.42-1,1.53-2C272.1,303.87,271.23,304.1,270.68,304.56Zm3.17,3.29c.54-.57.87-1.48,1.74-1.82C275.15,306.83,274.72,307.62,273.85,307.85Zm1.3,6.7a24.91,24.91,0,0,0,3-3.63c.11,0,.22-.23.22-.35l-.22.35c-.11.11-.33,0-.44-.23,2.73-2.73,5.68-6.36,8.73-7.95-.22-.11,0-.57.22-.8l7.2,1.59c-7.75,1.93-11.56,6.93-17.13,10.45a20.22,20.22,0,0,1-1.74,2.5Zm2.19,44.17a2.08,2.08,0,0,0-1-.34c.11-.79,1.1-.45.88-1.7l1.2.11c-.11.34-.11.57.11.68-.44.23-.66.8-.88,1.14Zm29.45-68.93a1.35,1.35,0,0,0,.54.57c-.1-.11,1.1-1.82,1.31-.23.88-1.36,3.06.35,4.69-.45,0,1,1.53,1.48,1.53.57a2.66,2.66,0,0,0,.76.45L313.77,293a19.82,19.82,0,0,0-5.67-1c.65,0,.65.23.33.68,1.74-.11,3.92-.11,4.58,1l-.44.57c-1.2-.45-2-1.13-3.38-1.13-.66,1-2,.68-3.38.22v-1.25l-.55,1c-1.42-.46-2.73-.8-2.94.56a17.06,17.06,0,0,0,2.51.35l-.77,1.81c-1.74-.45-3.49-.57-4.8-1.25,1.09-.91,2.18.34,2.84-1.25-2.84-.11-8.4-.22-10.47.8a2.42,2.42,0,0,0,2.94-.34c-.33,1,1.09.57,1.09,1.36-2.07-.11-4.91,0-6,0-.65.46-5,2.27-5.78,1.25.55.11,1.09,0,1.2-.45-1,.11-2.18-.23-3.05,1,1.74-.46,0,.11.54.57.22-.34,1.09-1.25,1.31-.46-.76.57-1.42.91-2.07,1.36l-1.2-.56c.11-.12.11-.12.11-.23-.33,0-.22-.34-.77-.34l-.1.11-2.3-1.13a6,6,0,0,0,2.3-2c1,.23.32.8.21,1.59.44-.34.77-1,1.64-.79a8.14,8.14,0,0,1,1-1.82c1.2.11,0,.45-.11.91,2.07-.34,3.93-.8,4.47-2.84.44,0,.11.68.22,1.14.88-.12.33-.46.33-1.14.65-.34,1.31.34,1.64-.91,1.31,1.36,2.72-1,5,.34-1-2.16,2,1,4.8.12-.32-.91-1.2.22-2.07-.23-.43-1.36,5.46-2,5.67-.68.88-1,2.51.11,3.06-.23v.91c-.87-.34-2.62-.11-2,.34.88-.68,1.1.34,1.75.57a3,3,0,0,0,.22-.8l.11,1.36Zm-29,19.65c.87-.34,1.2-1.48,2.62-1.36C279.63,308.64,279.19,309.67,277.77,309.44Zm0,40.2a1.26,1.26,0,0,1,1.64-.23c-.55.57-1.2.45-1.2,1Zm.44,10.33c-.11.11-.11.11-.11.23a.38.38,0,0,0-.22-.12Zm7-53.48c-1.75,1.25-5.56,1.59-5.56,3.63C281.81,309.33,284,308.3,285.19,306.49Zm-2,42.81c-.22.22-.33.79.11.79-.55.23-1.31.91-2,.68A1.94,1.94,0,0,1,283.23,349.3ZM281.48,299v0ZM302,302.63a13.62,13.62,0,0,0-5.13,2,12.59,12.59,0,0,0-2,.45l-7.2-1.47a14.09,14.09,0,0,1,7.09-3c.22-.56,1-2.27,1.42-1.7-.33.23-.44.8-.22,1.48a17.73,17.73,0,0,0,7-4Zm-11.78,53.14c.22.11.54.23.54.57-1.31-.23-1.41,1.36-2.18.79,0-.34.33-.68.77-1ZM292,331.58a.11.11,0,0,1-.11-.11c-1.41-1.48-1.09-2.84-2.07-5.45,1.09.91.77-.12,2.4-.12,0-1.47.44-2-.22-3.74a12.9,12.9,0,0,0,2.84.22Zm-1.74,24.76a1.14,1.14,0,0,1,1-.23Zm4.91-34.07a4.55,4.55,0,0,0,2.83-1.36c.22.11,1.2,1,1-.23.55,1,1,.11,1.31-.57.44.12.11.23.11.68,3.38,0,6-1.24,8.51-2.27l2.07,7c-6.21,3.41-14.18,9.2-17.78,6.14Zm-.33,32.59V355a.11.11,0,0,0-.11-.11Zm14.51-2.16a2.52,2.52,0,0,0-.33-.79c1.42-1,.76-2.39,1.2-4.09-.11-.45-.54-.11-.44.23-.32-.68.77-1.82.44-3.18-3.93,1.93-3.93,5.22-8.51,6.47.44.46,1.09.57-.11.68a1.11,1.11,0,0,0,.44.57c-.87,0-2.29,1.48-2.29.91l2.73-7.61c.32-.11.54-.23.54-.34,2.95-1.93,6.33-4.09,8.84-5.91l2.72,10.22c-.1.35-.32.69-.43,1.14ZM303.41,298a19.36,19.36,0,0,1,2.62-.34l.76,4.09-2.07,3.06a15.26,15.26,0,0,0-3.17,0l1.64-6h.11Zm-.55-.68a.51.51,0,0,1-.22-.68.62.62,0,0,1,.44-.12Zm2.07-4.32a3.23,3.23,0,0,1,1,.23l.11,2c-.66-.22-1.31-.34-2-.56Zm11.79-3.18c2,1,5.45,1.37,7.2,3.07.76-.11.65-1,1.52-.8-.11.35-.65.23-.65.57.22.46.43-.11,1,0,.11-.68-.22-.91-.87-.91.54-.45.54-1.47,1.52-1.13-.76-1.7,2.08-1.93.55-2.39,1.53-.11,1.53-2.15,2-3.63h.33c.11.68-.54.68-.44,1.48.77,0,.44-1.25,1.64-.8-.11.57-.44.68-.44.34-1,.34,1.31.57.33,1.25.77.8,1.64.68,2.84.57L317,314.78l1.09.45c-.87,1.25-1.85,2.5-3.05,2.84l2-3.29-2.29-1.14c.44-2.16,1-4.31.22-6.25-1.09-.11-2.07-.22-2-1.36-1.86-.79-3.6-1.36-5.35-1.93l-.54-7.49c.43-.12,1-.23,1.2-.57a5,5,0,0,0-1.2-.45l-.22-2a19.46,19.46,0,0,1,5.56,1.25l-.65.68a7.14,7.14,0,0,1-2-.79c-1,0,.55,1.13-.32.91-.44,0-.88-.12-1,.22.77.23,1.64.57,2.3.8l-5.9,6.92,2.51-2.84.22,3.41a19.62,19.62,0,0,0-2.73-.57l5.9-6.92a21.69,21.69,0,0,0,6,1.7c-.54-2.27-2.18-.11-2.61-1.82,1.31-.45,3.81.91,5.67.12.33-1.25-1.86.45-1.75-1,.55.11.55-.35,1-.57.87.34,1.3,1,2.18,1.36a11.92,11.92,0,0,0-6.55-4.43Zm-11.35,2.62.11,1.24c-.22,0-.33-.11-.55-.11l.44-1.13-.22-1.37a.11.11,0,0,0,.11-.11h-.11L305,290a1,1,0,0,0,.22-.68c.77.23.77.45.87.68Zm3.93,62.79c-.55,1.93-.77,4.77-1.42,6.7-.22.8-1.75,2.73-2,3.64-.77-3.07.76-5.34-.22-8.29a3.94,3.94,0,0,0,1.09-1.82Zm3.6-3.52v1.14c-1.31-.23-2,.79-2.4,2.49l-2.51.23a4.79,4.79,0,0,0,.11-2.16Zm-1-57.46a3,3,0,0,0-2.19-.79c0-.68.66-.34.77-.8.22-.11.33.23.33.34a4,4,0,0,0,1.52.91Zm-2.19,26.57a27.9,27.9,0,0,1,2.73-.68c.66-.22.55.46.76.46s.33-.57.44-.57a1.5,1.5,0,0,1,1,0l-2.94,7.72c-.11,0-.11,0-.22.11Zm7,6.93a4.38,4.38,0,0,0,.43-1.25c-1.09.8-.43.12-2.4.34a30.06,30.06,0,0,0-4.36,1l3.82-7.38a7.9,7.9,0,0,0,2.61.46,13.31,13.31,0,0,1,5.9-.12c3.7-1.24,6.87.8,8.94,3.07Zm-5.13-33.16a4,4,0,0,1,2,1.59,15.61,15.61,0,0,0-2.62-1Zm21.6,30.21c.22.57.54.91.65,1.25-.87.57-.65,1.36-.22,2.16-5.23,6.24-10.25,12.94-16.8,17,0-1.25,1.31-1,1.2-2.61a23.48,23.48,0,0,1-5.67,6.36c-.87-.69.66-1,.55-1.71a6.55,6.55,0,0,1-1.53,1.48V338.17a3.58,3.58,0,0,1,1-.34c.11-.34-.43-.34-.54-.46a97.8,97.8,0,0,0,6.11-11Zm-21.06-31.23a3,3,0,0,0,1,.11c-.44.8-.88.57-1.31.46Zm1.75-.91c.22.23.22.46.33.68-.22,0-.44-.11-.66-.11ZM316.5,336c-.33.8-2.07,1.7-1.64,2.61C315.41,337.94,317.37,337.26,316.5,336Zm1.74-21.69-1.52,3.41a4.22,4.22,0,0,1-1.1.34,16.77,16.77,0,0,1,.22-4.66l2.4.91,13.09-29.18a6.17,6.17,0,0,1,2.08-.12c-.11,1,.65,1.14.11,1.82.76.8,1.3.11,2.39.8a2.84,2.84,0,0,0,1.1,2.95,17.86,17.86,0,0,1-7.2,12.72,1.33,1.33,0,0,1,.32.91c-1.2.22.11-.46-.65-.8-.55,1.7-2.18,2.39-2.07,4.77-2.29.34-2.62,2.95-4.15,3.86-.11.11-.54-.57-.87-.57-1.31.12-2.07,1.71-3.06,3.07Zm3.49,20.21c1.2-.79,2.73-2.38,2.08-3.74-.77.68-.33,1-1.42.11-1.64,1.7-3.17,3.63-5.35,4.66.44,1,1-.57,1.2.22-.22.91-2,1.93-.76,2.62.22-1.14,1.09-.46,2.4-.12,1.31-.79,3.05-2.95,2.94-4.54C322.39,334,322.5,334.88,321.73,334.53Z"/><path class="cls-1" d="M329.91,387.68c-.21.11-.54.23-1.09.45.77-.57.33-1-.11-1.59-.87.46.55.8-.21,1.25-.55.12-.33-.91-.77-1.13a1.66,1.66,0,0,1-1.09.45c-.54.45.66,1.48-1,1.36.65-2,0-2.15-.87-4.2.65-.23.76-1.93.76-4.54,1.86-.34,1.2-3,1.86-5.11.65.34.32-.11,1.19-.23a5.51,5.51,0,0,1,.77-3.86Zm-.32-15.33c1.63-2.5,4.58-3.75,3.6-7.84.21-.68,1.2-.56,1.74-.79-1.74.34-.43-2.16.77-1.36-.44-.91-.44-1.48.43-1-.22-.45.11-1.7-.54-1.47.43-.57.76-1,1.2-1.71l9,.34a8.67,8.67,0,0,0-.76,2.39c.76-.23,1-1.7.87-2.39h.55c0,1.48-1.21,3.41-1,4.09.66-1.13,1.75-3.18,1-4.09l1.3.12c.22,1.36-1,3.29-1.09,3.86a39.5,39.5,0,0,1-4,9.88c-1.53,2.72-1.31,5.68-3.28,7.83.11.46.44-.22.88-.11-.66,2-3.28,3.41-2.08,5.22-1.2-.9-1.63.8-1.85,2.16-.44-.34-1.31-.11-1.31-1.13-1.09.22-1.2,1-1.31,1.93-.65-.69.22-2.5.22-3.64-1,1.48-.22,4.32-2.51,5-.76-.46-1-.46-1.2-.23Zm5.12,10.22c-.65,1,.22-2.27-.43-.91,0,.34-.44.45-.44,1,1-.11.33,2.27.66,1.36C334.82,383.93,335.15,382.23,334.71,382.57Zm21.28-58c-1.31,2.61-2.41,5.34-4.26,7.61.33.57.87.68.76,1.7-1.3.12-2.07.34-1.63,1.82-.55.57-.66-.11-1.31-.23,1.09,1.82-1.75.46-.66,2.27a8.27,8.27,0,0,1-3.05,1.93c-.65-.56.11-.68-.22-1.58-1.42-.23-1.09,1.13-2.18,1.13,0-.68-.11-1.48-.76-1.48-.33.8-1.2,1.25-1.53,2.05-.87-.34-2.73-.8-2.07-1.93.43,0,0,.23,0,.57,1.09-1.71-1-2.84.43-5.68a3.39,3.39,0,0,1-1.63-2.05c.54-.56.54.23,1.2.23s-.44-.79.43-1.25c-.54-1.82-.32-4.31,0-7l1.42.12c-.65,2-1.53,3.63-.43,4.65-.33.34-1.1,2.27-.44,1.59a6.69,6.69,0,0,1,1.53-2.61c-.55-.11-.77.57-.88.11.44-1.13-.32-3.29,1.09-3.52l.11-.11c.22,1.47-1.41,2.5,0,3.18a6.31,6.31,0,0,0,.11-3.18l.66.23a10.16,10.16,0,0,1,.32,2.38,19,19,0,0,0,.11-2.5l7,.91v1.25a11,11,0,0,0,1.2-1.14ZM339.08,322a8.91,8.91,0,0,1,.43-1.13c.33.79.77.45,1.2-.12l.88.12c-.33.57-.77,1.25-1.09,1.7Zm.87,9.66c.22-.91.87-2.5-.55-2.73.77,1.59-.21,1.93,0,2.73C339.4,331.35,339.73,331.58,340,331.7Zm.11-14.09c.22-1.13.87-1.7.33-2.83.76-.57.54,1.36.87.34C341.7,314.43,340.93,317.5,340.06,317.61Zm.22-4c.32-.45-.11-.79-.11-.91C340,309.44,341.59,312.85,340.28,313.64ZM350,359.4l-.55-.11a.43.43,0,0,0-.11-.23c.11.12,0,.12,0,.23l-9.16-.34a10.77,10.77,0,0,0,2.07-5c1.31-1.7,2.4-3.18,2.07-5.45,1.75-2.38,2.29-4.88,3.39-8.17.54-.23.54.22,1,.22.76-.11-.88-.68.54-.68.22-1-1.09-.23-.76-1.13a3.63,3.63,0,0,0,1.42-.46,5.34,5.34,0,0,1,2.4-5.56,1.54,1.54,0,0,1-.33-1.25,2,2,0,0,0,1.09-1.36c.76.45.87.68,1.31-.46,0-.68-.66.57-1.42.12.87-1.94,1.42-.8,2.4-2-.11-.34-.87-1.25-.87-.57-1-.68.54-1.13.87-1.93h.22a.43.43,0,0,0-.11.34.38.38,0,0,1,.11-.22l2.4.11c-.55.68-.76,1.36-.22,1.7a4.28,4.28,0,0,1,.65-1.59h.44a2.56,2.56,0,0,0-.22,1.48,5.46,5.46,0,0,1,.77-1.36l1.74.11a2.62,2.62,0,0,0-.65,2.61c-.33.12-.44.46-1.09.34.76,1.93-1.42,3.75-.66,6,1.31-1.47,1.42-4,3.17-5a17.73,17.73,0,0,1,1-3.87l2.07.35c-1.64,2.95-3.05,6.24-4.69,8.63,2.29-1.14,3.71-6.36,5.45-7.95.22,1.93-1.31,4.65-3.16,5.9-.44,3.64-2.84,7.27-4.15,9.77,0,.11-.43-.46-.65-.34-.11,2.72-2.07,4.54-2.29,5.9-.44,1.59-1.42,1.14-2,1.82-.11.11.21,1.13.1,1.25-1,2-2.72,4.31-3.7,7.26.11.57.76-.68.76.8.22,0,.11-.34.11-.68a1.43,1.43,0,0,1,.44.91Zm-7.75-31.22-.11-1.25c-1.09.22-.65,1-1.63.56,0,.8.54,1.14,1.3,1.14C341.59,328.06,341.91,327.83,342.24,328.18Zm1.53,4.76c-.55-.11-.66-.79-1-1.24-1.53.45-1.42,2.38-2.19,3.4C341.37,335.1,343.44,334.08,343.77,332.94Zm-2.4-28.84a11.09,11.09,0,0,1,.87-3.06c-.11-.46-.87,0-1-.57,0-.12.11-.23.22-.46l12,5.68a27.28,27.28,0,0,1-.33,5.23c-.66,2.95-1.75,5.45-2.18,7.49l-3.49.79c0-.45-.11-.9-.55-.79.11.23,0,.57-.22,1l-2.83.68c.32-3.52.76-7,.87-9.31-1.09,1.59-.76,3.63-1.2,5.34-.76,0-.55.57-1.2,0a8.58,8.58,0,0,1-.11,4.43l-.87.11.33-.68c-.33-.34-.77-.34-.66-.91.33.34.44.11.87,0-.21-4.2.55-6.59.66-11l-.87.11c1.74-.45,1.41-2.95,1.52-5-.11.12-.11.23-.22.34Zm11.45-4.88,1.75.68c-.11.79-.33,1.36-.44,2a21.31,21.31,0,0,0-.22,2.84l-7.2-2.72-4.91,2.16,1.53-.69c-.33,1.37-.11,3.3-1.31,4.55.22.56.77.56.77,1.36-.66-.46-.33-.46-1.2-.11.32-.8.11-3.07.21-5.11l4.91-2.16,6.11-2.84-10.69-3.86a6.35,6.35,0,0,0-.76-3.41l1-.11-.22-.23,13.42,3.29c-.11,1-.44,2.16-.66,3.41Zm-11.45,23.39h0Zm1.42,46.79c-.22.68-1.53,1.81-.66,2.49C342.24,371.1,343.44,369.85,342.79,369.4Zm-.66-49.63a1.82,1.82,0,0,1,.55-1.13,2.71,2.71,0,0,0-.33,1.13Zm.22,3a5.39,5.39,0,0,1,.22-2.28h.33a10.37,10.37,0,0,0,.1,2.5Zm14-22.49c-.22.57-.43,1-.65,1.48l-1.64-.91-6.43,1.59-4.69-2.84c.65-.8,2-2.61.1-2.95.33-1,.66-.12,1.2.11V295l9.82,5.79ZM343,318.75a6.73,6.73,0,0,0,.66-2.38C344.09,316.59,344,319.2,343,318.75Zm2.08,11.13.11-.91c-.33,0-.44-.23-.66-.45-.11.56-1.63,1.25-.76,1.81C343.77,329.31,344.64,329.31,345.08,329.88Zm-1.42-39.06c-.44-.8.43-2.05,0-3.52,1.74-.91,5.13-1.59,7-1-.33,1.14,1.53.91.76,1.71,0,.79.55-.34,1.09.11,1.53,1.82,4.15,2.73,4.15,5.45a6.68,6.68,0,0,1-.76,3.86Zm.22,31.68a22.66,22.66,0,0,0,.11-2.73l2.83-.79a21.06,21.06,0,0,0-.76,2.5c1.2-.69.33,1.25,1.31.68-.11-.68.22-2.39.22-3.52l3.38-1a4.43,4.43,0,0,0,.43,3.18,6.89,6.89,0,0,0-.43,2.5Zm1.85,14.42c-.87.23-1.85,2.61-.33,1.82C344.53,338.51,346.93,337.49,345.73,336.92Zm4.8,5.22c-1,.34-.44,1.93-2,1.25.22,1.36-1.31,3.07-.66,4.09C348.68,345.55,350,344.07,350.53,342.14Zm4.15-6.7c-2.19,0-2.19,3.3-3.49,3.3.76.11-.44.79-.22,1.59C353.58,340,352.82,336.47,354.68,335.44ZM352.39,326c2.72-2.84,5.23-5.79,7.74-8.86l2.84-.91c-1.2,1.25-2.4,2.5-2.18,4.2-.22,0-.33-.34-.44-.56a24.34,24.34,0,0,0-3.27,6.36Zm5.89,4.2c-.44-.57,0-1.25-.55-1.36-1.09,2.15-2.07,4.65-3.49,6,.44-.12.44.45.76.34-.21-1.14.22,0,.55,0-.11-1.93,1.74-2.39,2.29-4-1.09,0-.22,1.36-1.2,1.25-.33-1.82,1.74-1,.76-2.27.22-.11.33-.45.55-.45C358.06,330,358.06,330.33,358.28,330.22Zm-1.09-3.52a2.72,2.72,0,0,1,2.07-2.16c.11.57-.66,2.39-.22,1.93,0-.34.76-.45.87-.11-.11.11-.22.34-.43.57Zm.65-.91a.42.42,0,0,0,.11-.34c.33.11.11.23.11.34Zm1.64,10.45c-.44,0-.33-.57-.66-.68,0,.45-1.2,1.25-.22,1.59,0-.23,0-.57.22-.57C358.93,337,359.37,336.58,359.48,336.24Zm.21-9.09c.66-.9,1.2-1.59.77-1.59,0,.34-.33.46-.55.57.11-.68.44-1.36-.43-1.47h.76c.87-.35.65-1.25.22-1.93-.88.11-1.31.45-1.31,1.24-.87-.34.33-.79.11-1.47.43.91,1.63-.8,1.74-.23,1.31,0,0,.46-.11.91a4.44,4.44,0,0,1,1.64-.45c-.22-.46-.87-.57-.33-.8-.11-.79-.54.45-1.2,0,0-.45.66-1.36,0-.57-.43-1,1-.68,1.64-1.47-.22-.34-.76-.46-.55-1,.44-.22,1.2-.22,1.53-.79-.65-.11-.22-.46.55-.91l1.31-.11a2.43,2.43,0,0,0-.44,2,14.65,14.65,0,0,1,1.42-2.16l1.2-.22a1.64,1.64,0,0,1,.22.79c-1.53.91-1.64,1.93-2.95,1.93-.33,2.05-1.31,3.07-2.51,4.77,0-.23-.33-.45-.33-.68.44.23.77-.34.33-.57-.54.8-1.2,1.48-.33,1.48-.54.79-1.41,1.93-2,2.84ZM368,315a8.57,8.57,0,0,1-1.09.8c0,.22.11.45.11.57l-1.31.11a11.36,11.36,0,0,0,1-1.36,3.67,3.67,0,0,0-2,1.36l-1.31.11a9.05,9.05,0,0,0,1.86-1.36c.22-.8-1.31.57-.77-.68-.32.79-1.31,1.36-2.4,2h-2.83c1.85-1.13,3.82-2.5,5.78-3.86l.54.46c-.43.45-.87.79-.54.79s.44-.45.54-.68l.44.34c-.22.34-.76.57-.11.79a.83.83,0,0,1,.44-.68Zm2.4-1.59.77-.11a3,3,0,0,1-.55.68l-.76-.57H369c.11-.11.32-.11.43-.22l.44.22.44.34.1-.34.77-2.72a6,6,0,0,0,1.31-1.14l4.91,3.41,1.2-.11h.65a2.46,2.46,0,0,1-1,.79l3.6-7.61,7.2-15.21,6.33-1c.65.69,1.63,1.37,1.85,2.27,1,4.32-6,5.8-7.09,10-1.53-.12-2.07,1-2.4,2.61a8.72,8.72,0,0,0-3.49,2.72l-10.69-5.9a19.66,19.66,0,0,0,2.18-1.14c-.11-.34-.44-.34-.65-.45,1.74-2.5,4-5,6.1-7.72l7.86-1.36L381.84,306l2.4,1.36c-1.75,1.82-3.16,4-5,5.46h-.65l-.33.79-.87-.68-5.89.34a4.45,4.45,0,0,0,.43-1,8.2,8.2,0,0,1-.76,1l-.87.11-.44,1.48a38.34,38.34,0,0,1-4.47,5c-.66.34-2.84.68-2,1.93.22-.34.33-1.14,1-1,.11.35.44.46.44.91-1,1.14-2.51,3-3.49,2.16.22.23,0,.34-.11.57l-1.64-.57a.92.92,0,0,0,.11-.91c3.6-2.38,5.79-7.15,9.28-9.54h1.41l-.1.34.32.23a5.55,5.55,0,0,1-.76.91l.44-1.48h-.44l-.44-.22c.11-.12.22-.12.33-.23,0-.57-.55.11-.55-.46.22-.22,1.2.23,1.2-.34-1.2-.11.11-1,.44-.34.11-.56-.44-.56-.54-1,.21.23.54.12.87-.11Zm-5.23,5.34c-.44,1-1.53.8-2.29,1.93C364.06,320.79,365.8,319.89,365.15,318.75Zm4.25,6.47-3,3.18-1.86-.68c2-2.72,4.69-5.34,6.88-8.29Zm4.26-22.37-1.42,7.38c.22,0,.33.12.33.23l-.33-.23-.11.69a36.91,36.91,0,0,0-3.05,2.95l-1.86-1c.44-.57,1.31-1,.55-1.48-.22-.23-.88.45-1.31,1l-.66-.34c.44-.45,1-.91,1.42-1.36.44,0,.55.34.87.34-.54-.57.22-.57,0-1.48a5.19,5.19,0,0,0,1.42-.68l2.4,1.25c-.11.11-.11.11-.22.11h.55l1.42-7.38,8.4,3.52-2.51,7.16-1.2.11,1,.68a4.21,4.21,0,0,1-1.53.91,1.72,1.72,0,0,0,.44-1,27.33,27.33,0,0,0-2.95,3.18L372,315.68c.22-.34.33-.68.55-1l5.78-1-5.24-2.84a12.3,12.3,0,0,0,1.2-2.38c-1.42,0-1.53,1.25-2.4,1.7l-2.4-1.25c.87-1.25,1.2-3.18,2.51-2.95a4.52,4.52,0,0,1,1.42-3.18l.11.11Zm-7.75,10c.11-.23.22-.23.44-.23s.11.23,0,.45Zm4.47,5.56c.44-.8.88-1.59,1.31-2.39l3.17,1.71a20.34,20.34,0,0,1-3.17,3.63c.11.23.11.23.22.23-.87.79-1.74,1.82-2.73,2.84Zm1.86,2.5a5.76,5.76,0,0,0-1,.79C371.48,321.36,371.58,320.57,372.24,320.91Zm-.33-10.34v.12c-.11.11-.33.23-.43.34l.1-.68h0Zm1.2-7.6h0Zm1,5.67c-.32.12-.22.34,0,.57C374.2,308.87,374.2,308.64,374.09,308.64Zm3.17,5.79,1,.57Zm2.83-20.89a69,69,0,0,0,2.84-6.59c1-.68,2.73-1.47,2.18-2.72.87.23,1.09-.46,1.75-.46.11,1,.65,1.59.87,2.73.43,0,.65-.23.76-.68.11,0,.11,0,.22.11l-.22.8c-.11.11-.22.22-.22.34h.11l-.87,3.63Zm7.31-3.86,1.2-3.52c1.64-.34,1.42-1,3.49-.91-.22,1.14.55,1.93,1.42,2.61Zm1.86-3.63c.32.22,0,.45-.33.79Z"/><path class="cls-1" d="M390.56,347c-2,5.22-5.34,9-9.92,10.33-1.09-.23-.11-2.39-1.64-2.27,0-.34.55-.23.87-.34a.78.78,0,0,0-.87-.57c-.33-.8,1-1.59-.33-1.59,1.42-1.59,2.73-3.18,4-4.88Zm8.4-15.45a7.71,7.71,0,0,1-.32,1.36c-3.06,2.05-3.82,6.48-4.91,10.45-1,.12-.77,1.36-1.75,1.59a26.31,26.31,0,0,1-.87,3.18l-7.75,1.14a184.92,184.92,0,0,0,10.8-19.19l.66.22c0,.23-.11.34-.11.68.33,0,.44-.22.54-.45Zm-5.23-1.25c.11-.11.11-.22.22-.34.54.12.54.34.43.57Zm7.31-3.18c-.55,1-.55,2.39-2.08,2.27a3.26,3.26,0,0,1,0,1.48l-3.6-1.7a7.88,7.88,0,0,0,.44-.68c0-.34-.55-.34-.76-.46,1.09-.79,2.07-1.93,3.49-2.38-.11-.68-.55-1.14-.22-2.16.87-.23.22,1,.65,1.36a8.23,8.23,0,0,1,.55-1.81Zm-2.19-3.4c.44-1.37,1.2-2.84,2.4-2.73l1.86,3.52a3,3,0,0,0-.76,2.16,1.3,1.3,0,0,0-1.42.91ZM413.8,352.7a5.87,5.87,0,0,0-1.42,4.43c-2.94-.34-6.43.12-8.18-.11.11-.8-1.42-1.14-2.51-1.59,0-1.25-.22-2.27-1.2-2.39,1-.45,1-1.7,1.09-2.83.66-.12.77.68.87,1.36,0-2.05-.32-3.75-.21-5.34l6.32-1.48v.12ZM412.27,309c-2.18,3.18-3.82,7-5.78,10.68-1.09-1.48-.65,1.7-1.53,1.93-.11,1.7,1,0,1,1.25-.77.11-1,.68-1.53.11a3.57,3.57,0,0,1-1.2,2.27l-2-3.4a.83.83,0,0,1,.44.11c0-.91-1.09-.57-.76-1.7.54-.46,1.2-1,1.85-.23,1.09-2.27,3.71-4.09,2.51-7.61,1-.23,1.09-1.25.22-1.59,0-.68,1.64-.45,1.53.23a10,10,0,0,1,1.41-3.52Zm-2,36.68,11.89-2.38a10.93,10.93,0,0,0-2.29,3.75c-.11.9.43.79.43,1.47-1.52.68.66,4.66-1.63,4.77a5.2,5.2,0,0,0,.43-1.82l1,.91c-.22-.79.76-1.47.65-2.38,1.31.11.55,2.84-.33,2.95-.11-.23-.21-.34-.32-.57l-1-.91a2.61,2.61,0,0,1,.11-1.24c-.76.45-1,1-.54-.35-.33.12-.44.23-.55.23l-6.76-10.22c.11-.57.11-1.25-.33-1.25.22.23.11.57,0,.8l-2.83-4.32v-.22l2.83.79c-.11.23-.11.57-.22.8l.88-.12c0-.23-.11-.45,0-.57l2.94.69c-.33.68-1.2,1.81-.11,2a6.13,6.13,0,0,0,.44-1.93l1.09.23c0,.11.11.22.22.34v-.23l.87.23c-.22.79-.54,1.47-1,1.59.44.68.76-.46,1.2.45a14.69,14.69,0,0,0,1.09-1.7l5.89,1.47c0,.57.11,1.14-.11,1.37a17.84,17.84,0,0,1-2.07,2.95l-11.89,2.38-2.07-3.4a5,5,0,0,0,.1-1.82c-1.85,1.7-.43-2.61-.32-3.75.32.12.22.57.22.91a9.86,9.86,0,0,0,0-2.5l2.83,4.32c-.11.22-.32.34-.11.79.55-.45.66,1.48.88.46-.22-.12-.33-.46-.44-.8l3.27,5-10.69,2a7.49,7.49,0,0,1,1.53-3.63c-1.64,0,1-3.07-.11-4.09a1.47,1.47,0,0,1,.44-1l.76,1.47c-.11.12-.11.23-.22.35.55-.23,1.42,1.58.87,2.38a.77.77,0,0,1,.66.34,1.45,1.45,0,0,1,.33-.45l2.07,3.4L404,346.91l6.33-1.13Zm-4.8-7.38c.44-.45,1.2-.68,1.31-1.59-.11-.45-.33.23-.87,0,.1-.45.54-.68,1.2-.57.43,1.48-.33,2.5-1,3.64Zm2.73-3.63a4.1,4.1,0,0,1-1.53.45,1.32,1.32,0,0,1,.33-.91Zm-1.42-.8c.22-.34.54-.34.87-.11,0-.57-.87-.34-.65-1.14.11-.11.21-.11.43-.22l.33.79a1.19,1.19,0,0,0,.44.91c0,.11-.11.11-.33.23Zm.43-.22a1.66,1.66,0,0,0,.33-.46c.33.12.11.34,0,.34a2.3,2.3,0,0,0,.11.91Zm2.84-.57c-.55-.46.11-2.16-.33-1.36-.22.68-.76,1.13-.76,2.27C410,334.19,409.11,332.83,410.09,333.06ZM427.76,314c-2,2.5-1.42,6.7-4,8.75.65.45.1.34.21,1.13-1.52-1.13.33,1.59-.54,1.7.43.8.76-.68,1.2.12,0,.57-.55.91-.33,1.59-.44-.23-.76-.8-1.31-.68-.76,1-.76,2.61-1.52,3.63.1.45.43.23.32,0,1.09,1.48-.43.79-.87,1.7-.76,1.59-1,4.2-1.42,6l-.87-.11c-.11-.8,1.09-1.71.11-2.39,0,.68-.77,1.82-.44,2.27l-1.09-.11a.25.25,0,0,0-.22-.23s0,.12-.11.12l-2.94-.46c0-.79,1-.56.22-1.7,0,1-.33.57-.88.23a4.79,4.79,0,0,0-.11,1.36l-2.83-.45c.11-.57.11-1,.22-1.37-.33,0-1.53.23-.77-1.13.33.22.44.56.77.79a4.63,4.63,0,0,0,.43-2.61l-.65.11c0,1.25,0,1.25-.87,1.48-.33-.91,1.52-3.63.21-4.77,1.31.8.22-2.27.77-3.29.54.34.65,1.47.87.22.66-.11-.22,1.14.66,1.48,1.09-.57.1-1.59.54-2-.22-.34-.65-.46-1.31-.34.87-1.14-.76-.69-.54-2.16a4.92,4.92,0,0,1,.65.79c1-1.81.55-1.59.55-3.86.32.34.87.12,1,.57.76-.23.32-1.25.65-1.82-.33-.56-1.09,1.25-1.74.34a3.83,3.83,0,0,0,.76-2.84c-.22,0-.33.23-.54.23,0,.57.1,2.16-.66,2.16.22-.68-.65-4.09,1.09-5a8.23,8.23,0,0,1-.33-3.18Zm-13.31-4.31a10.9,10.9,0,0,0,.44-2.73,16.35,16.35,0,0,0-1.75,2l-3.7-1.81a2.4,2.4,0,0,1,1.63-.91,12.18,12.18,0,0,1,2.73-4.66c1,.46-.33.8-.22,1.25,1.53-1.13,1.31-4.09,3.49-4.54l12.55,16.81a2.32,2.32,0,0,0-.11,1.25c-.11.11-.22.22-.33.22ZM409.87,328c0-.12,0-.12-.11-.23Zm.44,17.6,4.36-.45,3.06,5.56c-.11.11-.11.45-.11.68l.11.11c.11.46.32.91-.11,1a4.54,4.54,0,0,0-3.06,1.59Zm.44-17.37c.21.56-.22,2,.43,2.15.33-1.13-.22-1.47.44-2.15Zm5.56.68c-.44.22.11-2.16-.77-.91.22,0,.33,0,.33.23-.33,0-.33-.23-.65-.12,0,.23,0,.57-.22.57-.22.91.54.79.33,1.59-1.2,0-.33,2.27-2,2.27.44.8-.76,1.7.11,2.16.22-.91,1.31-.57,1.53-.46-.66.12-1.31,1.48-.22,1.59,1.42-2.95,1.42-4.77.55-6.81C415.76,328.86,416.09,329.42,416.31,328.86Zm-.44-4.09c0,.45-1.09,1.59-.22,2.16C415.65,326.36,416.64,325.22,415.87,324.77ZM417,356.56c-1.2.12-.43-1.93-.21-2.15C417.51,355,416.2,355.31,417,356.56Zm16.58-52.8a32.89,32.89,0,0,1-2.18,7.5c-.43,1-1.42,1.81-1.74,2.72l-12.55-16.69h.11c0-1.59.44-1.93-.33-2.73a1.59,1.59,0,0,1,.33-.45l11.67-1-2.18-5c2.62.57,4.69,2.5,6.44,4.54l-4.26.46ZM417.4,351.91a.11.11,0,0,0,.11.11ZM435,301c-.11.22-.22.34-.22.45-.54,1.25-.87,2.5-1.31,3.75l-4.25-10.79-11.67.57c1.42-2.27,3.49-2.61,4.47-5.57a8.92,8.92,0,0,1,5.13-.11l2.07,5.11,4.25-.34.22.23a6.89,6.89,0,0,0,1,1.25Zm-15.49,38.6a15.36,15.36,0,0,0,2.51-8.29c1.31-.11.55-2,1.85-2.15.55,2-1.09,2.15-.43,4.2,1.53-1.36,1.42-4.2,3.05-4.09a2.8,2.8,0,0,1-.43-1.25c1.41.12,1.09-1.36,2.29-1.47-.44-.46.11-.34-.11-1.14,1.74-.68,2.4-3.52,3.49-5,.44-.45.65-1,1.09-1.47l2.73,2.95c.11.23,0,.34-.33.34.11.46.33,0,.65,0l.22.11c.22,1.48-1.09,1.59-1.63,2.5,1.2,3.18-3.38,3.75-3.17,7-2,.12-1.42,4.89-3.38,5,.66,1.93-1.85,2.27-2.4,3.63a.72.72,0,0,0-.11.46Zm22.26,20c-3.82.23-6.55,1-6.88-3.18a2.69,2.69,0,0,1-3.05-.45c.22-.57,1-.34.54-1.25.33,0,.22.56.44.91.76-.46-.44-1-.11-1.82.55.34,1.64,1.36,1.31,2,3.38-2.38,2.29-7,3.27-11.13l2.51,1-.43-3.3-.44-2.84.22,1.37a7.53,7.53,0,0,0-.66-1c.11-.12.33-.23.44-.35l.44,2.84h.32A1.77,1.77,0,0,0,440,344c1.42-.34,0-1.48,1.53-1.36a.43.43,0,0,1-.11-.34l.43-.12v.8c.44,0,.66-.34.77-.8l8.83-1.25,1.31,2.73c-.11,1.36-.76,3.18-1.31,2.72.22.69.33,1.25.66,2.39a4.83,4.83,0,0,0-.77.68l-9.59-3.07c.1-.34.1-.56-.11-.56a1.45,1.45,0,0,0-.33.45l-1.53-.45.11,1V347l.33,1.93a.43.43,0,0,0,.11.34l.43,3.86h-.11c-.76.57-.76,1.81-1.74,1.93.54,1.47,2.18,2.16,2.51,3ZM433.87,351c.55,0,.55-.79,1.42-.45-.76,1-.22,1.81-1.2,2.72-.11,1.14,1.09-.57.87.46,0,.56-.43.45-.87.45s-.33.57-.44.79C432.56,354.41,434.53,352.59,433.87,351Zm3.71-28.5c-.22,0-.65-.23-.65-.46-.33,0-.22.34-.33.57l-3-2.61c.22-.45.55-.8.77-1.25l2.29.57-.77-2.84c.55-.8,1.09-1.59,1.53-2.39l2.18,3.07a6.32,6.32,0,0,0-1.74,2.39l-3.49-.8c.54-.79,1-1.48,1.52-2.27l.77,2.84Zm-3.71-29a3.13,3.13,0,0,1,.76,2.39c.11.79.88.34.88,1s-1.09,1.47-1.42,2.15Zm2.51,29h.22v.23Zm.22-3.41,1.09.23a3.56,3.56,0,0,0,0,2.61c0,.34-.11.34-.33.34Zm3,27.25-2.4-1.47a9.67,9.67,0,0,1,1.2-1.93h.22c-.33.11-.44.22-.44.45a1.13,1.13,0,0,0,.77-.45h.76l-.11,3.4,1.42.69a1.28,1.28,0,0,1-1.31.34c.11-.46.22-.91-.11-.91l-.11.91Zm-1.74-4.08a2.44,2.44,0,0,1,.32-.8.62.62,0,0,1-.11.8Zm1.31,8.06c-.11-.46.87-1.14,0-1.48-.66.46.43.68-.33.91-.87-.23.33-.68,0-1.25C437.58,348.27,438,350.66,439.22,350.32Zm14.61-23.05a8,8,0,0,1,1-3.52c-1.2,0-1.53.91-2.41,1.13a31.91,31.91,0,0,0,1.31-5c-1.2,1.36-2.18,4.65-2.4,6-.1.12-.21.23-.21.23l-.44-.11c-.44-.68-.44-2.16-.87-.8.32-1.36.43-5.33,1.74-7.49-.54-.68-.76,1.36-1.74,1a5.56,5.56,0,0,1,.87-1.82c-.87-.22-.65.68-1,.91-.55-.11-.55-.34-.22-.91-1.2,1.14-2.84,3.18-1.75,4.09-.87.34-1.41,1.71-1.74,3.18l-.44-.23a7.49,7.49,0,0,1,1.42-3c-.44-.79-.54-1.59-1.53-1.13.22-.46,1.09-.46,1.09-1.14.44-.11.33.45.33.91.66-.23.66-.91.55-1.7-1.42-.23-1,2-2,1,.44-1.37,2.29-1.48,2.08-3.52-.55.34-.33,1.36-1.31,1.36.32-1.14,1.74-1.36,1.85-3.52-.76-.23-.43.68-.76.91-.66-.23.33-2.73,1.09-1.82-.11-1-.76-1.36.11-1.82a2.22,2.22,0,0,1-1.2-1.59c1.2-.34,1.2-2,1.63-3.17-.32.22-.32,1-.65.45-1.2,3.86-6.11,8.52-7.74,12.38l-.33.34-1.86-3.3a29.43,29.43,0,0,0,3.93-6.47c1.64-.11,3.16-2.72,3.93-4.77,2-1.25,5.45-4.54,4.91-8.29,1,.57,1.63-1,1.41-2.5a5.16,5.16,0,0,0,3.06-2.83l9.05-1.37c.11.12.11.34.22.57a5.37,5.37,0,0,0,.77-.79l.43-.12c.11.34-.11,1,0,1.37,3.16-1.14,2.84,2.49,4.91,3.74-.55,1.25-.55,1.37.11,2.5-1.86,2.27-1.31,5.79-2.84,8.18a8.41,8.41,0,0,0-1,.45c-.87,2.16-.87,4.88-2.07,6.81l-3.82-22.25-5.78.91c.87-1.71,1.63-3.75,3.38-4.66.44.11.22.91.76.91.33,0,.11-.57.22-.91.22-.11.44,0,.66,0l.76,3.75,3.82,22.25c-.11.12-.11.23-.22.34-.33.46-1.64.35-2,1-.88,1.13-.44,3-1.09,4.08-.55-.11-1.53,1.59-.77,2.73-2,2.16-2.51,5.56-3.82,8.18Zm-14.07,12c.55-.22,1-.56,1.31-1.93.22.23.33.91.55.34.11,1-1.2,3-1.53,4.55H439c.43-.46.54-1.25,1.09-1.25-.11,0-.22-.12-.33-.34Zm.77,18.4a1.27,1.27,0,0,1-.55-1.14.62.62,0,0,0,.44.12Zm17.23-28.28c-.22.12-.22.35-.33.35-2.94.79-3.49,5.22-5.34,7.6,1-.11,1.31-1.36,1.85-2.27.44,1-.54,3.18-1.2,3.64.11.9.44.34,1.2.45,0,.68-.65.68-.54,1.48-.33-.91-1-1.37-1.42-.23,0,.45.33-.11.87.11-.22.68-.87.57-1.42.8.55,0,.66.45.44,1l-1.31-.11.66,1.25a.38.38,0,0,1-.11.22.36.36,0,0,1,.32.12l.11.11a5.29,5.29,0,0,1-.11,1.25l-.87-2.95,1.31.11a4.23,4.23,0,0,1-.65,1.14l-.77-1.25h.11l-8.83-.57a8.49,8.49,0,0,0,.43-2.16,5.41,5.41,0,0,0-1.2,2h-.43c-.44-2.49,3.38-3.63,2.5-6.13,1.09.46,1.64-.91,2.51-1.93-.54-.11-.65-.45-.43-.91l1.74,3.18c-.22.34-.22.69-.43.91.43.12.54-.11.87,0l.33.34c-.55,1.82-1.75,2.39-2.4,3.86a6.67,6.67,0,0,0,2.5-3.4l.44.79a1,1,0,0,1,0,.57h.44l1.85,3.29-1.09-3.63h.11c.11-.45.22-.91-.22-.91,2.84-.91,2.51-5.68,4.37-7.83-.55.22-.77.68-1.21,1-.43-.57,1.1-1.37,1.1-2.5.43,0,.11.68.11,1.13a12,12,0,0,0,1-2ZM440.53,357.7c.32.11.43-.57.65-.8a2.41,2.41,0,0,1-.55-.45v-1c.55,0,1.1-.68,1.75-.91-.87-.34-.76-1.48-1.85-1.7l.1-4c0,.34.11.46.11.91l1.53.23c.11-.57,1.2-1.36.44-1.93-.11.79-.33,1.36-1.09,1.47.32-1.25-.22-.11-.77-.45,0-.45,0-1.14-.32-.57v-1.93c.76-.23.76.46,1.41.46a3.47,3.47,0,0,1,.55-.8l9.05,4.43c-.76,1-.54,2.72-1.74,3.75-.22,1,1-.68.87.45,0,.45-.33.57-.33.91-.54-.57-.65-1.36-1.42-1.7-1,.34.66.79.22,1.59-1-.23-1.09.56-1.09,1.47-1.42-1.13-.33-1.82-.22-3.86a3.26,3.26,0,0,0-.76,2.5c-1.53,0-1.42-1.25-2-1.82-1,1.48-.77,2.84-2.19,3.52-.1.68.22,1,.77.91-.11.57-.77.46-.66,1.25a18.69,18.69,0,0,0-2.4-.34Zm1.2-35.2c.21-.12.32-.23.54-.34.11.45-.22.57-.33.79Zm1.85,2.27a4.27,4.27,0,0,0-1.2,1.82c-.22-1-.22-2.62.54-3.41l.11.45v.12h.11Zm.44,6.7a6.15,6.15,0,0,0-1.53.57c.11.34.87.34.87,0,.66,0-.33,1-.87.9-.44-1-.11-1,0-2.15a.68.68,0,0,0,1,.11Zm-1.42-.12a1.27,1.27,0,0,0,.22-1.7c1.09-.11.43,1.36.87,1.82a1.07,1.07,0,0,1-.55.45Zm1.85-8.28a3.12,3.12,0,0,1-1.31,1.36l-.32-1a1.18,1.18,0,0,0,1.2-.57Zm-.87,15.33c.11.9-.66,2.38-.22,2.83.11-.45.33-.79.76-.79C443.58,339.3,444.67,338.4,443.58,338.4Zm1.31-12c-.33.57-.66.91-1,.91.21-.8-.55-.68-.44-1.37l1-.11Zm-1-4.43v-1c.32.45.54.79.43,1.25ZM444,326h.1l-.1-.91c.87,0,.76.91.43,1.59Zm1.85-3.29c0,.45-.11.79-.11,1.24a2.24,2.24,0,0,1-.33-1.47Zm.55,5.56c-.11-.34-.55-.23-.88-.23a4.65,4.65,0,0,1,.11-2.16c.55.69,1.31,2.28.87,3.3C446,329,446.42,328.63,446.42,328.29Zm1.85,5.22a21.78,21.78,0,0,0-.87,3.07l-1.75-3.18a4.5,4.5,0,0,1,.87-1.25c.66,0,.11,1.14.22,1.59.88.23.88-.8,1.09-1.59Zm-1.2-5.22c.22.34.65.45.76.79.55-.11,0-1,.44-1.25.76.35-.33,1.37-.33,1.94-.43-.69-1.31-.57-1.42-1.48.55,0,.55-.34,1.2-.34C447.62,328.18,447.29,328.18,447.07,328.29Zm-.55,3.52a.91.91,0,0,1,.33-.8c1,0,.44,1.37.87,1.93-.32-.22-.43-.11-.54.12Zm2.51,5a4.51,4.51,0,0,0-.65,1.81l-.44-.79a7,7,0,0,0,.66-2.16Zm-1,.56a.4.4,0,0,1,.33-.11v.45Zm3.38,3.52-2.83-2.61c.32-.34.32-.68.76-.57l2.07,3.07.11.11Zm-2.72-10.67c.76.68.76,1.93.43,3.41C448.27,332.83,449.47,331.47,448.71,330.22Zm.21,5.9a.86.86,0,0,0,.22-.45c1.53-.45.77-1.48,1.53-2.84.33,1.59-.65,2.73-1.2,4.32Zm2-24c-.11.8-1.53,2-.66,2.73C450.34,314,451.76,312.73,450.89,312.16Zm-.33,32.59c0,.57-1,1.93-.22,2.39C450.45,346.23,451.65,345.1,450.56,344.75Zm.66-18.73c-.22.11-.33,0-.44-.12Zm1.85,20.78c.22.68-1.31,1.7-1.64,2.61C451,348.62,452.41,347.37,453.07,346.8Zm1.75-28.28c-1.1.23-1,1.71-1.75,2.16,1.09,1.25-.22,1.7,0,2.16.11-.46.76-.23,1.2-.23a4.57,4.57,0,0,0,.55-2.16c-1.1-.34-.55,1-1.1,1.25a1.53,1.53,0,0,1,.88-1.93c0,.23.22.34.22,0C453.94,319.55,455.14,319.09,454.82,318.52ZM453.07,344l.11.11Zm1.2-10.67a8.32,8.32,0,0,1,.44-1.94C455.36,331.58,455.14,333.51,454.27,333.29Zm7.42-47c1.42.46,2.4,1.93,3.71,1.48a5.37,5.37,0,0,0,.11,1.93l-3.28.34Zm5.56,2.62c0-.12.11-.23.11-.35.22,0,.33.12.33.23Z"/><path class="cls-1" d="M561.83,343.39c-2.29,2.05-7.42,2.84-5.68,7,.22-.68,1-.68,1,0-1.2-.91-1.41,1.59-2.29,2.16.66,1,1.31,2.27,2.4,2.16,0-.91-1.2-1.48,0-1.82a4.81,4.81,0,0,0,5.35,2c.54-.22,1.2-2.38.87-.34a2.17,2.17,0,0,0,.77-.34l.54,2a10.75,10.75,0,0,1-2-.12,3.22,3.22,0,0,0,2.07.68l.11.57a23.71,23.71,0,0,0-3,.57c0,.68.66.68,1.42.57-2.73,1.36-7.85-1.36-11.13-1-.32-.12-.32-.57-.21-1-.88.46-1.75.34-1.75-.79-.54.68-.33,1.82-1.09,1.59-.54,0,.44-1.14.44-1.59a5.41,5.41,0,0,1-1.64-2.73,1.65,1.65,0,0,0-.76,1.48c-1.42.11-.55-1.7-2.18-.79v-1.25c-.44.11-.33.56-.33.9-1-.45-1.09-.56-2.4-1.13.87-1.82,1.63-3.86,2.51-5.91l11.45-2.72-10.58.57c.22-.57.55-1.14.76-1.71s.88-.45,1.2-.91c.33-.68.44-3.4,1.42-2.72-.22-1.82,2-2.84,1-4.43.55.11,1.75-2.16,1.09-3.29,1.2.79,3.39-5.68,2.73-6.7.33-.46.55-.91,1.31-.91,0-.23-.44-.23-.65-.23a1.29,1.29,0,0,1,.21-.56l1,.22a1.7,1.7,0,0,0,.32,1.25,5.06,5.06,0,0,1,.22-1.25l.87.12L566,324.2c-.33.23-.76.46-1.09.68,0,.8-.11,1.59-1,1.48.33-.34.43-1.14.76-1.48-1-.11-1.09.57-2.07.46a48.69,48.69,0,0,0-3.16,7.26l-.33-1.81c.44-.68,1-1.48.54-2.05.88.8,2-2.15,1.64-2.49-.11.34-.33.11-.65,0a11,11,0,0,0-1.75,3.86l-.87-3.75a5.14,5.14,0,0,0,.76-2.27,1.07,1.07,0,0,0-1,.91l-.87-3.3a4.08,4.08,0,0,0,.65-2.61,9.65,9.65,0,0,1-.76,1.82l-.22-1a21.39,21.39,0,0,0,3-8.52c.55.68.66-.11,1.31-.34,0-.91-.76-1.14,0-1.82h-1.2c-.65-.34,1.2-.57,1.75-.57a1.64,1.64,0,0,0,.22-.79l12.43,12.26.87.8c-.21,0-.32.11-.54.11l-2.73-7.72c1.09-.11,1.86-.8,3.17-.57l5.78-3c1.42-.8,4.58-1.14,7.09-2.61,1.31-.8,4.25-4.2,5.78-6.7l1.74,6.81,5.13-14.19c2.07,3.63,3.06,8.06.76,11-.1.46.88.46,1,0,.43,2.73-4,4-3.93,6-1.2.45-1.09,1.14-1.64,1.7l-1.31-4.54L591,319.66c-.11,0-.22-.11-.33-.23-.65.23-.76,1.25-1.52,1.25a31.18,31.18,0,0,0-14.08.23l-.87-.8.33.91a10.28,10.28,0,0,0-1.75.46l-4-6.14-.55,7.84c-.76.34-1.42.68-2.18,1l-8.73-1.13.55,1.93c-.11.68,0,1.25-.66,1.36.11,0,.33-.11.22.23s-.43.34-.54.68a2.11,2.11,0,0,0,1.2-.91l.87,3.75c-.11.45-.11.9-.22,1.36a2.25,2.25,0,0,1,.44-.68l.33,1.81L559.1,334c.22,0,.44.11.65,0l1.86,8.51-4.91,1.14,5.13-.34Zm-5.68.12-11,4.2,11.34-4.32Zm7.64.22c-.11-.45-.22-.57-.55-.68a2.52,2.52,0,0,1-.76.8l-1.64-9.43c1.42-.23,1.75-2.72,3.28-3.75-.66.91-.88,2.16-1.53,2.84a11.93,11.93,0,0,0,2.84-.91c-.22.46-.66.8-.11,1,0-.69.87-2.16,1.52-1.25a1.14,1.14,0,0,0-1,.56c1.53.23,1.64-1,2.84-1.24-.11.34-.11.45,0,.56l-.11,1c-1.31.11-2.84.34-3.38,1.47a24.32,24.32,0,0,1,3.38-1.13l-.44,3.06c-.32.34-.76.57-1.09.91a.85.85,0,0,0,1,.23l-.43,3.52-1,.68L557,343.85h.32l4.91-.91.22.79-5.13.12-11.89,2.27a15.91,15.91,0,0,0,1-2.05l10.59-.22,9.59-1.82c-.87.57-1.74,1.25-2.5,1.7ZM552,350.66c-1.09,0-1.75,3.29-1.09,2.84-.11-.57,0-1.14.54-1.25,0,.23.22.34.22,0C550.92,351.91,551.9,351,552,350.66Zm12.87,10.67c-2.07,0-4.47-.34-6.76.12,1.2.79,2.51.34,4.36.45-.44.46-1,.57-1.09,1.25-3.6-1-6.65-2.5-10-3.75.44-.91,1.31.12,1.75,0a1.14,1.14,0,0,0-1-1.25c.65-.79,1.74.57,1.63,1.37,2.84,1.25,5.57-.57,7.53,1.13,1-.57,2.29-.11,3.71.23Zm-9,1c-1.19.68-2.72-.8-3.27-1.37C552.66,360.43,555.28,362.47,555.93,362.36Zm-2.61-27.14c.54-.34.65-1.25,1.42-1.14.21-.91-.33-1,.43-.68a2.65,2.65,0,0,1,1-2C554.52,331.35,553.21,335.33,553.32,335.22Zm.76,21.23c.76,0,.87.8,1.75.68C555.93,356.11,554.41,355.77,554.08,356.45Zm.11-28.16c.55-1,2.62-3.07,1.42-3.75C555.17,325.68,554,327.61,554.19,328.29Zm.44,23.16c-.22-1,1.41-.34,1.2-1.36-1.31,0,.43-1.25-.33-1.36,0,.45-.66.34-.87.57C555,350.21,554.08,352.25,554.63,351.45Zm.76-29.29c.65-.8,1.31-1.82,2-2.61l.11,1a11,11,0,0,0-1.09,1.93Zm1.53,1c.21-.34.43-.68.76-1.14l.11,1.48Zm7.41,39.4c-2.5-.22-4.14,1.14-7.3,1.14A6.58,6.58,0,0,1,564.33,362.58Zm-6-33.5c-.1.46-1.09,1.71-.43,1.82C558.12,330.33,559.54,329.31,558.33,329.08Zm3.06,26.46c-.87,0-1.75,0-2.07.57C559.86,356.79,561.17,356.22,561.39,355.54ZM562.81,335c-.44.34-2.51.11-1.64,1,.55-.45,1.42-.23,1.86-.68-.22-.68.43-1.25.1-1.48A1,1,0,0,0,562.81,335Zm.43,7.95c-.11.11-.21.11-.32.22v-.22Zm2.51,19.87h-.32c1.19-1.25-1.86-.11-2.19-.91a2.85,2.85,0,0,1,2.73-.68Zm4-47.81,3.49,6.48a36.88,36.88,0,0,0-4.8,1.25l1.31-7.73-1-1.81-5.46-6.25c.44-.79.88-1.93,1.2-1.36v-.12l4.26,7.73.76,1.47Zm3.6-27.7c3.49-.46,7.31-1.37,10.36-.12-.76-1.36,2.4.46,3.6.8a16.07,16.07,0,0,1,2.07.11c1.09.23,2.29.68,3.28.8l1,7.15c-1.09-.91-5.56.11-3.93-1-2.51-.91-3.38-.57-6.22-.34,0-.34.22-.34.33-.57-1.2.91-3.82-.11-4.69,1.25-1.09,5-4.91,11.13-8.29,13.62l-.11-.11c1.09-1.48,3.06-3.06,2.84-5-1,1.48-2.08,3-3,4.43l-.65-2.95-1.2,6.13a10.21,10.21,0,0,0-.55,1.14h.33l-.22,1.59-.22-.34.22.34.22-1.59c1.2-.23,1.53-.8,2.73-1.36l.1.11a1.92,1.92,0,0,0-.54,1.25h.65l1.64,7-5.78-7.16-3.93-7.83c1.09-3.18,2.95-5.79,4.47-8.29l2.08,9Zm-7.75,67.11a1,1,0,0,0-.32.68h.11l-.22,1.47a3.71,3.71,0,0,0-1.09-.11l-.22-2.16c.65-.22,1.2-.45.22.34,1.2.12,1.09-.68,1.31-.79.1.11.1.23.21.23Zm.66-59.51c-.77.23-1.64.57-2.18.12-.44-1.48.21-3.41.87-5Zm-1.64,66a7.66,7.66,0,0,0,3.17.34,6.83,6.83,0,0,1-3.06.11Zm1-3.63a1.94,1.94,0,0,1-.76.22l-.11-.45c.33-.12.66-.12.87-.23Zm-.43,3.06.11.46h-.22Zm0-5.45a22.78,22.78,0,0,1,7.09-2.38c1-.12,1.85.9,2.4-.34-.11.45.54,1.24.65.45-.65-1.14.87.23,1.2-.23.77-.34-.65-.56-.43-.91a17.86,17.86,0,0,0,2.94-.79l-.76,2.27c-2.18.91-3.82,2.16-5.46,2.95,0-.34.33-.34.33-.68-3,.23-5.24,1-8,1.14Zm.32,6.47c.11,0,.22.12.44.12l.11.68c-.11,0-.22-.11-.33-.11-.11.56.11.68.44.56l.11.46c-.33,0-.66-.12-1-.12Zm-.1,1.14c.32-.11.65-.45.87-.45,0,.45-.33.68-.66.9Zm.21-4.88c.66-.12,1.2-.12,1.64-.23a3.59,3.59,0,0,1-1.64.68ZM570.55,306l.87,3a24.43,24.43,0,0,0-1.74,3.18l.87-6.13-2.4-8.85a17.76,17.76,0,0,0,1.09-2.05c-.32-.45-1.09-.45-1.74-.23l-1.2-5a8.86,8.86,0,0,0,.54-1.93c1.75.68,4,.34,6.33-.12Zm-3,26c.33.34,2.07-.91,1.63-1.37a2,2,0,0,0,3-.22c.11.34-.44.56,0,.68.22-.91,1.85-1.14.65-.34,1.64.22,1.75-1.25,3.39-1.14a1.21,1.21,0,0,0,.1.91l1.2.11.88,3a18.24,18.24,0,0,1-2.4.34c-.11.68.32.68.43.91-.32,0-.32.34-.65.34,0-.57-1.85-.91-2-.57.43,0,.21.45.21.91-.87.45-1.41-.57-1.74.45,1.53,0,2.51-.23,3.49.11-3.27,1.48-6.44,3.3-9.38,5l.43-3.52c.77-.45,1.42-1.82,2.3-.68-.22-1,1-.34.76-1.25-.66-.68-1.09.45-1.86.45-.1-.68.88-.9-.21-.9a2.47,2.47,0,0,1-.77,1.25l.44-3.07c1-.11,1.64-.46,1.42-.57-.33.11-.88.11-1.42.23Zm-1.2,29.18a5.79,5.79,0,0,0,3.05-.23c-.32.68-2.07.91-2.94.91Zm.43-7.38v0Zm3.93-43.72c-.11,0-.11.11-.22.11a.38.38,0,0,1,.11-.22Zm4,23.05a3.47,3.47,0,0,0-3,1.71C572.84,334.31,574,334.08,574.7,333.17Zm-2.18-21.46c.1,0,.1-.11.21-.11-.11.11-.11.11-.11.22Zm7,20.1c-.55.11-1,.11-1.42.23l-1.09-3h.33c0-.11-.11-.34,0-.45Zm-1-2.73c.21-.68,1.74-.56.54.12a8.25,8.25,0,0,1,4.69-.8l.22.12a.66.66,0,0,0-.44.11c-.32-.11-.54-.34-.65.23.22-.12.44-.12.65-.23s.33.11.44-.11l3.38,2.83c-.33,0-.44.12-.22.69-1.42-1-3.81-.69-6.43,0Zm6.54,22.83a7.22,7.22,0,0,1-.87.34c1.42,1-2.84,1-4.58,1.7-.11,0-.22.12-.33.12l.76-2.27a29.28,29.28,0,0,0,4.15-2.28Zm.65,3.29c-.65.23-1.41.34-2.18.57.33-.91-.65-.46-1.2-.57,1.31-.45,1.64-.91,2.95-1.25Zm-2.18-26.46a11.09,11.09,0,0,1,4.37-.22l-1.09,3.29Zm8.4,24.3c-.32.23-.11-.22-.54-.56-1.53,1.7-3.93,2.27-6.33,2.61l-.33-1.25a7.19,7.19,0,0,1,1.64-.11c-.55-.46-1.09-.12-1.75-.8,1.31-.34,2.51-.68,4.15-1.13.44-1.14-1.09.22-.55-1.37l1.42.23a4.32,4.32,0,0,1-.32-1.14c-.55,0-.44,1-1.42.69.11-.35.43-.46.76-.57-.44-.57-.76,0-1.75-.46.22.23-.1.8.33.91-.76.12-1.85.34-3.16.57l-.44-2.5a11.66,11.66,0,0,1,5.35-1,.11.11,0,0,0,.11-.11Zm-7.63-23.5h.22l-.11.11Zm3.82-.8a3.23,3.23,0,0,1,2,2.73c-.33,0-.44.57-.76.45.43-.34-.33-1.36-.44-.57.65,1.82-1.64-.79-.76,1.14a5.48,5.48,0,0,1-1.75-.79Zm1.74,18.17c.55-.23.44-.79.76-.91,1,1.14.33-.56.66-.56,1.42,2.38,2.94-1.82,4.47-.46-.11-1.25.55-1.36-.22-1.59.44-.34,1-.57,1.42-.91l.44.57c-.44,0-1,.11-1.31.11a2.28,2.28,0,0,0,1.74.57l3.17,4.43-.22.23a.78.78,0,0,1,.43.11l.33.57a2.55,2.55,0,0,1-1.53-.23c-2.18,1.37-4.79,3.3-7.3,3.18,0,.46.43.91-.11.91-.11.11-.11.11-.22,0Zm9.6-24.41c-1.31-1.25-3-2.27-4.69-2.05-1.42.12-2.4.57-3.6-.34l4.36-12.37-1.85-6.82a5.28,5.28,0,0,0,.87-2.16c-.11-1.93-2.51-2.61-2.51-4.2h-.11l-1.74-6.92c1.09.11,2,.22,2.18-.12,2.18,1.25,3.49.8,4.58,2.61-.54-.56-.54.23-1.09-.34.33.91.87.23,1.42,1.25.87-.22-.33-.56.11-1.25a15,15,0,0,1,3.16,3.75l-5,14.2,1.2,4.54a1.63,1.63,0,0,1-.87.45c.11.57.44.68.44,1.25-.33,0-.33-.45-.33-.68-.22.11-.33.34-.66.34a4,4,0,0,0,2.19,1.59l.65,2.5a2.65,2.65,0,0,0-1.64-.12c.88.57,1.1,1.48,2.08,1.25ZM596.19,342l8.4-1Zm8.4-.23a39.56,39.56,0,0,1-4.48,4.2l-3.27-4.43c.33-.11.44-.22.44-.45a1.13,1.13,0,0,0-.87-.23l-.11-.22Zm-8.08.57-.21-.23Zm.66.68-.33-.23c2.4-3.06,3.49-5.45,5.67-8.74l2.84,7.38Zm.65-27.59c2,.79,4.48,1,5.35,2.15a5.36,5.36,0,0,0-2.51.23c.44.68-.11,1.25.87,1.59-.76.12-1.63-1.13-3-1.47Zm3.06,21.8c-.77,1-3.06,2.27-2.73,3.29C598.7,339.42,601.2,337.26,600.88,337.26Zm-2.4-20.89c1-.12,1.09,1.93,1.85,1.24-.54-.22-.22-1.24-.65-1.36S598.7,316.14,598.48,316.37Zm3.82,13.85a7.67,7.67,0,0,0-.55-3.41,21.48,21.48,0,0,0-2.18-3.86l-.66-3.75a.86.86,0,0,0,.77,0c-.11.35-.33.35-.44.35,2.18,2.83,5.13,5.9,5.24,11.24,1.52-2.84-.44-5.11-.77-7.5,1.09,1.37,1.42,3.07,2.19,4.54.43-1.93-.88-4.65-2.51-5.79.87-.79,1.41,1.14,1.85,1.37a1.09,1.09,0,0,0,.76-1.14c1.1.57.44,1.48.66,2.5-.33-.34-.55-.91-1.2-1a21.53,21.53,0,0,0,1.42,3.74c.87-.11-.11-1,.22-1.36,1.2-.11.21,1.82,1.41,1.93-.76.57-1,2.05-1.09,3.52Zm6,12.38a17.27,17.27,0,0,0-3.06,2.72l-.22-1.7.11.91c-.43-.23-1-.23-.54-1,.11,0,.32.11.43.11l.22,1.7c-1.31,1.14-2.73,2.16-4.25,2.16l-.33-.57c1.64.23,1.75-.23,3-2.27l1.85.34a.33.33,0,0,0-.33-.45l-.11-.91a5.32,5.32,0,0,0,2.18-1Zm-4.48-22.15c-.65.69-1.09.46-.32,1.93-.11.57-1.2-.22-1.53-.34,1-.45-1.2-1.47.44-1.59A12.35,12.35,0,0,1,601,319.2C602.41,318.18,602.3,320.91,603.82,320.45Zm.22,7.38a7.22,7.22,0,0,0-2.4-5.45A27,27,0,0,1,604,327.83Zm4.47,2.73a1.23,1.23,0,0,1-.65.68c.33.11,1,1.25,1,.46a.41.41,0,0,1,.11.34l-6.76,2.38c-.11-1.25.22-2.5.11-4l5.34.11v.34c.22,0,.33-.11.33-.34Zm-6.1,3.29v-.11l7.09-.23c0,.57-1.31.8-.88,2.05-.65.45-.54-.34-1.2.11.11.34.55.45.33,1a1.39,1.39,0,0,0-1,.12,26.21,26.21,0,0,1-3.82,5Zm.21-30.09c.11.11,0,.23,0,.34Zm2.73,15.9c1,.45,1.53-.57,2,.79C606.44,320.91,605.79,320.68,605.35,319.66ZM606.88,342c.87-1,1.63-2.39,2.51-3.29.54,1-.77.9-.33,2.49a9.41,9.41,0,0,1-1.09.69Zm2.29-20.21c-.11.45-.22.91-.33,1.25-1.09,0-.33-1.25-.87-1.48C607.2,320.91,608.41,321.93,609.17,321.82Zm.22,9.08c0-.34-.11-.91.65-.57,0,.23-.11.46-.11.68Zm.43-6.13a1.7,1.7,0,0,1,.55,2.16C609.82,326.47,609.71,325.79,609.82,324.77Zm.66,5.68c-.33-.12-.22-.34,0-.34-.33-.23.32-1.48-.33-1.59C611.13,328,611.13,329.77,610.48,330.45Z"/><path class="cls-1" d="M672.22,309.44l-17-1.25,7.09.57-.65,1.13c-.11,0-.11-.11-.22-.11a31.09,31.09,0,0,0-6.44-1.25l.22-.34-6.65-.45c2-.23,4-.46,6.11-.8-.66-.23-1.53-1-.77-.79-2.94-.91-5.34,0-8.07-.23.11-.57-.33-.68-.44-1,2.08-.34,5.13-1.14,5.68-2.27-3.71.9-7.2,1.59-9.49,2.27.87-.91,3.59-1,3.27-2.62-3,1.25-5,1.37-7.64,2.73.22-.11.77.34.66.23-.77.34-1.42.11-2.19.45a3.82,3.82,0,0,0-1.3,1l-4.91-.34.11,2.73h-.44c-.22,1-1.2,1.36-1.75,2.16,1-.12,1.31-.8,2.19,0-1.53.45-2.73,3.86-4.91,5.22,0-.91,1.42-1.36.21-1.93a27.78,27.78,0,0,0-5.12,10.11l-.55-.35c1.75-4.88,5-10,7.09-13.51-2.83,2.73-4.91,6.25-7.09,9.88.66-2.72,2.95-5.22,3.38-7a46.27,46.27,0,0,0-5.78,9.65l-.54-.34a32.41,32.41,0,0,1,3.27-6.24c-.22-.69-1.64.45-1.42,1.59-1-.8-1.09.34-1.42,1.59-.54.45-.54.22-.87-.12a1.64,1.64,0,0,1,0,1.25c-.76-.45-.65,0-1.74-.23.65-.45.1-.34.21-1.24.77.22,1.42.34,1.53-.35a1,1,0,0,0-1.09-.68c1.09-2.95,2.73-3.74,4.36-6.24.33,0,.33.34.33.57.87-.35.22-.91.76-1.37,1.31.8,1.53-1.36,2.73-2.5a30.79,30.79,0,0,1,4.69-2.83l1.86.22,4.91.34c-1.42,1-2.73,2.62-4.8,2.39l-.11-4.32c1.85-1.25,4.36-3.06,6.76-3.4,1.2-2.73,6.55-1.48,8.73-4.32,1.42,1.25,1.85-.79,2.51-.91.21-.11.43.68.54.68,1.2,0,4.36-1.36,4.47-1.81,1.31-.12,3.17.22,3.93-.68a.85.85,0,0,1,.44,1c1,.34,1.31-.34,1.85.23-.22-.91-.44-.35-1.2-.46.33-.57.87-.68,1.64-.68.32.45.11.45-.11.91,1.85-.46,2,1.25,2.94-.12,0-.45-.43-.45-.76-.45.11-.45.66-.23,1.09-.23l-.11,1.25c.55.12,1,0,1.53.12l-1,1.25c-4.58-.46-9.71-.69-13.42,1a90.68,90.68,0,0,1,12.33.68l-6.44,9.31,17,1.25,2.62-5.79a2.82,2.82,0,0,0,1.63-.68,4.89,4.89,0,0,1-1.31-.12l2.18-4.77a2.4,2.4,0,0,0,.66.46c-1,.91,1.31,1,.87,2.27.77.11,2.08-1.14,1.2.11,1.09-1,1.31.46,2.4.12-.43.68-.22.56-.54,1.7-.55-.11-.22-.8-1.09-.8-.22,1.14,1.63.8,1.2,2.05a1.37,1.37,0,0,1,1.09-.23L671.89,310l-1,2.27a.78.78,0,0,0-.44.91l-.43,1c-.55-.91-1-1.71-1.64-1.93.65-.57.87.45,2.07.34a1.15,1.15,0,0,0-.65-1.48l2.07-1.13.87-.46Zm-57.16,18.62c-.11.12-.11.12-.11.23-.33-.23-.44-.23-.33-.34Zm.65,0c-.11,0-.11.23-.11.34-.22.57-.43-.34,0-.34Zm.87.23a.39.39,0,0,0-.54-.23h-.44c.11-.23,1.31-.23,1.2-.68.33.11.22.57.66.45-.11.57-.55,0-.77.46Zm2.84,19.08a5.22,5.22,0,0,0-.76-.69c1.74.12-.44-.68.43-1.81.33,0,.11.57.44.57-2.73-4.21-2.51-11.25-.76-17.38l.54.23c-1.42,4.88-1.85,10.22.66,15,.65-.68-.77-1.93.76-2-1.42,0-.76-1.47,0-1.59-.11,1.59,1,2.62,1.64,4.09.43-1,0-1,.11-2.16-1.1.69-1.42-1-.66-1.24-1.09-.46-.44-1.25-.76-2.16.32,0,.43.23.65.23,0-1-.76-1.25-.76-2.16.33,0,.33.45.54,0a14.79,14.79,0,0,1,.33-7.16l.66.23a18.48,18.48,0,0,0-.11,6.93c.11-.34.32-.68,0-.23.11-1,1.41-3.52,1.63-5.45,1.2-.34.44,1.14.55,1.82-1.86,3.29-.11,7.26,1.42,10.22Zm.33-18.63c-.66,3.18,0,7.5.33,10.68-2-2.73-1.2-7-.44-10.68Zm.11-.45c.32-1,.54-2,.87-3,.33.11.55.34.44.91a11,11,0,0,0-1.09,2Zm7,12.94a24.34,24.34,0,0,0,1.42,3c-.33-.23-.88-2.16-1.2-.8.76,1,5.34,5.57,5.56,3.86a4.74,4.74,0,0,0,1,1.14l-2,.68,2.29.45.54-.68c.33,0,.77.12,1.2.12l.11,1v2.38a16,16,0,0,0-3.38-.45l1.53-2.39-2.29-.45-3.27,1.14-3.06-.46c-.65-.68-1.2-1.48-2.18-.91.54.12.22.34-.11.34l-1.53-.22a.37.37,0,0,1-.11-.23c0-.57-.43,0-.76-.11a11.1,11.1,0,0,1-.44-1.94l11.46,2.39,2-.68a6.12,6.12,0,0,1,.87.45l-.54.68,1.85.46-.11-1a8.49,8.49,0,0,0,1.53-.23c-.65,1.36,2.51.34,3.82.45.44,0,1,.8,1.42.8,2.07.23,4.69-1.59,4.69.34a1.72,1.72,0,0,1,1.09-.46l-.87,1.82a.75.75,0,0,0-.77-.57,8.76,8.76,0,0,1-.54,1.14l-.33-.11c0-.12.11-.12.22-.23-.55,0-1.09,0-1.2-.34.54-.34,1.31.23,1.85-.8-1.09,0-1.09.34-1.52-.45a5.4,5.4,0,0,0-1.86,1.25l-9.27-2.05-1,1.59,12.76,2.39c-1.31,1.13-2.94-1-3.05.23-.22-.46-1.42.11-.22-.57-1.75.11-2.84-.23-3.17,1,.44-2.16-5.23.45-2.5-1.48l-1-.34v-.68l-2.83-.57-7.64-1.36,3.06.46-5.89,2.38c-.33,0-.55-.11-.66.11-1.42-1-.54-2.61-1.64-3.63v-.34l.55.11a1.34,1.34,0,0,0,.87.46c0-.12-.11-.23-.11-.34l1.53.22c-.44.23-.76.23-.33.57.55-.34,3.39.46,2.29,1.59,1-.57,1,0,1.64-.91a1.9,1.9,0,0,1-1.31-.68l7.64,1.36-.55.8a14.57,14.57,0,0,1-2.07-.34c-.11.57-.76.34-.66,1.25.88-.23.55.45,1.1.68a1,1,0,0,1,1.09-.8l-1.75,2.73c-.65-.12-1.2-.23-1.09,0a8,8,0,0,0,.87.34L629,357a5.1,5.1,0,0,1-3.82-1.71c.88.12,1.75-.22,2.29-1.58-.54.11-2.4.22-3-1-.22.91-1.2.12-2-.11l9.16-3.52-11.46-2.39a2.32,2.32,0,0,0-.32-1.24Zm-6.55,9c0-.35.22-.23.55,0Zm2.73-26c-.87-.23,0-1.36,0-1.82C623.89,322.73,623,323.75,623,324.2Zm2.18-1.36a20.32,20.32,0,0,0-.87,3.06C623.78,326.36,624.22,322.84,625.2,322.84Zm1.31-7.38c.22-.23.55-.12.55-.46-1.42,0-1.31,1.25-1.53,2.16.65-.23,1.31-.45,1.42-1.14C626.62,316,626.51,315.8,626.51,315.46Zm-.11-5.91c.22-.11.44-.34.66-.34a10.63,10.63,0,0,1,1.2-1v1.48Zm3.49,9.09a1.14,1.14,0,0,1-.87.11,1.35,1.35,0,0,1,.87-1.14Zm-.54-1.37c.11,0,.43-.11.65-.11-.22.45-.22.91-.65,1.14ZM636.77,359c-.11,0-.33-.11-.44-.11-1.09-1.48-4-1.25-6.76-1.48l.76-1.25c1,.23,1.85.45,2.4-.23-.65,0-1.53-.11-2.18-.11l1.63-2.84c.33,0,.66.11,1.09.11-.1.46-.54.46-.76.8,1,.11,2.18.45,2.51-.34.65.45.87-.12,1.2.34,0,1.13-1.53.34-1.64,1.13-1.09.12-2.29-1.13-2.61.12,1,0,2.5.22,1.63,1,.66.57,2.4.34,3.06.45l-.11.46s0,.11-.11,0h.11Zm16.9-51.78v.34c-8.83,1.59-16.36,6.24-22,11,3.27-5.67,9.16-7.6,15.49-10l6.54-1.36,4-10.68c1.74-.22,3.38-.22,5.13-.45l-2.18,9.88Zm-21.81,7.61c-.22-1.14,1.09-.57,1.2-1.25C633.93,314,632.51,314.78,631.86,314.78ZM636,350.21h7.64a4.64,4.64,0,0,0-.55,1c1,.91,2.29-.12,3.38.34l-10.14.23Zm.11,7.49c1-.57,2.95.34,3.82-.68-.55-.68-2.4.34-2.73-.23.77-.45,1-.68,1.09-1.13.77.45,1.75,0,3,.34.43,1-.66.68-.77,1.36,1.2-.23,2.3.45,2.73-.91-.65,0-.65.34-1.2.45-.33-.79-.43-1.24,0-1.81a3.39,3.39,0,0,0,2.84.57l-.33,1.36a38,38,0,0,1-7.85,2.5Zm1.31-1.82c.33,0,.44.23,0,.46Zm8.29-47.69c-.44.11-1.53.23-2.62.34C643.31,307.74,645.16,307.62,645.71,308.19Zm-2.18-3.63c1.09,1,3.16-1.25,3.38-1.37-1.2,0-2.4,0-3,.68C644.4,304.1,643.75,304.22,643.53,304.56Zm14.07,49.51-.33.79a5.08,5.08,0,0,0-1.41.57h1.2l-.22.79a7.78,7.78,0,0,1-1.42.34l.11-.9c-1.75-.12-5.57,1.24-5,0-2,.56-3.82,1.13-5.56,1.59l.54-1.37c.33-.11.44-.34.55-.68-.11-.23-.22-.23-.22-.23l.55-1.24a2.53,2.53,0,0,1,1.85,0c-.44,0-.55.45-1,.45-3.49,1,1.85-.34,2.07-.11-.44.45-1.31.68-1.75,1.13.55,1.7,3.5-1.47,3.28.46A44.46,44.46,0,0,1,656,354l1.64.12.22-.8c.11-.11.33-.11.43-.23l2.41.34c-.55.35-1.21.57-1.86.91Zm-11.67.45c-.55,0-.77.79-1,.11,0-.68.65-1.13,1.42-1.47Zm.44-3.52a1.07,1.07,0,0,1-.55.45A.59.59,0,0,1,646,351Zm1.09.45a6.45,6.45,0,0,1,2.72-.79l1.53.45c-1.09.23-2.62.23-3.93.46Zm.54,1.37c-.22.11-.33.11-.54.22l.21-.22Zm.66-3.52c.65-.23,1.09-.23,1.2-1.25.76,1,2-.57,2.61-1,0,0,.11.68.33.56.65-.22,1-1.13,1.64-1.47,1.09-.46,2.72.11,3-1.71l.11.91c.76-.79,2.4-1.7,2-2.5.22.12.33,0,.66.12l-.11.91a6.32,6.32,0,0,0-2.84,3.06c-1.74-.11-3.38.68-5.34,2.16.87,1.36-1.86,2.38-3.17,2.95a1.06,1.06,0,0,1-.43-.68ZM649,351c.88-.34,2-.79,2.73-1.14a8.38,8.38,0,0,1-1,1.14Zm5.13,6.25a2.9,2.9,0,0,1-2.4,1.36C651.82,358.61,653.35,356.79,654.11,357.25Zm-1.85-9.09c.43-.79,1.85-.34,2.61-.68C654.66,348.5,653.24,348.05,652.26,348.16Zm7,1.93a8.11,8.11,0,0,1-6,1.36c.54-.34,1.2-.45,1.52-1a14,14,0,0,0,4.91-1.7Zm-.66,3.64c-.43.22-.87.56-1.31.79l.11-.79h-1.63c.65-.23,1.09-.69,1.74-.91l-.11.91Zm4,.68a38.26,38.26,0,0,1-5.35,1.13l.33-.79a19.55,19.55,0,0,0,3.49-.68Zm9.27-11.13a19.21,19.21,0,0,1-7,5.9c0-.56.87-.45.54-1.36-1,.23-.76,1.36-1.74,1.48.22.45.44-.12.87-.12-1.53,1-2.83,1.93-4.14,2.84h-2.51c2.29-1.36,4.14-2.84,4.47-4.77.76.68.76-.57,1.42-.68,0,.34-.44.34-.22.91.87-.45.65-.57,1.09-.8-1.09-.56,2.07-1.24.76-1.93-1,.91-2.94.91-2.5,2.16-1.86.23-3.28,1.48-4.8,2.5l.32-1.36a49.3,49.3,0,0,0,5.13-4.32c.33.8,1.64-.45.76-.68l.11.57c-.43-.34-1.42-.11-1.85-.34.11,1.13-1.64,1.47-2.29,1.13-.22,0-.77,1.71-1.53,1.82l.11-.45a1.65,1.65,0,0,0,.54-1.25c-.1.11-.21.11-.32.22l.22-.9c1.31.22,2.07-1.25,3.27-2.39l1.63.34c-.1,0-.32.34,0,.34A.87.87,0,0,0,665,342Zm-12,2.84c-.22.11-.44,0-.65-.46a.63.63,0,0,0,.87,0Zm5.67-52.58.11,1a.79.79,0,0,1-.32.12l-.33,1.59c-1.53.11-3.16.34-4.91.45l.65-1.36a14.65,14.65,0,0,1,7.42.23c1-.23.77-1.37,2-1.37,0,.91,2.83.34,3.38.34-.11-.34-.66-.22-1-.22.54-1,1.2-.46,2-.23l-1.09,5.22a14,14,0,0,1-4.15-1l2.4-.23c-.32-.68.11-1-.43-1.13-.22.23,0,1.13-.77.91.22-1.59-5.56-.57-4.25-1.71-.44,0-.77.12-1.2.12l.33-1.59v-.23h.1Zm-4.8,60.3c.66-.34,1.2-.68,1.75-1l1,.11a5.79,5.79,0,0,1-1.2,1Zm9.17-46a4.06,4.06,0,0,1-.88-.34c0,.45.66.79.22.91-2.4.22-5.23,2-7.52.91l1.85-11.25a8.53,8.53,0,0,0,1.53-.22c.76-.23.43.9,1,.79,2.07-1,4.47.91,6.44.45l-1,6.93Zm-4.37-14.76c-.87-.46-1.74-.12-3.27-.12.76-.79-.54-.22-.33-1.25.44.34,1.09.34,1.2.8a2.72,2.72,0,0,1,2.62-.68v.45Zm-2.83,59.16a5.53,5.53,0,0,0,2-1,2.73,2.73,0,0,1-1,1.25Zm4.14-8.63c1-.8,1.2-2.73,2.62-3.18-.22-1.48,3.16-2.73,1.75-3.29-1.2,2.38-4.15,4.31-4.8,6.24-.22-.11-.11-.57-.44-.57l.11.69-1.75-.35c.11,0,.11-.11.22-.11,1.09-1,2.73-1.82,4.26-3.41,3.38-3.74,5.12-9.76,6.87-11,0,.11.54.57.76.45.11-.79-.76-.45-.87-1.13-1-.23-.55,2-1.31,1.25,0-.8.55-1.25,1-1.82.44.11.77.34,1.2.45.33-1.58,1.53-3.52,2.18-5.79l5.24-4a21.9,21.9,0,0,1-1.64,7.38c.66-.11.77.91.22,1.82-.76,0,.33-.68-.22-1.25-3,4.31-4,10.1-8.4,13.4,1,0,2.95-.34,3.71-1.82,1,0-.87,1.14.22,1-1.53,1.93-2.73,4-4,5.91ZM665.56,295c-.21-.12-.11-.23,0-.23Zm2-1.37c.22-.34.65-.22.76-.79.11.23.66.57.87.11C670.15,293.88,668,294.56,667.53,293.65ZM669,339.87c.1.23-.11.57-.22.12-.77,0-.88.68-1.09,1.13C668.29,342,669.93,339.3,669,339.87Zm.21-.68c-.43-.11-.65-.57-1.09-.68.55-.45,1.31.11,1.86-.68C670.69,338.28,669,338.28,669.16,339.19Zm.66-44.51c-.33-.46.76-1.14,1.74-.68C671.13,295,670.25,294.11,669.82,294.68Zm16.47,12.37c.22,1.82,2.29,3.87.33,4.55a1.48,1.48,0,0,1,.54,2.49c-.65-1.47-.32.91-1.41.46-.11.68,1.19.11,1.41-.12.66.8-.43,2.28-1.2,2.28.11.45.44.45.55.22a29.14,29.14,0,0,1-1.31,4.55l-6.11,2.27a8.65,8.65,0,0,0,1.42-3.64c-.55,1.14.11-2.15-.76-.79.87.91-1.64,3.06-2.3,2.95.88-1,2.4-4.43,1.2-3.63a.64.64,0,0,1,.88-.57c.87-3.75-1.09-6.47-3.06-8.86-1.09,1.59-1.85,3.41-3.49,4.2-1.63-.22-2.4-1.47-3.16-2.61l.43-.91c.11.34.22.57.77.23-.87,0,.87-1.14-.22-1.25,0,0-.11-.11-.11,0l1.2-2.72h.55l12.21.79c-.11.45.33.68,0,1.59a1.12,1.12,0,0,1,.66,1.59c1.85-.45.44-1.14.87-2-.43-.12-.54-.46-1.09-1.14Zm-13.85,31.23c-.88.12-2.4.91-2.08,1.36C670.8,338.85,672.55,339.87,672.44,338.28Zm13.2-33.61a2.92,2.92,0,0,0-.55-.45,1.23,1.23,0,0,1,.11.56l-11.78,3,8.29-8.75a9.94,9.94,0,0,1,1.63.11c-.54,1.37,2.84,2.5,1.75,3.18.22.69,1.31-.11,1.53.46a1.9,1.9,0,0,0,.22,1.7Zm-9.06,27.48a26.3,26.3,0,0,1-2.29,3.75C676.15,336,678.11,333.06,676.58,332.15Zm.87-7.84c.33-.79.44-1.58,1.42-1.58a6.63,6.63,0,0,0-.43,1.13Zm1.75-.11a1.14,1.14,0,0,1-.87.68Zm2.18.91c-1-.11-2,2-2.29,2.61C679.85,326.93,681.16,326.7,681.38,325.11Zm3.49,4.66c-.65,1.58-2.18,3.17-2.29,4.54-.22-.12-.22-.57-.65-.57C683,332.49,683.24,330.45,684.87,329.77Zm1.75-2.62c-.44,1-1.2,1.25-1.64,2.27C684.76,329,685.85,327.27,686.62,327.15Z"/><path class="cls-1" d="M708.43,341a11.23,11.23,0,0,1-1.85,2.95,1.45,1.45,0,0,1,.11,1.82c2.07,0,2.51-.46,3.93-.34L702,355.31c0-.22-.11-.56-.55-.45.11.68-1,.91-1.09,2.16l-.11.23c-1-.23-2.07,1-1.53,1.47a8.24,8.24,0,0,1-5.67-.34l.11-1.25c-.76,1-1.42.23-2.29.46a2.32,2.32,0,0,0,.11-2.39c-.65-.23,0,1.36-1,.8,0-1.14,1.2-3.52,2.51-4.09-.77-1.59.32-3.64.87-5.45Zm-15.81,4.2a3,3,0,0,0,.21-.91l14.84-5.11c0,.11-.11.23-.11.34Zm2,1.82a3.92,3.92,0,0,0-.33-1.71c.44,0,.55.23.87.23-.65-.8-.1-1.59.77-1,0-.46-.11-.91.22-.91-1.09.11-1.2-1,.22-.8-.77-1.59.43-2.15.1-3.63a3.67,3.67,0,0,0,1.86-1.48c0-.79-.33.46-1.09.12-1.31-1.25,1.52-1.59.76-.8,1.09-1.13.22-3.52,2.4-5.22-.65-.34-1-.91-.54-1.59.32,0,.21.45.43.68a4,4,0,0,0,.44-1.36l.54-.12c.11.69-.43,1-.76,1.48.33.8.11,1.14.44,1.36.21-1,1-.45.43.34a1.63,1.63,0,0,0,1.09-.79c-.76,0,.88-1.82,0-1.93,0,.57-.43,0-.54.45.22,0,.33.12.11.34-.77-.11-.33-.9-.22-1.36l2.29-.45a1.23,1.23,0,0,0,.11.56c-.44-.11-.77.12-.77.35-.65.9-2.18,6.7-1.74,8.4-.76-.11-1.09.23-.76,1,1.2-.23,1.09-2.84,2.29-1.25,0-.68.32-1.7-.22-2.16,2.51-.34,2.18-5.33,4.47-6.81.22.45-.33.8.11.91a14.6,14.6,0,0,1,.65-1.93l2.51-.57a2.19,2.19,0,0,0-.21,2.27c.21-.68.76-1.7,1-2.5l1.63-.34a12.25,12.25,0,0,1-3.16,3.64c-1.2,2.15-1.2,5.45-1.85,8.4Zm3.38,9c-.44-.46-1.42.11-1.74.56,1-.22-.55,1,.43.91.22-1,.44-.45.87-.11C697.2,356.56,698.07,356.68,698,356Zm3.16,1.25v.22H701Zm16.48-34.64a21.49,21.49,0,0,1-2.29,4.77l-1.64.23c.44-.91.65-1.71.11-2.27a11.4,11.4,0,0,1-1,2.38l-2.51.34c1.09-2.61,2.62-5.45,2.94-8.51-1-.35-.22,1-1.2.56.33-1.13,1.64-2.95,1.42-3.63-.11.34-.54.68-.65.23.21-.34.54-2.16.21-2.16-1.2,1.13-2.18,4.09-3.38,4.2,0-1.36,2.08-2.38,1-3.75-.77,1.59-1.42,4.32-2.41,4.77,1,.68.22,3.41-1.09,2.5-.11.91.66.91.66,1.82a1.05,1.05,0,0,1-.87-.34c.32.91.43,2.38-.77,2.61.33,1.36-.22,1.47,0,2.27l-2.29.23c.11-.34.22-.68-.11-.57-.11.34-.11.45-.54.34a.42.42,0,0,1,.11.34h-.55c1.09-2.61.76-5.11,2.84-6.36,0-.57-.77-.34-.55-1.13.55.11.77-.23,1.2-.46-1.31-2.61,1.42-4.54,1.42-5.9,0-.91-.76-.57.33-1.48-1.09-.57-.11-1.48-.44-2.84.11,0,.22-.11.33-.11l5.34-.8,1.09,2.84c-.32.57-.43,1.36-.11,1.7a1.12,1.12,0,0,1,.44-.56Zm.43,22.6a22.42,22.42,0,0,0-2.72,0c-.11.91,1.63.11,1.3,1.25-1.63-.23-2,.79-3.49.57-.11.45.22.56.55.68-.44.91-.66-.8-1.42-.46-.65.12.22,1.14.87,1a2.57,2.57,0,0,1-2.07,1.14c1.2.8,4.26.57,4.69-.79a.11.11,0,0,1,.11.11L714.54,351c-.43.23-.76.34-1,.45-3.16.8-7.42,1.71-9.82,2.05-.33.11-.22.57-.33,1-.54.23-.54-.11-.54-.34l8-10.33H712c-.11-.69.11-1.14.55-1.14.33.91.33.57-.22,1.14,1.09.45,1-.69,1.75-.8.1,1.36,1.09,0,1.74.68-.11-1.47,2.62-.91,3.38-2.61-.22.57.11,1.14.44,1.14Zm-15-18.74c.87-.11,1.2-.91,1.53-1.59C703.41,324.88,703.52,326,703,326.47Zm3.49,8.63c.22-1,2.18-3.06,2-4.65C708.11,332.26,705.16,333.51,706.47,335.1Zm4.69-29.86-4.36-7.72c.76-.8.21-3.41,2-3.18l2.4,10.9,2.73,4.77,8.18-.12c.11,3.3-1.53,5.91-3.38,8.41,1.2-2.28,1.42-4.43,2.83-6.7a26.46,26.46,0,0,0-3.49,5.56L713.89,310h-1.64Zm12.11.11h-.11c.22,1.14,1.2,1.7,1.2,2.84-.55.79-1.09,2.27-1.75,1.93.11.34,0,.68.11,1l-8.18-.34,3.71,7.5c-1.09,1.93-2.07,4-3.16,5.79l-1.53-9.2c.65-.34,1.42-.57,1.53-1.59a1.44,1.44,0,0,0-1.75.45l-.43-3.06,1.63.11L712,305.92l.88,4.77-5.46-.12a1.22,1.22,0,0,1,1.09-.34c.11-.79-.43-1,.22-1.59l-.87-.11c2.51-.91,1.63-4.54-.22-5.56.44-1.14,1.42-2.73-.22-3.18a6.76,6.76,0,0,1,1-.8c-.22-.45-.54.11-.76-.79.22.11.33,0,.54-.23l3.82,7.95-1.74-11h.11a.86.86,0,0,1-.22-.45l-.44-2.61c2-2,3.17-1.14,6-1.82v.23Zm-14.84-9.88a3.26,3.26,0,0,1-.54-2.38s0-.12.11-.12Zm1.42,51.9c-.44.22-1.74-.12-1.64.56.44.69,1-.9,1.53.12-.76,0-1.31.22-1.42.79.88-.22,2.4.12,2.62-.68C710.18,348.39,710.29,347.59,709.85,347.37Zm2.95-15.11a4.25,4.25,0,0,1-1,2.5C711.6,334.65,712,332.49,712.8,332.26ZM713,290h.11c0,.11,0,.11-.11.11Zm10.8,59.73A44.27,44.27,0,0,1,715,351.8c.65-1.14-.55-.57-1.42-.12l1.2-2.27c1.42.57,2.94,0,4-.34.11.45-.22.45-.22.91,1.53-.46,3.27-.91,4.91-1.36Zm-9.7-62.11c5.56.11,12.32,2.27,16.47,1.47.87.34,1,1.37,2.07,1.59.33-.34.33-.68,1.64-.34-.11.46.21.68.11,1.25,2.72,0,3.92.8,6.87,1.93a.83.83,0,0,0,.65-.68c0,.23.11.34.33.57l-1.2,2.95c-.87.11-1.85-.11-2.07-.68.43,0,1,.23,1.2-.11-1.42-1-2.84-.8-4.37-1.25,0,1.47-1.85.22-2.18.34.33-.57,1.42.22,1.64-.46-.55-.11-1.09-.11-.87-.68-2.08.11-3.06-.45-1.31,1-.77-.11-2.19-1.25-3-.45,2.29,1,3.93,1.82,6.11,1.13,1,.8,2.07,1,2.07,2.5-1.42,0-1.85-.45-2.51.34a13.17,13.17,0,0,1,4,1.82l-1.64,4.77c-5.12-1.25-11-1.36-16.69-1.82Zm9.7,56.77c-.21,0-.43,0-.43.23,0-.45.22-.45.22-.79-1.86.68-3.39,1.13-5.46,1.7l1.2-3.18c.11.11.22,0,.33-.45l-.11.11v-.34a15.55,15.55,0,0,1,2.4-1.25Zm-5.12-3h-.44c.22-.11.33-.11.55-.23Zm2.83-.79c3.17-1.48,6.66-2.73,9.71-4.09l-.43,5.56c-1.64.8-3.17,1.48-5,1-.22.91-1.42,1.14-2.29,1.48Zm1.64,6.7a48,48,0,0,1,5.89-1.37,40.45,40.45,0,0,1-5.45,2.5Zm6.33-3.3c.54,1-1.75.68-2.62.91C727.09,343.85,728.61,345,729.49,344.07Zm3-6.13c.22-.11.55-.11.76-.23l2.51,3.75a4.15,4.15,0,0,0-1.09.8,5.7,5.7,0,0,0,1.53-.12l.87,1.37c-.76-.12-1.2.22-1.74.22-.77-.22.87-.45,1.2-.57a10.25,10.25,0,0,0-5.24.23Zm12.76.12c-.65.45.33,1.24-.1,1.24-1.31.34-.22-.68-.22-1.24-2,1.93-6.22,5.45-7.53,5.22-.66.45-.76.34-.33,1.25a.4.4,0,0,0-.33.11l-1.09-1.25a.84.84,0,0,0,.22-.91,1.08,1.08,0,0,1-.65.23l-2.95-3.29a32.83,32.83,0,0,0,3.93-1.93c-.22,1.7,1-1.25,2.07-.34-.43-1-2-.12-.87-1.37-2.4.34-3.93,2.84-5.56,3C733,336.81,737.23,336,737,334a24.4,24.4,0,0,0,3.28-1.59l1.85,2c-.87.68-1.31,1.48-3.16,1.14.32.56-.77,1.13.11,1.13-.22-.57,1.31-1,1.52-.34-.76,0-1.09.68-1.41,1a8.07,8.07,0,0,0,3.7-2l1.42,1.59-.11.11h.22ZM760,313.64c-.11-1.59-.54-3.18-1.42-3.86,1,1.36.11,1.93.88,2.38-1,.46-.33,1.14-.11,1.82l-2.08,1.25c-.11-.91,1-2.27-.43-2.16.21.57-.11,1.82.21,2.27l-2,1.14c.66-2.05.77-4.66-.54-5.79.43.11.76.57,1,0-.55-.57-1.2-2.39-1.75-1.71.22,1.48,2.08,5.91.11,7.39.66-3.07.11-6.93-1.74-8.75-1.2.23-1.64-.23-1.31-1.13-.44-.46-.55,0-.87.22l-.44.12c-1.31-2.5-5.13-1-6.87-2.39,0-.79.87.68.54-.68a13.31,13.31,0,0,0-3.05-.11l1.85-4.43-2.51,4.31a.89.89,0,0,0-.54.12l.54-5.11a3.29,3.29,0,0,0,3.17-.68c0,.11,0,.11.1.22l-.76,1.14-1.85,4.43a1.29,1.29,0,0,0-.66-.12l2.51-4.31.66-1.59a3.69,3.69,0,0,0-1.1,0c1.31-.91-.32-.8,1-1.59.32-.11.32.11.32.23s.22.22.33.34l-.44,1,.33-.57c0,.12,0,.23.11.23l-.33.34h-.11l.44-1h.33l-.66,1,.33-.34c.33.34.87-.34,1.64.11-.44.68-1.2.46-2,.23l.66-1h.22c1.09.11-.33.45-.77.34a.11.11,0,0,0,.11.11l-.33.57h-.1l-.66,1.59.76-1.14c-.1,1.14.88.46,1.53.23.11.45.33.57.11,1,1.09-.45,1.2-.23,2.62-.23-.11.69.65.69.44,1.48,1-.34,1.2.34,2.07.11.11-1.13-1-.79-1.86-.79.66-1.25-2-1-2.29-2.27l1.75-.11c.22-1-1-.34-1-1.14.32-.11.32-.34.65-.45,1.53,2,2.95,2.15,4.91,2.95-.33-1.14-1.09-.46-.65-2.05a10.56,10.56,0,0,1-4.15-1.81c.11,1.47-1.2.11-1.42-.12-1-.22-.54.91-1.09,1,0-.23,0-.34-.11-.46l.11-.23a.24.24,0,0,0,.22-.22h-.11l.76-1.25c1.2.45,1.31,0,2,.68.87-.45-.55-.8.22-1.36.87-.12.76.91,1.74.45.22.57-.11.68-.44.68-.21.57,1.31.34,1.1,0,1.09.34-.66.57-.44,1.25a4.05,4.05,0,0,1,2.62-.91c.22,1,.54,1.82,1.63,1.82-1.2,1.36-1.63-1.25-3.05-.79.11.34.76.45.33.68,2.72,1.93,5.12.91,6.87.79-.55.46-1.42,1.59-2.29.91,0,.79.76.79,1.09,1.13-.33.57-.87.8-1.2.46,1.09.91.33,2.16,1.42.11,1.09.91,2.72,1.25,3,3.18.22-.11.55-.34.44-.68,1,.23-.22.68-.11,1s.76-.68.65.8c.22-.23.66-.34.77-.68a4.14,4.14,0,0,1,1.31,1l-1.31.23c-.11,0-.22-.12-.44-.23,0,.11.11.23.11.45L760,305v-.57c-.65-.68-1-.22-1.2-.57.11-1.7-1.2-2.49-2.94-1.93.76,0,1.85.91,2.5,1.37,0,.34-.54.22-.43.56a6.52,6.52,0,0,1,1.09,1.25l-.87.12a2.56,2.56,0,0,0-1.86-1.71c.22.91,1.09,1.25,1.42,1.82l-4.69.8a4.49,4.49,0,0,1-1.09-1,12.48,12.48,0,0,0,.54,1.14H751a.79.79,0,0,1,.54.23c-1.09-2.05-2.83-3.3-5-3a4.74,4.74,0,0,0,3.71,1.48,1.18,1.18,0,0,0,.77,1.25h1.52a4,4,0,0,0,1.53,1.48,2.58,2.58,0,0,0-1-1.59l4.69-.8c.22.11.22.46,0,.8a.69.69,0,0,0,.44-.91l.87-.12c1.2,1.82,1.74,5.11,2,7.95Zm-19.09-22.37c.44.34,1.53.57,1.42,1,.43-1,2.62,1.14,3.16-.34a.38.38,0,0,1,.22.11l-1.2,3c.11-.12.11-.23.22-.23s.11.11.11.23l-.22.22c0-.11-.11-.11-.11-.22l1.2-3c.33.35-.44,1-.22,1.48.11,0,.11.11.22.11l-.76,1.14c-1.09,0-2.19.45-3.28-.91a2,2,0,0,1-1.41.57Zm2.95,45.54a11.64,11.64,0,0,0,.87-1.14c-.22,0-.33-.11-.22-.45a2.79,2.79,0,0,0-1.53.68l-1.74-2a30.48,30.48,0,0,0,3.82-3.4c-.22,2.15,2.61-.91,1.85.9,1.2-.22,1.09-1.7,2.18-2.27-1.63-.22-2.4,1.71-3.6.91.11-.79,1.2.34,1.2-.79-.43-.68-1.09.79-1.63-.12,1.09-.22,2.94-1.36,1.63-1.81.55-.68,1.42.22,1.64-.8-.44,0-.55-.22-.55-.45l6.88-1.71-.33.35c.65.79.33,1,.33,2.15a2.69,2.69,0,0,0,1.52-1.59c-1.2.46-.76-.45-.32-.79-.22,0-.44-.12-.33-.34l.87-.23V324l4.91-1.13c-.44,1.13-.87,2.27-1.31,3.52-.76-.68-1.2.34-1.74-.11-.11-1,1.2-1.14,1.09-2.16,0-.23-.22-.12-.22-.46-.87.68-.66,1.93-1.64,2.39-1-.57.87-.91.66-1.71-.44-.45-1.1,1.48-2.08,1.59.22.46.66.46,1.2.46-.43.91-1-.11-1.63.57.11.34.65.22.54,0,1-.23-.32,1.36.44,1-1.64,1.7-3.49,2.38-4.58,3.86.11.23.43.23.76.23-2.51,2.27-5.45,3.86-7.53,6.36Zm1.85-.23a7.41,7.41,0,0,0,3.49-1.36c.55.56-1.09,1.25-1.64,1.7,1.64.34,3.71-1.59,5.79-1.82.65-.68-.55.91-1.31.57-.22.45,1.42.57,1.2.11.32.46-2.73,2.16-2.95,1-.54,0-.32,1-.76,1.13-1-.57-1.75,1.25-2.95-.11h-.22Zm5.89-35.2c-.11-.34.33-.46.76-.46-1.41-.91-2.72-2.27-4-1.59C749.78,300.13,750.43,300,751.63,301.38Zm-2.18,6.47a.47.47,0,0,1-.55.11Zm12,8.63c-.66,3.75-3.49,6.7-2.84,8.4l-.87.23c-.11-.23-.22-.34-.44-.34,0,.34-.22.45-.43.57l-7,1.36a1.68,1.68,0,0,1,.43-1c.77,1.13,2.95-2.05,2.29-2.5.11.34-.32.57-.54.11.54-.11-.22-.45.32-.56a4.79,4.79,0,0,0,1.1-1.71l3.81-2.16a6.73,6.73,0,0,0-.11,1.59,2.64,2.64,0,0,0,1.75-2.61l1.31-.68v1.48c.22-.57.33-1.14.54-1.82Zm-8-13.4c-.11-1.7-.66-1.7-1.86-1.82C752.29,301.83,752.5,302.85,753.49,303.08Zm5.56,13.17a.84.84,0,0,1-.55,1.25c0-.34.22-.79-.11-.91a6.12,6.12,0,0,1-1.2,2.27l-4.14,1.25a11.38,11.38,0,0,0,1.31-2.27l2.18-.68c.11,0,.11.11.22.23v-.23Zm-5.35-15.33c.55,0,.66.57,1.42.46,0-.46,0-.69.22-.91-1.09.79-1.09-1-2.18-1C753.05,300.47,754.25,300.13,753.7,300.92Zm.11-1.93c.11,1.14,1,1.7,1.86,2.39,0-.57-.22-.8-.88-.8C755.56,300,754.36,299.45,753.81,299ZM757,310.35c-.33-1.14.32-2.05-1.09-2.5C756,309,755.89,310.35,757,310.35Zm2.29-10.11c0,.57-.33.57-.66.68,0,.23.22.23.22.57.33-.11.22-.57.66-.57,1.74-.23.87,4.54.32,1.82.22.11.11.45.44.45-.22-1.25-1-1-2-1.13.65-1.71-1.21-1-1.1-2.27A8.45,8.45,0,0,1,759.27,300.24ZM764,314.66a7.05,7.05,0,0,1,.22,1.36c-.33.12-.33-.45-.33-.79-.55.68-.11,2.27-.87,2.84,1,.11.54-1.14,1.2-1.36a12.81,12.81,0,0,1-1.75,7l-5,.79c1.2-2.72,4.8-5.34,4-8.63Zm-3.38-.23c0,.8-.11,1.48-.11,2.16l-1.31.57a12.87,12.87,0,0,0,.43-2.27Zm1-.79c.11-2-.33-3.63-.22-5.79-.44.23-.87-.68-.87-1.93l1.2-.11c.65,2.15.32,5.11.87,7.38Zm3.16-.68a14.66,14.66,0,0,1,.66,2l-2.4,1.25a9.41,9.41,0,0,0-.44-1c-.11.45-.11.91-.22,1.36l-.76.34a10.23,10.23,0,0,0,.32-2.38l.88-.57c.22.45.43.91.65,1.36a2.27,2.27,0,0,0,0-1.7Zm-1.85,0a12.7,12.7,0,0,0-.77-2.73c1.2,0,.22-1,.22-2.15.22.11,1.09.9,1.2.11-1.31,0,0-.8.11-1.25-1,0-1-.68-1.2-1.25h1.31a6.88,6.88,0,0,0,1,2.61c-1,.34-.76,2.39-.54,4.2Zm.65,5.56c-.22.57-1.09,2.16-.65,2.5C763.08,320.34,764.39,319.09,763.52,318.52Z"/><path class="cls-1" d="M763.19,387.68c-.22.11-.54.23-1.09.45.77-.57.33-1-.11-1.59-.87.46.55.8-.22,1.25-.54.12-.32-.91-.76-1.13a1.66,1.66,0,0,1-1.09.45c-.55.45.66,1.48-1,1.36.65-2,0-2.15-.87-4.2.65-.23.76-1.93.76-4.54,1.85-.34,1.2-3,1.85-5.11.66.34.33-.11,1.2-.23a5.51,5.51,0,0,1,.77-3.86Zm-.32-15.33c1.63-2.5,4.58-3.75,3.6-7.84.21-.68,1.19-.56,1.74-.79-1.74.34-.44-2.16.76-1.36-.43-.91-.43-1.48.44-1-.22-.45.11-1.7-.54-1.47.43-.57.76-1,1.2-1.71l9,.34a8.35,8.35,0,0,0-.76,2.39c.76-.23,1-1.7.87-2.39h.54c0,1.48-1.2,3.41-1,4.09.66-1.13,1.75-3.18,1-4.09l1.31.12c.22,1.36-1,3.29-1.09,3.86a39.5,39.5,0,0,1-4,9.88c-1.53,2.72-1.31,5.68-3.28,7.83.11.46.44-.22.88-.11-.66,2-3.28,3.41-2.08,5.22-1.2-.9-1.63.8-1.85,2.16-.44-.34-1.31-.11-1.31-1.13-1.09.22-1.2,1-1.31,1.93-.65-.69.22-2.5.22-3.64-1,1.48-.22,4.32-2.51,5-.76-.46-1-.46-1.2-.23ZM768,382.57c-.65,1,.22-2.27-.43-.91,0,.34-.44.45-.44,1,1-.11.33,2.27.65,1.36C768.1,383.93,768.43,382.23,768,382.57Zm21.27-58c-1.31,2.61-2.4,5.34-4.25,7.61.33.57.87.68.76,1.7-1.31.12-2.07.34-1.63,1.82-.55.57-.66-.11-1.31-.23,1.09,1.82-1.75.46-.66,2.27a8.27,8.27,0,0,1-3,1.93c-.66-.56.11-.68-.22-1.58-1.42-.23-1.09,1.13-2.18,1.13,0-.68-.11-1.48-.76-1.48-.33.8-1.2,1.25-1.53,2.05-.87-.34-2.73-.8-2.07-1.93.43,0,0,.23,0,.57,1.09-1.71-1-2.84.43-5.68a3.39,3.39,0,0,1-1.63-2.05c.54-.56.54.23,1.2.23s-.44-.79.43-1.25c-.54-1.82-.33-4.31,0-7l1.42.12c-.65,2-1.53,3.63-.44,4.65-.32.34-1.09,2.27-.43,1.59a6.69,6.69,0,0,1,1.53-2.61c-.55-.11-.77.57-.88.11.44-1.13-.33-3.29,1.09-3.52l.11-.11c.22,1.47-1.42,2.5,0,3.18a6.31,6.31,0,0,0,.11-3.18l.66.23a10.72,10.72,0,0,1,.32,2.38,19,19,0,0,0,.11-2.5l7,.91v1.25a11,11,0,0,0,1.2-1.14Zm-16.9-2.5a6.63,6.63,0,0,1,.43-1.13c.33.79.77.45,1.2-.12l.88.12c-.33.57-.77,1.25-1.1,1.7Zm.87,9.66c.22-.91.87-2.5-.55-2.73.77,1.59-.22,1.93,0,2.73C772.68,331.35,773,331.58,773.23,331.7Zm.11-14.09c.22-1.13.87-1.7.32-2.83.77-.57.55,1.36.88.34C775,314.43,774.21,317.5,773.34,317.61Zm.22-4c.32-.45-.11-.79-.11-.91C773.23,309.44,774.87,312.85,773.56,313.64Zm9.7,45.76-.54-.11a.43.43,0,0,0-.11-.23c.11.12,0,.12,0,.23l-9.16-.34a10.77,10.77,0,0,0,2.07-5c1.31-1.7,2.4-3.18,2.07-5.45,1.75-2.38,2.29-4.88,3.38-8.17.55-.23.55.22,1,.22.77-.11-.87-.68.55-.68.22-1-1.09-.23-.76-1.13a3.63,3.63,0,0,0,1.42-.46,5.34,5.34,0,0,1,2.4-5.56,1.54,1.54,0,0,1-.33-1.25,2,2,0,0,0,1.09-1.36c.76.45.87.68,1.31-.46,0-.68-.66.57-1.42.12.87-1.94,1.42-.8,2.4-2-.11-.34-.87-1.25-.87-.57-1-.68.54-1.13.87-1.93h.22a.43.43,0,0,0-.11.34.38.38,0,0,1,.11-.22l2.4.11c-.55.68-.77,1.36-.22,1.7a4.28,4.28,0,0,1,.65-1.59h.44a2.56,2.56,0,0,0-.22,1.48,5.46,5.46,0,0,1,.77-1.36l1.74.11a2.6,2.6,0,0,0-.65,2.61c-.33.12-.44.46-1.09.34.76,1.93-1.42,3.75-.66,6,1.31-1.47,1.42-4,3.16-5a18.37,18.37,0,0,1,1-3.87l2.07.35c-1.64,2.95-3.06,6.24-4.69,8.63,2.29-1.14,3.71-6.36,5.45-7.95.22,1.93-1.31,4.65-3.16,5.9-.44,3.64-2.84,7.27-4.15,9.77,0,.11-.43-.46-.65-.34-.11,2.72-2.07,4.54-2.29,5.9-.44,1.59-1.42,1.14-2,1.82-.1.11.22,1.13.11,1.25-1,2-2.72,4.31-3.7,7.26.1.57.76-.68.76.8.22,0,.11-.34.11-.68a1.42,1.42,0,0,1,.43.91Zm-7.74-31.22-.11-1.25c-1.09.22-.65,1-1.64.56,0,.8.55,1.14,1.31,1.14C774.87,328.06,775.19,327.83,775.52,328.18Zm1.53,4.76c-.55-.11-.66-.79-1-1.24-1.52.45-1.41,2.38-2.18,3.4C774.65,335.1,776.72,334.08,777.05,332.94Zm-2.4-28.84a11.09,11.09,0,0,1,.87-3.06c-.11-.46-.87,0-1-.57,0-.12.11-.23.22-.46l12,5.68a28.12,28.12,0,0,1-.32,5.23c-.66,2.95-1.75,5.45-2.18,7.49l-3.49.79c0-.45-.11-.9-.55-.79.11.23,0,.57-.22,1l-2.83.68c.32-3.52.76-7,.87-9.31-1.09,1.59-.77,3.63-1.2,5.34-.77,0-.55.57-1.2,0a8.69,8.69,0,0,1-.11,4.43l-.87.11c.11-.23.22-.45.32-.68-.32-.34-.76-.34-.65-.91.33.34.44.11.87,0-.22-4.2.55-6.59.66-11l-.88.11c1.75-.45,1.42-2.95,1.53-5-.11.12-.11.23-.22.34Zm11.45-4.88,1.75.68c-.11.79-.33,1.36-.44,2a21.31,21.31,0,0,0-.22,2.84l-7.2-2.72-4.91,2.16,1.53-.69c-.33,1.37-.11,3.3-1.31,4.55.22.56.76.56.76,1.36-.65-.46-.32-.46-1.19-.11.32-.8.1-3.07.21-5.11l4.91-2.16,6.11-2.84-10.69-3.86a6.35,6.35,0,0,0-.76-3.41l1-.11-.22-.23,13.42,3.29c-.11,1-.44,2.16-.66,3.41Zm-11.45,23.39h0Zm1.41,46.79c-.21.68-1.52,1.81-.65,2.49C775.52,371.1,776.72,369.85,776.06,369.4Zm-.65-49.63a1.82,1.82,0,0,1,.55-1.13,2.71,2.71,0,0,0-.33,1.13Zm.22,3a5.39,5.39,0,0,1,.22-2.28h.32a9.93,9.93,0,0,0,.11,2.5Zm14-22.49c-.22.57-.43,1-.65,1.48l-1.64-.91-6.44,1.59-4.69-2.84c.66-.8,2-2.61.11-2.95.33-1,.66-.12,1.2.11V295l9.82,5.79Zm-13.31,18.51a6.73,6.73,0,0,0,.66-2.38C777.37,316.59,777.26,319.2,776.28,318.75Zm2.08,11.13.1-.91c-.32,0-.43-.23-.65-.45-.11.56-1.64,1.25-.76,1.81C777.05,329.31,777.92,329.31,778.36,329.88Zm-1.42-39.06c-.44-.8.43-2.05,0-3.52,1.74-.91,5.12-1.59,7-1-.33,1.14,1.53.91.76,1.71,0,.79.55-.34,1.09.11,1.53,1.82,4.15,2.73,4.15,5.45a6.68,6.68,0,0,1-.76,3.86Zm.22,31.68a24.91,24.91,0,0,0,.1-2.73l2.84-.79a21.06,21.06,0,0,0-.76,2.5c1.2-.69.32,1.25,1.31.68-.11-.68.21-2.39.21-3.52l3.39-1a4.43,4.43,0,0,0,.43,3.18,6.89,6.89,0,0,0-.43,2.5ZM779,336.92c-.87.23-1.85,2.61-.33,1.82C777.81,338.51,780.21,337.49,779,336.92Zm4.8,5.22c-1,.34-.44,1.93-2,1.25.21,1.36-1.31,3.07-.66,4.09C782,345.55,783.26,344.07,783.81,342.14Zm4.14-6.7c-2.18,0-2.18,3.3-3.49,3.3.77.11-.43.79-.21,1.59C786.86,340,786.1,336.47,788,335.44ZM785.66,326c2.73-2.84,5.24-5.79,7.75-8.86l2.84-.91c-1.2,1.25-2.4,2.5-2.19,4.2-.21,0-.32-.34-.43-.56a24.67,24.67,0,0,0-3.28,6.36Zm5.89,4.2c-.43-.57,0-1.25-.54-1.36-1.09,2.15-2.07,4.65-3.49,6,.43-.12.43.45.76.34-.22-1.14.22,0,.55,0-.11-1.93,1.74-2.39,2.29-4-1.09,0-.22,1.36-1.2,1.25-.33-1.82,1.74-1,.76-2.27.22-.11.33-.45.55-.45C791.34,330,791.34,330.33,791.55,330.22Zm-1.09-3.52a2.74,2.74,0,0,1,2.08-2.16c.11.57-.66,2.39-.22,1.93,0-.34.76-.45.87-.11-.11.11-.22.34-.44.57Zm.66-.91a.42.42,0,0,0,.11-.34c.32.11.11.23.11.34Zm1.63,10.45c-.43,0-.32-.57-.65-.68,0,.45-1.2,1.25-.22,1.59,0-.23,0-.57.22-.57C792.21,337,792.65,336.58,792.75,336.24Zm.22-9.09c.66-.9,1.2-1.59.77-1.59,0,.34-.33.46-.55.57.11-.68.44-1.36-.44-1.47h.77c.87-.35.65-1.25.22-1.93-.88.11-1.31.45-1.31,1.24-.88-.34.32-.79.11-1.47.43.91,1.63-.8,1.74-.23,1.31,0,0,.46-.11.91a4.38,4.38,0,0,1,1.64-.45c-.22-.46-.87-.57-.33-.8-.11-.79-.54.45-1.2,0,0-.45.66-1.36,0-.57-.43-1,1-.68,1.64-1.47-.22-.34-.77-.46-.55-1,.44-.22,1.2-.22,1.53-.79-.65-.11-.22-.46.55-.91l1.3-.11a2.46,2.46,0,0,0-.43,2,13.89,13.89,0,0,1,1.42-2.16l1.2-.22a1.76,1.76,0,0,1,.21.79c-1.52.91-1.63,1.93-2.94,1.93-.33,2.05-1.31,3.07-2.51,4.77,0-.23-.33-.45-.33-.68.44.23.77-.34.33-.57-.55.8-1.2,1.48-.33,1.48-.54.79-1.42,1.93-2,2.84ZM801.26,315a8.57,8.57,0,0,1-1.09.8c0,.22.11.45.11.57l-1.31.11a10.24,10.24,0,0,0,1-1.36,3.69,3.69,0,0,0-2,1.36l-1.31.11a9.05,9.05,0,0,0,1.86-1.36c.21-.8-1.31.57-.77-.68-.32.79-1.31,1.36-2.4,2h-2.83c1.85-1.13,3.81-2.5,5.78-3.86l.54.46c-.43.45-.87.79-.54.79s.43-.45.54-.68l.44.34c-.22.34-.76.57-.11.79a.83.83,0,0,1,.44-.68Zm2.4-1.59.77-.11a3,3,0,0,1-.55.68l-.76-.57h-.87c.1-.11.32-.11.43-.22l.44.22.43.34.11-.34.77-2.72a6,6,0,0,0,1.31-1.14l4.9,3.41,1.2-.11h.66a2.46,2.46,0,0,1-1,.79l3.6-7.61,7.2-15.21,6.32-1c.66.69,1.64,1.37,1.86,2.27,1,4.32-6,5.8-7.09,10-1.53-.12-2.08,1-2.4,2.61a8.72,8.72,0,0,0-3.49,2.72l-10.69-5.9a19.66,19.66,0,0,0,2.18-1.14c-.11-.34-.44-.34-.66-.45,1.75-2.5,4-5,6.11-7.72l7.86-1.36L815.12,306l2.4,1.36c-1.75,1.82-3.17,4-5,5.46h-.66l-.32.79-.88-.68-5.89.34a4.09,4.09,0,0,0,.44-1,8.2,8.2,0,0,1-.76,1l-.88.11-.43,1.48a38.34,38.34,0,0,1-4.47,5c-.66.34-2.84.68-2,1.93.22-.34.33-1.14,1-1,.11.35.44.46.44.91-1,1.14-2.51,3-3.49,2.16.22.23,0,.34-.11.57l-1.64-.57A.92.92,0,0,0,793,323c3.6-2.38,5.78-7.15,9.28-9.54h1.41l-.11.34.33.23a5.55,5.55,0,0,1-.76.91l.43-1.48h-.43l-.44-.22c.11-.12.22-.12.33-.23,0-.57-.55.11-.55-.46.22-.22,1.2.23,1.2-.34-1.2-.11.11-1,.44-.34.11-.56-.44-.56-.55-1,.22.23.55.12.88-.11Zm-5.23,5.34c-.44,1-1.53.8-2.29,1.93C797.34,320.79,799.08,319.89,798.43,318.75Zm4.25,6.47-3,3.18-1.86-.68c2-2.72,4.69-5.34,6.88-8.29Zm4.26-22.37-1.42,7.38c.22,0,.32.12.32.23l-.32-.23-.11.69a38.68,38.68,0,0,0-3.06,2.95l-1.85-1c.44-.57,1.31-1,.54-1.48-.21-.23-.87.45-1.3,1l-.66-.34c.44-.45,1-.91,1.42-1.36.44,0,.54.34.87.34-.54-.57.22-.57,0-1.48a5.33,5.33,0,0,0,1.42-.68l2.4,1.25c-.11.11-.11.11-.22.11h.55l1.42-7.38,8.4,3.52-2.51,7.16-1.2.11,1,.68a4.21,4.21,0,0,1-1.53.91,1.72,1.72,0,0,0,.44-1,26.49,26.49,0,0,0-2.95,3.18l-3.27-1.71c.22-.34.33-.68.54-1l5.79-1-5.24-2.84a12.3,12.3,0,0,0,1.2-2.38c-1.42,0-1.53,1.25-2.4,1.7l-2.4-1.25c.87-1.25,1.2-3.18,2.51-2.95a4.48,4.48,0,0,1,1.42-3.18l.11.11Zm-7.75,10c.11-.23.22-.23.44-.23s.11.23,0,.45Zm4.47,5.56L805,316l3.17,1.71a20.34,20.34,0,0,1-3.17,3.63c.11.23.11.23.22.23-.87.79-1.74,1.82-2.73,2.84Zm1.86,2.5a5.76,5.76,0,0,0-1,.79C804.75,321.36,804.86,320.57,805.52,320.91Zm-.33-10.34v.12c-.11.11-.33.23-.44.34l.11-.68h0Zm1.2-7.6h0Zm1,5.67c-.33.12-.22.34,0,.57C807.48,308.87,807.48,308.64,807.37,308.64Zm3.17,5.79,1,.57Zm2.83-20.89a71.64,71.64,0,0,0,2.84-6.59c1-.68,2.73-1.47,2.18-2.72.87.23,1.09-.46,1.74-.46.11,1,.66,1.59.88,2.73.43,0,.65-.23.76-.68.11,0,.11,0,.22.11l-.22.8c-.11.11-.22.22-.22.34h.11l-.87,3.63Zm7.31-3.86,1.2-3.52c1.64-.34,1.42-1,3.49-.91-.22,1.14.55,1.93,1.42,2.61Zm1.86-3.63c.32.22,0,.45-.33.79Z"/></svg>