<svg id="Layer_1" data-name="Layer 1" xmlns="http://www.w3.org/2000/svg" xmlns:xlink="http://www.w3.org/1999/xlink" viewBox="0 0 841.89 595.28"><defs><style>.cls-1{fill:#004884;}</style></defs><image width="512" height="512" transform="translate(63.43 161.94) scale(0.56 0.53)" xlink:href="../favicon.png"/><path class="cls-1" d="M370.85,209.31a5.28,5.28,0,0,1-.77.34c.55,2.72-3.16,2.27-2.61,4.77-.77-.12-2.51,2.27-2.62,4.54-2.4.46-1.75,4-2.29,5.34,0-.23-.22-.68-.33-.68-.44,1.93.11.45.55,1.93-1.09.45-2.4,3.18-1.31,4.54-1.53,1.93-1.09,6.93-.11,9l-.66.23c-.11-.23-.32-.34-.43-.46,0,.12.11.34.11.46l-.88.34c-.21-.46-.54-.91-.76-1.36.44-7.5,1.85-16.7,6.33-21.69-.11-.34-.22-.57-.55-.69,2.18-2.61,4.15-5.11,5.89-7.6Zm-3.6,40.54c-.11-.12-.22-.12-.44-.12s-.11.12-.11.12l-3.49.23.22-.12c-.11.12-.11.12-.22.12l3.49-.23c-.22.23.22.23.44.23.11.56-.22.56-.66.68.22.68.22,1.36,1,1.13-.11,1.14-1.42-.79-1.42.12-.87-.34.11-1.14.22-1.48-.11-.45-.77-.34-1.2-.34.54.57.54.23.32,1.25-1.2-.12-.87-1.71-2-1.48l-.22.12a2.76,2.76,0,0,0-2.29-2.62,1.11,1.11,0,0,0-.65-1.81c.76-1,.87.79,1.74-.12a2.78,2.78,0,0,1-.32-1c-1.2.57-1.53.23-1.86-1.13.66,0,.44.9,1.2.68-.65-1-1.2-2.16-1.85-3.18l.87-.34c.44,1.7,1.2,4,2.73,3.74-.88-1.13-1.42-2.72-2.4-3.74l.65-.23a1.75,1.75,0,0,0,.76.79c0-.22-.21-.56-.32-1h.43a1.07,1.07,0,0,0,.44.12v-.35l3.82-1.13a4,4,0,0,0,.65,2.38c.77-.11.11-1.36-.33-1.25a6.36,6.36,0,0,0,.77-1.47l1.2-.46c0,.69.76-.45,1.42-.11,1.2.68-1.75-.23-1.09,1-.66-.11-.66-.79-1-1.13a1,1,0,0,0-.11.57l-.43.11a7.32,7.32,0,0,0-.11-2.16c1.2-.34,1.2.68,1.31,1.7l-1.2.46.43-.11c.22,1.24,1.75,2.38,2.4,3.29-.54.68-1.3-1.25-2.18-1.36-1.31,2.38,1,3,3.93,4.31.22.11-.87.57-.87.45a.6.6,0,0,0,.76.35l-1.64,8.29.11-.91a2.3,2.3,0,0,1-.11.91l.77-3.75Zm-5.46-10.68c-.1-.45-.21-.9.22-1.13.66.23,0,.79.22,1.13Zm13.42-21.34a7.88,7.88,0,0,0-1,2.38c-3.38.91-5,3.75-5.13,8.06-1.52-.34-.54,1.93-1.2,2.5-.76-.57.44-1.59,0-2.84-1.74,2.16-2.18,6.93-.76,9.65.33,0,.22-.45.33-.68a2.58,2.58,0,0,1,.11.91l-3.93.91c0-1.82-.66-2-1.2-1.14.44-.9-1-1.59-.11-1.93.33,0,.44,1.82,1,.68-1-.11.33-1.7-.43-1.58,0,.34-.33.45-.55.68,1.2-2.62,0-7.61,1.74-9.66.88,2.16-1,5.23,0,7.5.11-2.73,1.21-6,.88-8.06a1.5,1.5,0,0,1-.55,1.25c-.54-1.14,0-1.48,0-2.84.88.34,1-1.48,1.75-.34-.22-1.71,1.63-3.07.87-4.32a8.41,8.41,0,0,1-1.74,3.41c1.52-4.77,4.69-8.75,6.87-12l.76,1.82a14.7,14.7,0,0,1-1.09,1.25c.22.11.55.11.55.34-.55.79-1.2-.46-1.42.68.22,0,.54,0,.54.23-.87.22-2.18,1.24-1.52,2.15-2.08.57-2.73,4.43-2.08,5.34,2.4-2,3.93-5.45,5.68-8.52l.43.91a3.68,3.68,0,0,0-.33,1,.46.46,0,0,0-.1.34c0-.11.1-.22.1-.34s.22-.34.55-.22l.22.56a11.17,11.17,0,0,0-2.07,2.84,14.84,14.84,0,0,1,2.29-2.38Zm-11.34,29.52c-.22-.91-1-1.14-1.42-1.7a1.73,1.73,0,0,1-.22,1c.22.34,1.2-.12,1.2.45C363.54,247.46,363.65,247.8,363.87,247.35Zm2-.91c-1.53,0-1-1.59-2.07-1.82-.11,1.48,1.09,1.93,1.63,3.07C365.39,247.12,365.83,247.12,365.83,246.44Zm0,1.93c-.76,0-1.09.46-1.09,1.25C365.61,249.73,366.05,249.28,365.83,248.37Zm1.2-16.12a8.74,8.74,0,0,1,1.2,2.72,14.59,14.59,0,0,0-1.75-1.93c.22-.23.44,0,.44.23C367.25,233.16,367,232.7,367,232.25Zm23.78,19.42.66-1.82,5.89.34a38.35,38.35,0,0,1-6.55,1.48l2.07-5.8c1.2-.22,2.18-.45,2.84.46.44-.23-.11-.46.11-1,.76.11,1.42.11,1.42-.57a1.37,1.37,0,0,1,.54,1,6.26,6.26,0,0,1,2.51-2.16c.66.68-.44,1.14-1.2,1.25.66.68,2.51-.45,1.75-1.59,2,.91,2.07-.11,3.27-1.13.87.22-.33.68,0,1.25.76-.35.87-1.59,2.07-1.37-.33.68,2,0,3.27-.34l-3.81,7c0-.11.11-.11.11-.22-.77,1-2.84,1-3.06,2.27h-.11c-.33-.91-.87-.23-1.42-.23h-.54c.22,1.14.87.57,1.74.57,0,.79-2.61,0-4.14.57,1.63-1.14-2.4-.8-1.75.79-.32-.11-.76-.57-.32-.57-.11-.79-.44.34-.88-.34a11.68,11.68,0,0,1,3.17-1.13l2.18.11h.54c-.21.11-.32.11-.54-.11v.11l-2.18-.11c2.07-.69,4.36-1.25,5-2.39.55-.23,1.2.57,1.75-.91-1.75-.22-3.49,2.39-4.47.8a5.65,5.65,0,0,1-3.38,2.27l-10-.68,1,2.5a19,19,0,0,0-5.89,1.81c-.76,0-.54-1.47-.22-1.81-.87.34-1,1.47-2.18,1.59.11-.69-4.69.34-4.25-1.71l-2.4-.11,2.51-3.07-2.51,3.07h-.66c-.54-.91-.11-1-.87-1.59-.76,0-.76.91-2.07.57.54-.91-.77-1.14.32-1.25-.76-.12-1.74-.57-2.29-.34-.43-.23-.21-.91-.43-1.25l3.6.34,4.91.45-2.51,3.07,2.51-3.07,11.45.8-.55-1.71a1.29,1.29,0,0,1,.66.12c-1-.46-.55-1.59.54-1.59-.1.79-.32,1.13.33,1.59-.22-1.71,2.18.22,1.75-1.59a4.11,4.11,0,0,0,2.83-.46Zm-20.94.9c-.55.91-1.31,0-2.51-.22.11-.34.43-.23.65-.34s.77-1.37.33-1.25c.11-.8,1,.79,1.74,1Zm-1.31-19.41a10.48,10.48,0,0,0,.65-2.5C369.65,229.86,369.65,233.27,368.56,233.16Zm2.29-24a18.72,18.72,0,0,0,2.94-3.63c-.11.46-.32.34-.11.91,3.06-2.27,3.71-1.14,4.48-5.11-.55-.11-1.64.68-1,.79.1-.34.65-.22.65.12-1.31,1.59-5.89,3.06-5,4.09-1.2.34-1.09,1.24-2.18,1.81l-.33-1a63,63,0,0,1,7.42-6.7,38.31,38.31,0,0,1,7.42-4.09,2.59,2.59,0,0,0,1.2-.68l2.18,1.25a31.59,31.59,0,0,1-3.16,2.61H385l-.11-.11,1.42-3.75-1.42,3.75-.87,2,.43-.79s.11.11.44,0c.55-.68,1.75-1.82,1.53-.68,1.42-1.71,2.62-1.25,2.72-2.61l.11.11,1.2.57c-2.29,1.36-4.36,2.38-6.43,3.4l.87-2a.11.11,0,0,0,.11.11c.11.12.11.34.22.57-1.09.68-.77-.79-1.53-.11.44,0,.44.34.76.68l-.43.79a2.8,2.8,0,0,0-.55.34c0-.68,1-.79-.11-1-1.2.91-1.85,2.27-3.6,2.39-.76,1.59.55,1.59-.54,2.15a1.49,1.49,0,0,0-.44-1.36c-2.4,2.16-5.34,5.34-7.42,7Zm1.74,32.6c-.65.68-2-.8-2.29-1.59C371.5,240.08,371.5,241.67,372.59,241.79Zm-1.74,7.6,1.85-4.2c.77.23,2,.12,1.86.46s-.66.11-.66.45c.44.68,1.75.57,2.18,1.36,1-.34-.21-1.25.44-1.47-.87.11-1-.12-1.64-.68.44-1.37,1.31,1.13,2.08.11-.22.57.87.57,1.31,1.36a8.07,8.07,0,0,1,1.31-.23l-3.93,3.87Zm1.85-7.72c.77.68,1.53,1.59,2.29,2.27-.32.68-1.09-.79-1.63-.91-.33.57.22.69.76.8-1,1-1.64-.8-1.64-1.82Zm1.42,11.58c-.22.57-1,.91-1.53,1.48C372.59,253.82,373.14,253.37,374.12,253.25Zm-.76-11v-.34h.11Zm.54-28.16c1.31-3.18,2.62-6.13,5.24-7.61-1.09,3.18-4,5.68-4.69,8.4Zm.88,2.72c.76-1.25,1.63-2.38,1.63-3.29a19,19,0,0,1-2,2.84l-.33-.57h.22c.65-3.75,3.82-5.68,6.33-7.95-.66,1.48-2.95,3.41-3.17,4.32a29.9,29.9,0,0,0,3.49-3.41l-.11,1.82c-2,2.38-4.14,4.65-5.34,7.61Zm.1,32.37,3.5-4.32c1-.11,1.41.57,2.61,0,.44.11,0,.91.44.91-1.64,0-3.38.91-5.78-.23-.33,1,1.09.34,1.53.8Zm15.39,4.54a21.68,21.68,0,0,0-2.62.11l-.66-2.61-11.45-1.82,2.51-2.72a.46.46,0,0,1,.11.57c2.18.11,6.22-.57,6.87.56a1.38,1.38,0,0,1,1-.45l.22.91a3.31,3.31,0,0,0,.11.91c-.55.11-.87-.23-.87-.8-.11.8-1,.57-1.86,1.14.87.45,2-.23,2.95-.12l.43,1.82,4.15.68Zm-12.33-1.25c-.22,0-.33-.23-.55-.23,0,.46-.21.68-.65.91,0-.45,0-.79-.55-.68.22,1.25.88.68,1.75.68Zm0-51.33c1.09-.11-.44,1.14.44.91.76-.57,1.41-1,1.52-2C379.36,200.45,378.48,200.68,377.94,201.13Zm3.16,3.3c.55-.57.88-1.48,1.75-1.82C382.41,203.4,382,204.2,381.1,204.43Zm1.31,6.7a25.46,25.46,0,0,0,2.95-3.64c.11,0,.21-.23.21-.34l-.21.34c-.11.11-.33,0-.44-.23,2.73-2.72,5.67-6.35,8.73-7.94-.22-.12,0-.57.22-.8l7.19,1.59c-7.74,1.93-11.56,6.93-17.12,10.45a20.29,20.29,0,0,1-1.75,2.5Zm2.18,44.17a1.91,1.91,0,0,0-1-.34c.11-.8,1.09-.46.87-1.71l1.2.12c-.11.34-.11.57.11.68-.43.23-.65.79-.87,1.13Zm29.46-68.93a1.29,1.29,0,0,0,.54.57c-.11-.12,1.09-1.82,1.31-.23.87-1.36,3.05.34,4.69-.45,0,1,1.53,1.47,1.53.56a2.57,2.57,0,0,0,.76.46L421,189.55a19.89,19.89,0,0,0-5.68-1c.66,0,.66.22.33.68,1.75-.11,3.93-.11,4.58,1l-.43.57c-1.2-.46-2-1.14-3.38-1.14-.66,1-2,.68-3.39.23v-1.25l-.54,1c-1.42-.45-2.73-.79-2.95.57a16.18,16.18,0,0,0,2.51.34l-.76,1.82c-1.75-.46-3.49-.57-4.8-1.25,1.09-.91,2.18.34,2.84-1.25-2.84-.11-8.4-.23-10.48.8a2.44,2.44,0,0,0,2.95-.35c-.33,1,1.09.57,1.09,1.37-2.07-.12-4.91,0-6,0-.65.45-5,2.27-5.78,1.25.54.11,1.09,0,1.2-.46-1,.12-2.18-.23-3.06,1,1.75-.45,0,.12.55.57.22-.34,1.09-1.25,1.31-.45-.77.57-1.42.91-2.07,1.36l-1.2-.57c.1-.11.1-.11.1-.22-.32,0-.21-.35-.76-.35l-.11.12-2.29-1.14a6,6,0,0,0,2.29-2c1,.23.33.79.22,1.59.44-.34.76-1,1.64-.8a7.19,7.19,0,0,1,1-1.81c1.2.11,0,.45-.11.91,2.07-.35,3.93-.8,4.47-2.84.44,0,.11.68.22,1.13.87-.11.33-.45.33-1.13.65-.34,1.31.34,1.63-.91,1.31,1.36,2.73-1,5,.34-1-2.16,2,1,4.8.11-.33-.91-1.2.23-2.07-.22-.44-1.37,5.45-2,5.67-.69.87-1,2.51.12,3.06-.22v.91c-.88-.35-2.62-.12-2,.34.87-.69,1.09.34,1.75.56a2.9,2.9,0,0,0,.22-.79l.1,1.36ZM385,206c.87-.35,1.2-1.48,2.62-1.37C386.88,205.22,386.45,206.24,385,206Zm0,40.19a1.27,1.27,0,0,1,1.64-.22c-.55.56-1.2.45-1.2,1Zm.44,10.34c-.11.11-.11.11-.11.22a.38.38,0,0,0-.22-.11Zm7-53.49c-1.75,1.25-5.57,1.59-5.57,3.64C389.07,205.9,391.25,204.88,392.45,203.06Zm-2,42.81c-.21.23-.32.8.11.8-.54.23-1.31.91-2,.68A1.93,1.93,0,0,1,390.48,245.87Zm-1.74-50.3v0Zm20.51,3.63a13.47,13.47,0,0,0-5.13,2.05,11.33,11.33,0,0,0-2,.45l-7.2-1.48a14,14,0,0,1,7.09-2.95c.21-.57,1-2.27,1.41-1.7-.32.23-.43.79-.21,1.47a17.67,17.67,0,0,0,7-4Zm-11.79,53.15c.22.11.55.22.55.56-1.31-.22-1.42,1.37-2.18.8,0-.34.33-.68.76-1Zm1.75-24.19a.11.11,0,0,1-.11-.12c-1.42-1.47-1.09-2.83-2.07-5.45,1.09.91.76-.11,2.4-.11,0-1.48.43-2-.22-3.75a12.26,12.26,0,0,0,2.84.23Zm-1.75,24.75a1.15,1.15,0,0,1,1-.22Zm4.91-34.06a4.53,4.53,0,0,0,2.84-1.37c.22.12,1.2,1,1-.22.55,1,1,.11,1.31-.57.44.11.11.23.11.68,3.38,0,6-1.25,8.51-2.27l2.07,7c-6.22,3.41-14.18,9.2-17.78,6.13Zm-.32,32.59v.11a.11.11,0,0,0-.11-.11Zm14.5-2.16a2.31,2.31,0,0,0-.32-.79c1.42-1,.76-2.39,1.2-4.09-.11-.46-.55-.12-.44.22-.33-.68.76-1.81.44-3.18-3.93,1.94-3.93,5.23-8.51,6.48.44.45,1.09.57-.11.68a1.15,1.15,0,0,0,.44.57c-.88,0-2.29,1.47-2.29.91l2.72-7.61c.33-.12.55-.23.55-.34,2.94-1.93,6.32-4.09,8.83-5.91l2.73,10.22a11.47,11.47,0,0,0-.44,1.14Zm-5.89-54.73a19.79,19.79,0,0,1,2.62-.34l.77,4.08L412,201.36a15.16,15.16,0,0,0-3.16,0l1.64-6h.11Zm-.54-.69a.51.51,0,0,1-.22-.68.66.66,0,0,1,.44-.11Zm2.07-4.31a2.86,2.86,0,0,1,1,.23l.11,2c-.65-.23-1.31-.34-2-.57ZM424,186.37c2,1,5.46,1.36,7.2,3.07.77-.12.66-1,1.53-.8-.11.34-.66.23-.66.57.22.45.44-.11,1,0,.11-.68-.22-.91-.88-.91.55-.45.55-1.48,1.53-1.13-.76-1.71,2.07-1.94.55-2.39,1.52-.11,1.52-2.16,2-3.63h.33c.11.68-.55.68-.44,1.47.76,0,.44-1.25,1.64-.79-.11.57-.44.68-.44.34-1,.34,1.31.57.33,1.25.76.79,1.63.68,2.83.57L424.3,211.35l1.09.46c-.87,1.25-1.85,2.49-3.05,2.84l2-3.3L422,210.22c.44-2.16,1-4.32.22-6.25-1.09-.11-2.08-.23-2-1.36-1.85-.8-3.6-1.36-5.34-1.93l-.55-7.5c.44-.11,1-.22,1.2-.56a4.78,4.78,0,0,0-1.2-.46l-.21-2a19.13,19.13,0,0,1,5.56,1.25l-.66.68a7.13,7.13,0,0,1-2-.8c-1,0,.55,1.14-.33.91-.43,0-.87-.11-1,.23.76.23,1.64.57,2.29.79l-5.89,6.93,2.51-2.84.22,3.41a18.54,18.54,0,0,0-2.73-.57l5.89-6.93a21.53,21.53,0,0,0,6,1.71c-.54-2.27-2.18-.12-2.62-1.82,1.31-.45,3.82.91,5.68.11.32-1.25-1.86.46-1.75-1,.55.11.55-.34,1-.57.88.34,1.31,1,2.18,1.37a11.81,11.81,0,0,0-6.54-4.43ZM412.63,189l.11,1.25c-.22,0-.33-.11-.55-.11l.44-1.14-.22-1.36a.11.11,0,0,0,.11-.11h-.11l-.11-.91a1,1,0,0,0,.22-.68c.76.22.76.45.87.68Zm3.92,62.8c-.54,1.93-.76,4.77-1.41,6.7-.22.79-1.75,2.72-2,3.63-.76-3.06.77-5.34-.21-8.29a3.86,3.86,0,0,0,1.09-1.81Zm3.6-3.52v1.13c-1.3-.22-2,.8-2.4,2.5l-2.5.23a4.94,4.94,0,0,0,.1-2.16Zm-1-57.46A3,3,0,0,0,417,190c0-.68.66-.34.76-.79.22-.11.33.23.33.34a4,4,0,0,0,1.53.91ZM417,217.37a22.68,22.68,0,0,1,2.73-.68c.65-.23.54.45.76.45s.33-.56.44-.56a1.38,1.38,0,0,1,1,0L419,224.3c-.1,0-.1,0-.21.11Zm7,6.93a4.19,4.19,0,0,0,.44-1.25c-1.09.79-.44.11-2.4.34a28.52,28.52,0,0,0-4.36,1l3.81-7.38a7.71,7.71,0,0,0,2.62.45,13.31,13.31,0,0,1,5.89-.11c3.71-1.25,6.87.8,8.95,3.07Zm-5.12-33.16a4.06,4.06,0,0,1,2,1.59,14.34,14.34,0,0,0-2.62-1Zm21.59,30.21c.22.56.55.9.66,1.24-.87.57-.66,1.37-.22,2.16-5.24,6.25-10.25,12.95-16.8,17,0-1.25,1.31-1,1.2-2.62a23.5,23.5,0,0,1-5.67,6.36c-.87-.68.65-1,.54-1.7a6.5,6.5,0,0,1-1.52,1.48V234.75a3.12,3.12,0,0,1,1-.35c.11-.34-.44-.34-.55-.45a96.24,96.24,0,0,0,6.11-11Zm-21.05-31.23a3,3,0,0,0,1,.11c-.43.8-.87.57-1.31.46Zm1.75-.91a2.09,2.09,0,0,1,.32.68c-.21,0-.43-.11-.65-.11Zm2.61,43.38c-.32.79-2.07,1.7-1.63,2.61C422.66,234.52,424.63,233.84,423.75,232.59Zm1.75-21.69L424,214.3a3.74,3.74,0,0,1-1.09.35,16.39,16.39,0,0,1,.22-4.66l2.4.91,13.09-29.19a6.39,6.39,0,0,1,2.07-.11c-.11,1,.66,1.14.11,1.82.77.79,1.31.11,2.4.79a2.86,2.86,0,0,0,1.09,3,17.79,17.79,0,0,1-7.2,12.71,1.32,1.32,0,0,1,.33.91c-1.2.23.11-.45-.65-.79-.55,1.7-2.19,2.38-2.08,4.77-2.29.34-2.62,2.95-4.14,3.86-.11.11-.55-.57-.88-.57-1.3.11-2.07,1.7-3.05,3.07ZM429,231.11c1.2-.79,2.73-2.38,2.07-3.75-.76.68-.32,1-1.42.12-1.63,1.7-3.16,3.63-5.34,4.65.44,1,1-.56,1.2.23-.22.91-2,1.93-.76,2.61.21-1.13,1.09-.45,2.4-.11,1.31-.8,3.05-3,2.94-4.54C429.64,230.54,429.75,231.45,429,231.11Z"/><path class="cls-1" d="M437.17,284.25c-.22.12-.55.23-1.09.46.76-.57.33-1-.11-1.59-.87.45.55.8-.22,1.25-.54.11-.33-.91-.76-1.14a1.64,1.64,0,0,1-1.09.46c-.55.45.65,1.47-1,1.36.65-2,0-2.16-.88-4.2.66-.23.77-1.93.77-4.54,1.85-.34,1.2-3,1.85-5.11.66.34.33-.12,1.2-.23a5.51,5.51,0,0,1,.76-3.86Zm-.33-15.33c1.64-2.49,4.58-3.74,3.6-7.83.22-.68,1.2-.57,1.75-.8-1.75.35-.44-2.15.76-1.36-.43-.91-.43-1.47.44-1-.22-.45.11-1.7-.55-1.48a18.65,18.65,0,0,0,1.2-1.7l9.06.34a8.69,8.69,0,0,0-.77,2.39c.77-.23,1-1.71.88-2.39h.54c0,1.48-1.2,3.41-1,4.09.65-1.14,1.75-3.18,1-4.09l1.31.11c.22,1.37-1,3.3-1.09,3.87a39,39,0,0,1-4,9.87c-1.52,2.73-1.31,5.68-3.27,7.84.11.45.44-.23.87-.11-.65,2-3.27,3.4-2.07,5.22-1.2-.91-1.63.8-1.85,2.16-.44-.34-1.31-.11-1.31-1.14-1.09.23-1.2,1-1.31,1.93-.66-.68.22-2.49.22-3.63-1,1.48-.22,4.31-2.51,5-.77-.46-1-.46-1.2-.23ZM442,279.15c-.65,1,.22-2.28-.44-.91,0,.34-.43.45-.43,1,1-.11.32,2.27.65,1.36C442.08,280.51,442.41,278.8,442,279.15Zm21.27-58c-1.31,2.61-2.4,5.34-4.25,7.61.33.56.87.68.76,1.7-1.31.11-2.07.34-1.63,1.82-.55.56-.66-.12-1.31-.23,1.09,1.82-1.75.45-.66,2.27a8.27,8.27,0,0,1-3,1.93c-.66-.57.11-.68-.22-1.59-1.42-.23-1.09,1.14-2.18,1.14,0-.68-.11-1.48-.77-1.48-.32.8-1.2,1.25-1.52,2-.88-.34-2.73-.79-2.08-1.93.44,0,0,.23,0,.57,1.09-1.7-1-2.84.44-5.68a3.42,3.42,0,0,1-1.64-2c.55-.57.55.23,1.2.23s-.43-.8.44-1.25c-.55-1.82-.33-4.32,0-7l1.42.11c-.66,2-1.53,3.64-.44,4.66-.33.34-1.09,2.27-.43,1.59a6.67,6.67,0,0,1,1.52-2.61c-.54-.12-.76.56-.87.11.44-1.14-.33-3.29,1.09-3.52l.11-.11c.22,1.47-1.42,2.49,0,3.17a6.27,6.27,0,0,0,.11-3.17l.65.22a10.37,10.37,0,0,1,.33,2.39,19,19,0,0,0,.11-2.5l7,.91v1.25a12.05,12.05,0,0,0,1.2-1.14Zm-16.91-2.5a8.32,8.32,0,0,1,.44-1.14c.33.8.76.46,1.2-.11l.87.11c-.32.57-.76,1.25-1.09,1.71Zm.88,9.65c.21-.91.87-2.5-.55-2.72.76,1.59-.22,1.93,0,2.72C446.66,227.93,447,228.16,447.21,228.27Zm.11-14.08c.21-1.13.87-1.7.32-2.84.77-.57.55,1.36.88.34C449,211,448.19,214.08,447.32,214.19Zm.21-4c.33-.46-.11-.8-.11-.91C447.21,206,448.84,209.42,447.53,210.22ZM457.24,256l-.54-.11a.39.39,0,0,0-.11-.23c.11.11,0,.11,0,.23l-9.17-.34a10.72,10.72,0,0,0,2.08-5c1.31-1.7,2.4-3.18,2.07-5.45,1.75-2.39,2.29-4.88,3.38-8.18.55-.22.55.23,1,.23.77-.11-.87-.68.55-.68.22-1-1.09-.23-.77-1.14a3.38,3.38,0,0,0,1.42-.45,5.39,5.39,0,0,1,2.4-5.57,1.57,1.57,0,0,1-.32-1.25,2,2,0,0,0,1.09-1.36c.76.46.87.68,1.31-.45,0-.68-.66.57-1.42.11.87-1.93,1.42-.79,2.4-2-.11-.34-.88-1.25-.88-.57-1-.68.55-1.14.88-1.93h.22a.42.42,0,0,0-.11.34.43.43,0,0,1,.11-.23l2.4.12c-.55.68-.77,1.36-.22,1.7a4,4,0,0,1,.65-1.59h.44a2.56,2.56,0,0,0-.22,1.48,5.64,5.64,0,0,1,.76-1.37l1.75.12a2.62,2.62,0,0,0-.66,2.61c-.32.11-.43.45-1.09.34.77,1.93-1.41,3.75-.65,6,1.31-1.48,1.42-4,3.16-5a18.71,18.71,0,0,1,1-3.86l2.08.34c-1.64,3-3.06,6.25-4.69,8.63,2.29-1.13,3.71-6.36,5.45-7.95.22,1.93-1.31,4.66-3.16,5.91-.44,3.63-2.84,7.27-4.15,9.76,0,.12-.43-.45-.65-.34-.11,2.73-2.07,4.55-2.29,5.91-.44,1.59-1.42,1.13-2,1.81-.11.12.22,1.14.11,1.25-1,2-2.72,4.32-3.71,7.27.11.57.77-.68.77.8.22,0,.11-.34.11-.69a1.47,1.47,0,0,1,.43.91Zm-7.74-31.23-.11-1.25c-1.09.23-.66,1-1.64.57,0,.8.55,1.14,1.31,1.14C448.84,224.64,449.17,224.41,449.5,224.75Zm1.52,4.77c-.54-.11-.65-.79-1-1.25-1.52.46-1.42,2.39-2.18,3.41C448.62,231.68,450.7,230.66,451,229.52Zm-2.4-28.84a11.15,11.15,0,0,1,.88-3.07c-.11-.45-.88,0-1-.57,0-.11.1-.22.21-.45l12,5.68a28,28,0,0,1-.32,5.22c-.66,2.95-1.75,5.45-2.19,7.5l-3.49.79c0-.45-.11-.91-.54-.79.11.22,0,.56-.22,1l-2.84.68c.33-3.52.77-7,.88-9.31-1.09,1.59-.77,3.63-1.2,5.33-.77,0-.55.57-1.2,0a8.8,8.8,0,0,1-.11,4.43l-.88.12.33-.68c-.33-.34-.76-.34-.65-.91.32.34.43.11.87,0-.22-4.2.55-6.59.65-11l-.87.12c1.75-.46,1.42-3,1.53-5-.11.11-.11.23-.22.34Zm11.46-4.88,1.74.68c-.11.79-.32,1.36-.43,2a21.31,21.31,0,0,0-.22,2.84l-7.2-2.73-4.91,2.16,1.53-.68c-.33,1.36-.11,3.29-1.31,4.54.22.57.76.57.76,1.37-.65-.46-.32-.46-1.2-.12.33-.79.11-3.06.22-5.11l4.91-2.16,6.11-2.83-10.69-3.87a6.24,6.24,0,0,0-.77-3.4l1-.12-.22-.22,13.42,3.29c-.11,1-.44,2.16-.66,3.41Zm-11.46,23.39h0ZM450,266c-.22.68-1.52,1.82-.65,2.5C449.5,267.68,450.7,266.43,450,266Zm-.65-49.62a1.88,1.88,0,0,1,.54-1.14,2.77,2.77,0,0,0-.32,1.14Zm.22,3a5.51,5.51,0,0,1,.21-2.27h.33a9.94,9.94,0,0,0,.11,2.5Zm14-22.48c-.22.57-.44,1-.65,1.47l-1.64-.9L454.84,199l-4.69-2.83c.66-.8,2-2.62.11-3,.33-1,.66-.11,1.2.12v-1.71l9.82,5.8Zm-13.31,18.51a6.79,6.79,0,0,0,.66-2.39C451.35,213.17,451.24,215.78,450.26,215.33Zm2.07,11.13.11-.91c-.32,0-.43-.23-.65-.46-.11.57-1.64,1.25-.77,1.82C451,225.89,451.9,225.89,452.33,226.46Zm-1.41-39.07c-.44-.79.43-2,0-3.52,1.74-.91,5.12-1.59,7-1-.33,1.14,1.52.91.76,1.7,0,.8.55-.34,1.09.12,1.53,1.81,4.15,2.72,4.15,5.45a6.62,6.62,0,0,1-.77,3.86Zm.21,31.68a22.41,22.41,0,0,0,.11-2.72l2.84-.8a20.36,20.36,0,0,0-.76,2.5c1.2-.68.32,1.25,1.3.68-.1-.68.22-2.38.22-3.52l3.38-1a4.49,4.49,0,0,0,.44,3.18,6.67,6.67,0,0,0-.44,2.5ZM453,233.5c-.87.22-1.86,2.61-.33,1.81C451.79,235.09,454.19,234.06,453,233.5Zm4.8,5.22c-1,.34-.44,1.93-2,1.25.22,1.36-1.3,3.06-.65,4.09C455.93,242.13,457.24,240.65,457.79,238.72Zm4.14-6.7c-2.18,0-2.18,3.29-3.49,3.29.77.12-.43.8-.22,1.59C460.84,236.56,460.08,233,461.93,232Zm-2.29-9.43c2.73-2.83,5.24-5.79,7.75-8.85l2.83-.91c-1.2,1.25-2.4,2.5-2.18,4.2-.22,0-.33-.34-.43-.57a25,25,0,0,0-3.28,6.36Zm5.89,4.21c-.43-.57,0-1.25-.54-1.37-1.09,2.16-2.07,4.66-3.49,6,.43-.11.43.46.76.34-.22-1.13.22,0,.55,0-.11-1.93,1.74-2.38,2.29-4-1.09,0-.22,1.36-1.2,1.25-.33-1.82,1.74-1,.76-2.27.22-.12.33-.46.55-.46C465.31,226.57,465.31,226.91,465.53,226.8Zm-1.09-3.52a2.75,2.75,0,0,1,2.07-2.16c.11.57-.65,2.38-.21,1.93,0-.34.76-.46.87-.11-.11.11-.22.34-.44.56Zm.66-.91a.43.43,0,0,0,.11-.34c.32.11.1.22.1.34Zm1.63,10.44c-.43,0-.32-.56-.65-.68,0,.46-1.2,1.25-.22,1.59,0-.22,0-.56.22-.56C466.19,233.61,466.62,233.16,466.73,232.81Zm.22-9.08c.66-.91,1.2-1.59.76-1.59,0,.34-.32.45-.54.57.11-.68.44-1.36-.44-1.48h.77c.87-.34.65-1.25.21-1.93-.87.12-1.3.46-1.3,1.25-.88-.34.32-.79.1-1.48.44.91,1.64-.79,1.75-.22,1.31,0,0,.45-.11.91a4.6,4.6,0,0,1,1.64-.46c-.22-.45-.87-.57-.33-.79-.11-.8-.54.45-1.2,0,0-.46.66-1.37,0-.57-.44-1,1-.68,1.64-1.48-.22-.34-.77-.45-.55-1,.44-.23,1.2-.23,1.53-.79-.66-.12-.22-.46.54-.91l1.31-.12a2.48,2.48,0,0,0-.43,2,14.09,14.09,0,0,1,1.41-2.16l1.2-.23a1.71,1.71,0,0,1,.22.8c-1.52.91-1.63,1.93-2.94,1.93-.33,2-1.31,3.06-2.51,4.77,0-.23-.33-.46-.33-.68.44.22.76-.34.33-.57-.55.79-1.2,1.47-.33,1.47-.54.8-1.42,1.94-2,2.84Zm8.29-12.15a8.31,8.31,0,0,1-1.09.79,4.83,4.83,0,0,0,.11.57l-1.31.12a9.7,9.7,0,0,0,1-1.37,3.68,3.68,0,0,0-2,1.37l-1.31.11a9.34,9.34,0,0,0,1.85-1.36c.22-.8-1.3.56-.76-.68-.33.79-1.31,1.36-2.4,2h-2.84c1.86-1.14,3.82-2.5,5.79-3.86l.54.45c-.43.46-.87.8-.54.8s.43-.46.54-.68l.44.34c-.22.34-.77.56-.11.79a.82.82,0,0,1,.44-.68Zm2.4-1.59.77-.11a3.22,3.22,0,0,1-.55.68l-.76-.57h-.88c.11-.11.33-.11.44-.23l.44.23.43.34.11-.34.77-2.73a5.71,5.71,0,0,0,1.3-1.13l4.91,3.41,1.2-.12h.66a2.48,2.48,0,0,1-1,.8l3.6-7.61,7.19-15.22,6.33-1c.66.68,1.64,1.36,1.86,2.27,1,4.32-6,5.79-7.09,10-1.53-.11-2.08,1-2.4,2.62A8.64,8.64,0,0,0,491.5,204l-10.7-5.9a19.69,19.69,0,0,0,2.19-1.14c-.11-.34-.44-.34-.66-.45,1.75-2.5,4-5,6.11-7.73l7.85-1.36-7.19,15.22,2.4,1.36c-1.75,1.82-3.17,4-5,5.45h-.66l-.32.8-.88-.68-5.89.34a4.15,4.15,0,0,0,.44-1,9.52,9.52,0,0,1-.76,1l-.88.11-.43,1.48a38.26,38.26,0,0,1-4.48,5c-.65.34-2.83.68-2,1.93.22-.34.33-1.13,1-1,.11.34.44.46.44.91-1,1.14-2.51,2.95-3.49,2.16.22.22,0,.34-.11.56l-1.64-.56a.92.92,0,0,0,.11-.91c3.6-2.39,5.78-7.16,9.27-9.54h1.42l-.11.34.33.23a6.11,6.11,0,0,1-.76.91l.43-1.48h-.43l-.44-.23c.11-.11.22-.11.33-.22,0-.57-.55.11-.55-.46.22-.23,1.2.23,1.2-.34-1.2-.11.11-1,.44-.34.11-.57-.44-.57-.55-1,.22.22.55.11.88-.12Zm-5.23,5.34c-.44,1-1.53.79-2.3,1.93C471.31,217.37,473.06,216.46,472.41,215.33Zm4.25,6.47L473.61,225l-1.86-.68c2-2.73,4.69-5.34,6.87-8.29Zm4.25-22.37-1.41,7.38c.21,0,.32.11.32.23l-.32-.23-.11.68a38.75,38.75,0,0,0-3.06,2.95l-1.85-1c.43-.57,1.31-1,.54-1.47-.22-.23-.87.45-1.31,1l-.65-.34c.44-.46,1-.91,1.42-1.37.43,0,.54.34.87.34-.55-.56.22-.56,0-1.47a5.66,5.66,0,0,0,1.42-.68l2.4,1.25c-.11.11-.11.11-.22.11h.55l1.41-7.38,8.4,3.52-2.51,7.15-1.2.12,1,.68a4.44,4.44,0,0,1-1.53.91,1.72,1.72,0,0,0,.44-1,26.44,26.44,0,0,0-2.95,3.18l-3.27-1.7c.22-.34.32-.68.54-1l5.78-1-5.23-2.84a13,13,0,0,0,1.2-2.39c-1.42,0-1.53,1.25-2.4,1.71l-2.4-1.25c.87-1.25,1.2-3.18,2.51-2.95a4.46,4.46,0,0,1,1.42-3.18l.1.11Zm-7.74,10c.11-.23.22-.23.44-.23s.1.23,0,.46Zm4.47,5.57L479,212.6l3.16,1.7a19.65,19.65,0,0,1-3.16,3.64c.11.23.11.23.22.23-.87.79-1.75,1.81-2.73,2.83Zm1.86,2.49a6.32,6.32,0,0,0-1,.8C478.73,217.94,478.84,217.14,479.5,217.48Zm-.33-10.33v.11c-.11.12-.33.23-.44.34l.11-.68h0Zm1.2-7.61h0Zm1,5.68c-.33.11-.22.34,0,.57C481.46,205.45,481.46,205.22,481.35,205.22Zm3.16,5.79,1,.57Zm2.84-20.89c1-2.05,2-4.2,2.84-6.59,1-.68,2.72-1.47,2.18-2.72.87.22,1.09-.46,1.74-.46.11,1,.66,1.59.88,2.73.43,0,.65-.23.76-.68.11,0,.11,0,.22.11l-.22.79c-.11.12-.22.23-.22.34h.11l-.87,3.64Zm7.31-3.86,1.2-3.52c1.64-.34,1.42-1,3.49-.91-.22,1.13.54,1.93,1.42,2.61Zm1.85-3.64c.33.23,0,.46-.32.8Z"/><path class="cls-1" d="M497.82,243.6c-2,5.23-5.34,9-9.93,10.34-1.09-.23-.1-2.39-1.63-2.27,0-.35.54-.23.87-.35a.78.78,0,0,0-.87-.56c-.33-.8,1-1.59-.33-1.59,1.42-1.59,2.73-3.18,4-4.89Zm8.4-15.44a8.27,8.27,0,0,1-.33,1.36c-3.05,2-3.81,6.47-4.91,10.45-1,.11-.76,1.36-1.74,1.59a28.89,28.89,0,0,1-.87,3.18l-7.75,1.13a182.87,182.87,0,0,0,10.8-19.19l.66.23c0,.23-.11.34-.11.68.32,0,.43-.23.54-.45ZM501,226.91c.11-.11.11-.23.22-.34.55.11.55.34.44.57Zm7.31-3.18c-.54,1-.54,2.38-2.07,2.27a3.26,3.26,0,0,1,0,1.48l-3.6-1.71a5.66,5.66,0,0,0,.44-.68c0-.34-.55-.34-.77-.45,1.09-.8,2.08-1.93,3.49-2.39-.11-.68-.54-1.13-.21-2.15.87-.23.21,1,.65,1.36a8.13,8.13,0,0,1,.55-1.82Zm-2.18-3.41c.44-1.36,1.2-2.84,2.4-2.72l1.86,3.52a3,3,0,0,0-.77,2.16,1.32,1.32,0,0,0-1.42.9Zm14.95,29a5.85,5.85,0,0,0-1.42,4.43c-2.95-.34-6.44.11-8.18-.11.11-.8-1.42-1.14-2.51-1.59,0-1.25-.22-2.28-1.2-2.39,1-.45,1-1.7,1.09-2.84.65-.11.76.68.87,1.36,0-2-.33-3.74-.22-5.33l6.33-1.48v.11Zm-1.53-43.72c-2.18,3.18-3.82,7-5.78,10.68-1.09-1.48-.66,1.7-1.53,1.93-.11,1.7,1,0,1,1.25-.76.11-1,.68-1.53.11a3.53,3.53,0,0,1-1.2,2.27l-2-3.41a.78.78,0,0,1,.44.12c0-.91-1.09-.57-.77-1.71.55-.45,1.2-1,1.86-.22,1.09-2.28,3.71-4.09,2.51-7.61,1-.23,1.09-1.25.22-1.59,0-.68,1.63-.46,1.52.22a10.14,10.14,0,0,1,1.42-3.52Zm-2,36.68,11.89-2.39a11,11,0,0,0-2.29,3.75c-.11.91.43.8.43,1.48-1.53.68.66,4.65-1.64,4.77a5.5,5.5,0,0,0,.44-1.82l1,.91c-.21-.8.77-1.48.66-2.39,1.31.12.54,2.84-.33,3-.11-.23-.22-.34-.33-.57l-1-.91a2.54,2.54,0,0,1,.11-1.25c-.76.46-1,1-.55-.34-.32.11-.43.23-.54.23l-6.76-10.22c.11-.57.11-1.25-.33-1.25a.69.69,0,0,1,0,.79l-2.84-4.31v-.23l2.84.8c-.11.22-.11.56-.22.79l.87-.11c0-.23-.1-.46,0-.57l2.95.68c-.33.68-1.2,1.82-.11,2.05a6.19,6.19,0,0,0,.44-1.93l1.09.22c0,.12.11.23.22.34v-.22l.87.22c-.22.8-.55,1.48-1,1.59.43.68.76-.45,1.2.46a16.26,16.26,0,0,0,1.09-1.71l5.89,1.48c0,.57.11,1.14-.11,1.36a18,18,0,0,1-2.07,2.95l-11.89,2.39-2.08-3.41a4.7,4.7,0,0,0,.11-1.81c-1.85,1.7-.43-2.62-.33-3.75.33.11.22.57.22.91a9.41,9.41,0,0,0,0-2.5l2.84,4.31c-.11.23-.33.34-.11.8.55-.46.66,1.48.87.45-.21-.11-.32-.45-.43-.79l3.27,5-10.69,2.05a7.43,7.43,0,0,1,1.53-3.64c-1.64,0,1-3.06-.11-4.08a1.47,1.47,0,0,1,.43-1l.77,1.47c-.11.11-.11.23-.22.34.54-.23,1.42,1.59.87,2.39a.77.77,0,0,1,.66.34,1.47,1.47,0,0,1,.32-.46l2.08,3.41-6.33,1.25,6.33-1.14Zm-4.8-7.38c.43-.46,1.2-.68,1.31-1.59-.11-.46-.33.23-.88,0,.11-.46.55-.68,1.2-.57.44,1.48-.32,2.5-1,3.63Zm2.72-3.64a4,4,0,0,1-1.52.46,1.37,1.37,0,0,1,.32-.91Zm-1.41-.79c.21-.34.54-.34.87-.11,0-.57-.87-.34-.66-1.14.11-.11.22-.11.44-.23l.33.8a1.2,1.2,0,0,0,.43.91c0,.11-.11.11-.32.22Zm.43-.23a1.45,1.45,0,0,0,.33-.45c.33.11.11.34,0,.34a2.3,2.3,0,0,0,.11.91Zm2.84-.57c-.55-.45.11-2.15-.33-1.36-.22.68-.76,1.14-.76,2.27C517.24,230.77,516.37,229.41,517.35,229.63ZM535,210.56c-2,2.5-1.42,6.7-4,8.74.66.46.11.34.22,1.14-1.53-1.14.33,1.59-.54,1.7.43.8.76-.68,1.2.11,0,.57-.55.91-.33,1.59-.44-.22-.77-.79-1.31-.68-.76,1-.76,2.61-1.53,3.64.11.45.44.22.33,0,1.09,1.47-.44.79-.87,1.7-.77,1.59-1,4.2-1.42,6l-.87-.12c-.11-.79,1.09-1.7.1-2.38,0,.68-.76,1.82-.43,2.27l-1.09-.11a.24.24,0,0,0-.22-.23.11.11,0,0,1-.11.11l-2.94-.45c0-.8,1-.57.21-1.7,0,1-.32.56-.87.22a4.87,4.87,0,0,0-.11,1.37l-2.83-.46c.1-.57.1-1,.21-1.36-.32,0-1.52.23-.76-1.14.33.23.44.57.76.8a4.64,4.64,0,0,0,.44-2.61l-.65.11c0,1.25,0,1.25-.88,1.48-.32-.91,1.53-3.64.22-4.77,1.31.79.22-2.27.76-3.3.55.34.66,1.48.88.23.65-.11-.22,1.14.65,1.48,1.09-.57.11-1.59.55-2.05-.22-.34-.66-.45-1.31-.34.87-1.13-.77-.68-.55-2.15a3.9,3.9,0,0,1,.66.79c1-1.82.54-1.59.54-3.86.33.34.88.11,1,.57.77-.23.33-1.25.66-1.82-.33-.57-1.09,1.25-1.75.34a3.79,3.79,0,0,0,.77-2.84c-.22,0-.33.23-.55.23,0,.57.11,2.16-.65,2.16.22-.69-.66-4.09,1.09-5a8.08,8.08,0,0,1-.33-3.18Zm-13.31-4.32a10.82,10.82,0,0,0,.44-2.72,15.55,15.55,0,0,0-1.75,2l-3.71-1.82a2.44,2.44,0,0,1,1.64-.9,12.18,12.18,0,0,1,2.73-4.66c1,.45-.33.79-.22,1.25,1.53-1.14,1.31-4.09,3.49-4.54l12.54,16.8a2.43,2.43,0,0,0-.11,1.25c-.1.12-.21.23-.32.23Zm-4.58,18.28c0-.11,0-.11-.11-.22Zm.44,17.61,4.36-.46,3.05,5.57c-.11.11-.11.45-.11.68l.11.11c.11.46.33.91-.11,1a4.5,4.5,0,0,0-3,1.59Zm.43-17.38c.22.57-.22,2.05.44,2.16.33-1.14-.22-1.48.44-2.16Zm5.57.68c-.44.23.1-2.15-.77-.91.22,0,.33,0,.33.23-.33,0-.33-.23-.66-.11,0,.23,0,.57-.21.57-.22.9.54.79.32,1.59-1.2,0-.32,2.27-2,2.27.44.79-.76,1.7.11,2.15.22-.9,1.31-.56,1.53-.45-.66.11-1.31,1.48-.22,1.59,1.42-3,1.42-4.77.54-6.81C523,225.43,523.35,226,523.57,225.43Zm-.44-4.08c0,.45-1.09,1.59-.22,2.15C522.91,222.94,523.89,221.8,523.13,221.35Zm1.09,31.79c-1.2.11-.44-1.93-.22-2.16C524.76,251.55,523.46,251.89,524.22,253.14Zm16.58-52.8a33.17,33.17,0,0,1-2.18,7.49c-.44,1-1.42,1.82-1.75,2.73l-12.54-16.7h.11c0-1.59.43-1.93-.33-2.72a1.45,1.45,0,0,1,.33-.45l11.67-1-2.18-5c2.62.56,4.69,2.5,6.43,4.54l-4.25.45Zm-16.14,48.15s0,.11.1.11Zm17.56-50.88c-.11.23-.22.34-.22.46-.54,1.25-.87,2.49-1.31,3.74L536.44,191l-11.68.56c1.42-2.27,3.5-2.61,4.48-5.56a8.72,8.72,0,0,1,5.12-.11l2.08,5.11,4.25-.34.22.22a5.91,5.91,0,0,0,1,1.25Zm-15.49,38.61a15.36,15.36,0,0,0,2.51-8.29c1.31-.11.54-2,1.85-2.16.55,2-1.09,2.16-.43,4.21,1.52-1.37,1.41-4.21,3.05-4.09a2.67,2.67,0,0,1-.44-1.25c1.42.11,1.09-1.36,2.29-1.48-.43-.45.11-.34-.1-1.13,1.74-.68,2.4-3.52,3.49-5,.43-.45.65-1,1.09-1.48l2.72,3c.11.22,0,.34-.32.34.11.45.32,0,.65,0l.22.11c.22,1.48-1.09,1.59-1.64,2.5,1.2,3.18-3.38,3.75-3.16,7-2,.11-1.42,4.88-3.38,5,.65,1.93-1.86,2.27-2.4,3.63a.69.69,0,0,0-.11.45Zm22.25,20c-3.82.22-6.54,1-6.87-3.18a2.67,2.67,0,0,1-3.05-.46c.21-.56,1-.34.54-1.25.33,0,.22.57.44.91.76-.45-.44-1-.11-1.81.54.34,1.63,1.36,1.31,2,3.38-2.38,2.29-7,3.27-11.13l2.51,1-.44-3.29-.43-2.84.21,1.36a7.21,7.21,0,0,0-.65-1c.11-.11.33-.23.44-.34l.43,2.84h.33a1.78,1.78,0,0,0,.33,1.48c1.41-.34,0-1.48,1.52-1.37a.41.41,0,0,1-.11-.34l.44-.11v.79c.44,0,.66-.34.76-.79l8.84-1.25L560,240.2c-.11,1.36-.76,3.18-1.31,2.72.22.68.33,1.25.65,2.39a4.68,4.68,0,0,0-.76.68l-9.6-3.07c.11-.34.11-.57-.11-.57a1.47,1.47,0,0,0-.32.46l-1.53-.46.11,1v.22l.33,1.93a.44.44,0,0,0,.1.34l.44,3.86h-.11c-.76.57-.76,1.82-1.74,1.94.54,1.47,2.18,2.15,2.5,3Zm-7.85-8.63c.54,0,.54-.8,1.42-.46-.77,1-.22,1.82-1.2,2.73-.11,1.13,1.09-.57.87.45,0,.57-.44.46-.87.46s-.33.56-.44.79C539.82,251,541.78,249.17,541.13,247.58Zm3.71-28.51c-.22,0-.66-.22-.66-.45-.32,0-.22.34-.32.57l-3-2.61c.22-.46.55-.8.76-1.25l2.29.56-.76-2.83c.55-.8,1.09-1.59,1.53-2.39l2.18,3.07a6.34,6.34,0,0,0-1.75,2.38l-3.49-.79c.55-.8,1-1.48,1.53-2.27l.76,2.83Zm-3.71-28.95a3.15,3.15,0,0,1,.76,2.38c.11.8.87.34.87,1s-1.09,1.48-1.41,2.16Zm2.51,28.95h.22v.23Zm.22-3.4,1.09.22a3.59,3.59,0,0,0,0,2.62c0,.34-.11.34-.33.34Zm3,27.25-2.4-1.48a9.5,9.5,0,0,1,1.2-1.93h.22c-.33.12-.44.23-.44.46a1.06,1.06,0,0,0,.76-.46H547l-.11,3.41,1.42.68a1.25,1.25,0,0,1-1.31.34c.11-.45.22-.91-.11-.91l-.11.91Zm-1.75-4.09a2.52,2.52,0,0,1,.33-.79.6.6,0,0,1-.11.79Zm1.31,8.07c-.11-.46.88-1.14,0-1.48-.65.45.44.68-.32.91-.88-.23.32-.68,0-1.25C544.84,244.85,545.27,247.24,546.47,246.9Zm14.62-23.06a8.2,8.2,0,0,1,1-3.52c-1.2,0-1.53.91-2.4,1.14a32.88,32.88,0,0,0,1.31-5c-1.2,1.37-2.18,4.66-2.4,6l-.22.23-.43-.12c-.44-.68-.44-2.15-.88-.79.33-1.36.44-5.34,1.75-7.5-.55-.68-.76,1.37-1.75,1a5.49,5.49,0,0,1,.88-1.82c-.88-.23-.66.68-1,.91-.55-.12-.55-.34-.22-.91-1.2,1.14-2.84,3.18-1.75,4.09-.87.34-1.42,1.7-1.74,3.18l-.44-.23a7.29,7.29,0,0,1,1.42-3c-.44-.8-.55-1.59-1.53-1.14.22-.45,1.09-.45,1.09-1.13.44-.12.33.45.33.91.65-.23.65-.91.54-1.71-1.41-.23-1,2.05-2,1,.44-1.36,2.29-1.47,2.07-3.52-.54.34-.32,1.37-1.31,1.37.33-1.14,1.75-1.37,1.86-3.52-.77-.23-.44.68-.77.9-.65-.22.33-2.72,1.1-1.81-.11-1-.77-1.37.11-1.82a2.23,2.23,0,0,1-1.21-1.59c1.21-.34,1.21-2,1.64-3.18-.33.23-.33,1-.65.46-1.2,3.86-6.11,8.51-7.75,12.37l-.32.34-1.86-3.29a29.66,29.66,0,0,0,3.93-6.47c1.63-.12,3.16-2.73,3.92-4.77,2-1.25,5.46-4.54,4.91-8.29,1,.57,1.64-1,1.42-2.5a5.15,5.15,0,0,0,3.06-2.84l9-1.36c.11.11.11.34.22.57a4.74,4.74,0,0,0,.76-.8l.44-.11c.11.34-.11,1,0,1.36,3.16-1.13,2.83,2.5,4.91,3.75-.55,1.25-.55,1.36.11,2.5-1.86,2.27-1.31,5.79-2.84,8.17a8.33,8.33,0,0,0-1,.46c-.88,2.15-.88,4.88-2.07,6.81l-3.82-22.26-5.78.91c.87-1.7,1.63-3.75,3.38-4.65.43.11.22.9.76.9.33,0,.11-.56.22-.9.22-.12.44,0,.65,0l.77,3.74,3.82,22.26c-.11.11-.11.23-.22.34-.33.46-1.64.34-2,1-.87,1.14-.43,3-1.09,4.09-.54-.11-1.52,1.59-.76,2.73-2,2.15-2.51,5.56-3.82,8.17Zm-14.07,12c.54-.23,1-.57,1.31-1.93.22.23.32.91.54.34.11,1-1.2,3-1.52,4.54h-1.1c.44-.45.55-1.25,1.1-1.25-.11,0-.22-.11-.33-.34Zm.76,18.4a1.29,1.29,0,0,1-.54-1.14.63.63,0,0,0,.43.11ZM565,226c-.22.11-.22.34-.33.34-2.94.8-3.49,5.23-5.35,7.61,1-.11,1.31-1.36,1.86-2.27.44,1-.55,3.18-1.2,3.63.11.91.44.34,1.2.46,0,.68-.66.68-.55,1.47-.32-.91-1-1.36-1.41-.22,0,.45.32-.12.87.11-.22.68-.87.57-1.42.79.55,0,.65.46.44,1l-1.31-.12.65,1.25a.39.39,0,0,1-.11.23.4.4,0,0,1,.33.11l.11.12a5.29,5.29,0,0,1-.11,1.25l-.87-3,1.31.12a3.82,3.82,0,0,1-.66,1.13l-.76-1.25h.11l-8.84-.56a8.21,8.21,0,0,0,.44-2.16,5.21,5.21,0,0,0-1.2,2h-.44c-.43-2.5,3.38-3.63,2.51-6.13,1.09.45,1.64-.91,2.51-1.93-.55-.11-.65-.46-.44-.91l1.75,3.18c-.22.34-.22.68-.44.91.44.11.55-.11.87,0l.33.34c-.54,1.82-1.74,2.38-2.4,3.86a6.67,6.67,0,0,0,2.51-3.41l.44.8a1,1,0,0,1,0,.57h.43l1.86,3.29-1.09-3.63h.11c.11-.46.22-.91-.22-.91,2.83-.91,2.51-5.68,4.36-7.84-.54.23-.76.68-1.2,1-.43-.56,1.09-1.36,1.09-2.49.44,0,.11.68.11,1.13a10.68,10.68,0,0,0,1-2Zm-17.24,28.28c.33.11.44-.57.66-.8a2.41,2.41,0,0,1-.55-.45v-1c.55,0,1.09-.69,1.75-.91-.88-.34-.77-1.48-1.86-1.71l.11-4c0,.34.11.45.11.91l1.53.22c.11-.56,1.2-1.36.43-1.93-.11.8-.32,1.37-1.09,1.48.33-1.25-.22-.11-.76-.45,0-.46,0-1.14-.33-.57v-1.93c.77-.23.77.45,1.42.45a3.43,3.43,0,0,1,.55-.79l9,4.43c-.76,1-.55,2.72-1.75,3.74-.21,1,1-.68.88.46,0,.45-.33.57-.33.91-.55-.57-.65-1.37-1.42-1.71-1,.34.66.8.22,1.59-1-.22-1.09.57-1.09,1.48-1.42-1.14-.33-1.82-.22-3.86a3.21,3.21,0,0,0-.76,2.5c-1.53,0-1.42-1.25-2-1.82-1,1.48-.76,2.84-2.18,3.52-.11.68.22,1,.77.91-.11.57-.77.45-.66,1.25a18.93,18.93,0,0,0-2.4-.34Zm1.2-35.21c.22-.11.33-.22.55-.34.11.46-.22.57-.33.8Zm1.86,2.28a4.2,4.2,0,0,0-1.2,1.81c-.22-1-.22-2.61.54-3.4l.11.45v.11h.11Zm.43,6.69a6.22,6.22,0,0,0-1.52.57c.1.34.87.34.87,0,.65,0-.33,1-.87.91-.44-1-.11-1,0-2.16a.69.69,0,0,0,1,.12Zm-1.42-.11a1.25,1.25,0,0,0,.22-1.7c1.09-.12.44,1.36.88,1.81a1.08,1.08,0,0,1-.55.46Zm1.86-8.29A3.08,3.08,0,0,1,550.4,221l-.33-1a1.15,1.15,0,0,0,1.2-.56ZM550.84,235c.11.91-.66,2.39-.22,2.84.11-.45.33-.79.76-.79C550.84,235.88,551.93,235,550.84,235Zm1.31-12c-.33.56-.66.9-1,.9.22-.79-.54-.68-.43-1.36l1-.11Zm-1-4.43v-1c.33.46.55.8.44,1.25Zm.11,4.08h.11l-.11-.9c.88,0,.77.9.44,1.59Zm1.86-3.29c0,.46-.11.8-.11,1.25a2.27,2.27,0,0,1-.33-1.48Zm.54,5.57c-.11-.35-.54-.23-.87-.23a4.51,4.51,0,0,1,.11-2.16c.54.68,1.31,2.27.87,3.29C553.24,225.55,553.67,225.21,553.67,224.87Zm1.86,5.22a22,22,0,0,0-.88,3.07L552.91,230a4.17,4.17,0,0,1,.87-1.25c.66,0,.11,1.13.22,1.59.87.22.87-.8,1.09-1.59Zm-1.2-5.22c.21.34.65.45.76.79.55-.11,0-1,.44-1.25.76.34-.33,1.36-.33,1.93-.44-.68-1.31-.57-1.42-1.47.55,0,.55-.35,1.2-.35C554.87,224.75,554.54,224.75,554.33,224.87Zm-.55,3.52a.89.89,0,0,1,.33-.8c1,0,.43,1.36.87,1.93-.33-.23-.44-.11-.54.11Zm2.51,5a4.47,4.47,0,0,0-.65,1.82l-.44-.8a6.72,6.72,0,0,0,.65-2.15Zm-1,.57a.4.4,0,0,1,.33-.11v.45Zm3.38,3.52-2.84-2.61c.33-.34.33-.68.77-.57l2.07,3.07.11.11ZM556,226.8c.77.68.77,1.93.44,3.4C555.53,229.41,556.73,228,556,226.8Zm.22,5.9a.86.86,0,0,0,.22-.45c1.53-.46.76-1.48,1.53-2.84.32,1.59-.66,2.72-1.2,4.31Zm2-24c-.11.8-1.53,2-.66,2.73C557.6,210.56,559,209.31,558.15,208.74Zm-.33,32.59c0,.57-1,1.93-.22,2.39C557.71,242.81,558.91,241.67,557.82,241.33Zm.65-18.74c-.22.12-.32,0-.43-.11Zm1.86,20.79c.21.68-1.31,1.7-1.64,2.61C558.25,245.19,559.67,243.94,560.33,243.38Zm1.74-28.28c-1.09.23-1,1.7-1.74,2.16,1.09,1.25-.22,1.7,0,2.16.11-.46.76-.23,1.2-.23a4.46,4.46,0,0,0,.54-2.16c-1.09-.34-.54,1-1.09,1.25a1.53,1.53,0,0,1,.87-1.93c0,.23.22.34.22,0C561.2,216.12,562.4,215.67,562.07,215.1Zm-1.74,25.44.11.11Zm1.2-10.68a8.38,8.38,0,0,1,.43-1.93C562.62,228.16,562.4,230.09,561.53,229.86Zm7.41-47c1.42.45,2.4,1.93,3.71,1.48a5.37,5.37,0,0,0,.11,1.93l-3.27.34Zm5.57,2.61c0-.11.11-.23.11-.34.21,0,.32.11.32.23Z"/><path class="cls-1" d="M383.61,376.24c-2.29,2-7.42,2.84-5.67,7,.22-.68,1-.68,1,0-1.2-.91-1.42,1.59-2.29,2.16.65,1,1.31,2.27,2.4,2.16,0-.91-1.2-1.48,0-1.82a4.82,4.82,0,0,0,5.35,2c.54-.22,1.19-2.38.87-.34a2.32,2.32,0,0,0,.76-.34l.55,2.05a10.86,10.86,0,0,1-2-.12,3.25,3.25,0,0,0,2.08.68l.1.57a21.56,21.56,0,0,0-2.94.57c0,.68.65.68,1.42.57-2.73,1.36-7.86-1.37-11.13-1-.33-.11-.33-.56-.22-1-.87.46-1.74.34-1.74-.79-.55.68-.33,1.81-1.09,1.59-.55,0,.43-1.14.43-1.59a5.4,5.4,0,0,1-1.63-2.73,1.65,1.65,0,0,0-.77,1.48c-1.42.11-.54-1.7-2.18-.8v-1.25c-.44.12-.33.57-.33.91-1-.45-1.09-.56-2.4-1.13.88-1.82,1.64-3.86,2.51-5.91l11.46-2.72-10.58.57c.21-.57.54-1.14.76-1.71s.87-.45,1.2-.91c.33-.68.44-3.4,1.42-2.72-.22-1.82,2-2.84,1-4.43.54.11,1.74-2.16,1.09-3.29,1.2.79,3.38-5.68,2.73-6.7.32-.46.54-.91,1.31-.91,0-.23-.44-.23-.66-.23,0-.23.11-.34.22-.57l1,.23a1.67,1.67,0,0,0,.33,1.25,4.9,4.9,0,0,1,.22-1.25l.87.11,8.73,1.14c-.33.23-.77.45-1.09.68,0,.8-.11,1.59-1,1.48.33-.34.44-1.14.77-1.48-1-.11-1.09.57-2.07.45a48.24,48.24,0,0,0-3.17,7.27l-.33-1.81c.44-.69,1-1.48.55-2.05.87.8,2-2.16,1.64-2.5-.11.34-.33.12-.66,0a11.11,11.11,0,0,0-1.74,3.86l-.88-3.74a5.07,5.07,0,0,0,.77-2.27,1,1,0,0,0-1,.9l-.88-3.29a4,4,0,0,0,.66-2.61,9.05,9.05,0,0,1-.77,1.82l-.21-1a21.6,21.6,0,0,0,3.05-8.51c.55.68.65-.12,1.31-.34,0-.91-.76-1.14,0-1.82h-1.2c-.66-.34,1.2-.57,1.74-.57a1.67,1.67,0,0,0,.22-.79L395.94,353l.87.8c-.22,0-.33.11-.54.11l-2.73-7.72c1.09-.12,1.85-.8,3.16-.57l5.78-2.95c1.42-.8,4.58-1.14,7.09-2.61,1.31-.8,4.26-4.21,5.78-6.7l1.75,6.81,5.13-14.2c2.07,3.64,3,8.07.76,11-.11.45.87.45,1,0,.44,2.72-4,4-3.92,6-1.2.45-1.1,1.13-1.64,1.7l-1.31-4.54-4.36,12.38c-.11,0-.22-.12-.33-.23-.65.23-.76,1.25-1.53,1.25a31.14,31.14,0,0,0-14.07.23l-.87-.8.33.91a10,10,0,0,0-1.75.45l-4-6.13-.54,7.84c-.77.34-1.42.68-2.18,1L379,355.91l.55,1.93c-.11.69,0,1.25-.66,1.37.11,0,.33-.12.22.22s-.44.34-.55.69a2,2,0,0,0,1.2-.91l.88,3.74c-.11.46-.11.91-.22,1.37a2.41,2.41,0,0,1,.43-.68l.33,1.81-.33,1.36c.22,0,.44.12.66,0l1.85,8.52-4.91,1.14,5.13-.34Zm-5.67.11-11,4.2,11.35-4.31Zm7.63.23c-.1-.45-.21-.57-.54-.68a2.61,2.61,0,0,1-.76.79l-1.64-9.42c1.42-.23,1.75-2.73,3.27-3.75-.65.91-.87,2.16-1.52,2.84a11.85,11.85,0,0,0,2.83-.91c-.22.46-.65.8-.11,1,0-.68.87-2.15,1.53-1.25a1.13,1.13,0,0,0-1,.57c1.52.23,1.63-1,2.83-1.25-.11.34-.11.46,0,.57l-.11,1c-1.3.12-2.83.34-3.38,1.48a24.76,24.76,0,0,1,3.38-1.14l-.43,3.07c-.33.34-.77.57-1.09.91a.85.85,0,0,0,1,.23l-.44,3.52-1,.68-9.6,1.81h.33l4.91-.9.22.79-5.13.11L367.25,379a19,19,0,0,0,1-2l10.58-.23,9.6-1.81c-.87.57-1.74,1.25-2.51,1.7Zm-11.78,6.93c-1.09,0-1.74,3.29-1.09,2.84-.11-.57,0-1.14.55-1.25,0,.22.22.34.22,0C372.7,384.76,373.68,383.85,373.79,383.51Zm12.88,10.67c-2.08,0-4.48-.34-6.77.11,1.2.8,2.51.35,4.37.46-.44.45-1,.57-1.1,1.25-3.59-1-6.65-2.5-10-3.75.44-.91,1.31.12,1.74,0a1.13,1.13,0,0,0-1-1.25c.66-.79,1.75.57,1.64,1.37,2.84,1.24,5.56-.57,7.53,1.13,1-.57,2.29-.11,3.7.23Zm-8.95,1c-1.2.68-2.73-.79-3.27-1.36C374.45,393.27,377.07,395.32,377.72,395.2Zm-2.62-27.14c.55-.34.66-1.25,1.42-1.13.22-.91-.33-1,.44-.68a2.6,2.6,0,0,1,1-2.05C376.3,364.2,375,368.18,375.1,368.06Zm.77,21.24c.76,0,.87.79,1.74.68C377.72,389,376.19,388.62,375.87,389.3Zm.11-28.16c.54-1,2.61-3.07,1.41-3.75C377,358.53,375.76,360.46,376,361.14Zm.43,23.16c-.22-1,1.42-.34,1.2-1.36-1.31,0,.44-1.25-.33-1.36,0,.45-.65.34-.87.56C376.74,383.05,375.87,385.1,376.41,384.3Zm.77-29.3c.65-.79,1.3-1.81,2-2.61l.11,1a10.28,10.28,0,0,0-1.09,1.93Zm1.52,1c.22-.34.44-.68.77-1.14l.11,1.48Zm7.42,39.4c-2.51-.23-4.14,1.14-7.31,1.14A6.6,6.6,0,0,1,386.12,395.43Zm-6-33.5c-.11.46-1.09,1.71-.44,1.82C379.9,363.18,381.32,362.16,380.12,361.93Zm3.05,26.46c-.87,0-1.74,0-2.07.57C381.65,389.64,383,389.07,383.17,388.39Zm1.42-20.55c-.43.34-2.51.11-1.63,1,.54-.46,1.42-.23,1.85-.68-.22-.68.44-1.25.11-1.48A1,1,0,0,0,384.59,367.84Zm.44,8c-.11.11-.22.11-.33.22v-.22Zm2.51,19.87h-.33c1.2-1.25-1.85-.12-2.18-.91a2.84,2.84,0,0,1,2.73-.68Zm4-47.81,3.49,6.47a36.75,36.75,0,0,0-4.79,1.25l1.3-7.72-1-1.82-5.45-6.24c.43-.8.87-1.93,1.2-1.36v-.12l4.25,7.72.77,1.48Zm3.6-27.71c3.5-.45,7.31-1.36,10.37-.11-.77-1.36,2.4.45,3.6.79a14.81,14.81,0,0,1,2.07.12c1.09.23,2.29.68,3.27.79l1,7.16c-1.09-.91-5.56.11-3.92-1-2.51-.91-3.38-.57-6.22-.35,0-.34.22-.34.33-.56-1.2.91-3.82-.12-4.69,1.25-1.1,5-4.91,11.12-8.29,13.62l-.11-.11c1.09-1.48,3.05-3.07,2.83-5-1,1.48-2.07,2.95-2.94,4.43l-.66-2.95-1.2,6.13a10.29,10.29,0,0,0-.54,1.14h.32l-.21,1.59-.22-.34.22.34.21-1.59c1.2-.23,1.53-.8,2.73-1.37l.11.12c-.33.22-.44.68-.54,1.25h.65l1.64,7-5.79-7.16-3.92-7.83a41.74,41.74,0,0,1,4.47-8.29l2.07,9Zm-7.74,67.11a1,1,0,0,0-.33.69h.11l-.22,1.47a3.64,3.64,0,0,0-1.09-.11l-.22-2.16c.66-.23,1.2-.45.22.34,1.2.12,1.09-.68,1.31-.79.11.11.11.22.22.22Zm.65-59.5c-.76.23-1.63.57-2.18.12-.43-1.48.22-3.41.87-5Zm-1.63,66a7.8,7.8,0,0,0,3.16.34,6.93,6.93,0,0,1-3.05.11Zm1-3.64a1.89,1.89,0,0,1-.76.23l-.11-.45c.32-.12.65-.12.87-.23Zm-.44,3.07.11.45h-.22Zm0-5.45a23.13,23.13,0,0,1,7.09-2.39c1-.11,1.86.91,2.4-.34-.11.46.55,1.25.66.46-.66-1.14.87.23,1.2-.23.76-.34-.66-.57-.44-.91a18.26,18.26,0,0,0,3-.79l-.77,2.27c-2.18.91-3.81,2.16-5.45,3,0-.34.33-.34.33-.68-3.06.23-5.24,1-8,1.14Zm.33,6.47c.11,0,.22.11.44.11l.11.69c-.11,0-.22-.12-.33-.12-.11.57.11.68.43.57l.11.45c-.32,0-.65-.11-1-.11Zm-.11,1.14c.33-.12.66-.46.87-.46,0,.46-.32.68-.65.91Zm.22-4.89c.65-.11,1.2-.11,1.64-.22a3.64,3.64,0,0,1-1.64.68Zm4.91-51.55.87,2.95a22.72,22.72,0,0,0-1.74,3.18l.87-6.13-2.4-8.86a20.23,20.23,0,0,0,1.09-2c-.33-.46-1.09-.46-1.75-.23l-1.2-5a8.81,8.81,0,0,0,.55-1.93c1.74.69,4,.35,6.33-.11Zm-3.06,26c.33.34,2.08-.9,1.64-1.36a2,2,0,0,0,2.95-.23c.1.35-.44.57,0,.69.21-.91,1.85-1.14.65-.34,1.64.22,1.75-1.25,3.38-1.14a1.16,1.16,0,0,0,.11.91l1.2.11.87,3a16.31,16.31,0,0,1-2.4.34c-.11.69.33.69.44.91-.33,0-.33.34-.66.34,0-.56-1.85-.9-2-.56.44,0,.22.45.22.9-.87.46-1.42-.56-1.75.46,1.53,0,2.51-.23,3.49.11-3.27,1.48-6.43,3.3-9.38,5l.44-3.52c.76-.46,1.42-1.82,2.29-.68-.22-1,1-.34.76-1.25-.65-.68-1.09.45-1.85.45-.11-.68.87-.91-.22-.91a2.37,2.37,0,0,1-.76,1.25l.43-3.06c1-.12,1.64-.46,1.42-.57-.32.11-.87.11-1.42.23Zm-1.2,29.19a5.93,5.93,0,0,0,3.06-.23c-.33.68-2.07.91-2.95.91Zm.44-7.38v0ZM392.45,343c-.11,0-.11.11-.22.11a.43.43,0,0,1,.11-.23Zm4,23a3.47,3.47,0,0,0-2.94,1.7C394.63,367.16,395.83,366.93,396.48,366Zm-2.18-21.46c.11,0,.11-.12.22-.12-.11.12-.11.12-.11.23Zm7,20.1c-.54.11-1,.11-1.42.22l-1.09-2.95h.33c0-.11-.11-.34,0-.45Zm-1-2.73c.22-.68,1.75-.57.55.12a8.25,8.25,0,0,1,4.69-.8l.22.11a.62.62,0,0,0-.44.12c-.33-.12-.55-.34-.66.23.22-.12.44-.12.66-.23s.33.11.44-.12l3.38,2.84c-.33,0-.44.12-.22.68-1.42-1-3.82-.68-6.44,0Zm6.55,22.83c-.22.11-.55.22-.88.34,1.42,1-2.83,1-4.58,1.7-.11,0-.22.11-.33.11l.77-2.27a28.17,28.17,0,0,0,4.14-2.27Zm.65,3.29c-.65.23-1.42.34-2.18.57.33-.91-.66-.46-1.2-.57,1.31-.45,1.64-.91,2.94-1.25Zm-2.18-26.46a11.23,11.23,0,0,1,4.36-.23l-1.09,3.3Zm8.4,24.3c-.33.23-.11-.22-.55-.57-1.52,1.71-3.92,2.28-6.32,2.62l-.33-1.25a6.61,6.61,0,0,1,1.64-.12c-.55-.45-1.1-.11-1.75-.79,1.31-.34,2.51-.68,4.15-1.14.43-1.13-1.1.23-.55-1.36l1.42.23c-.11-.46-.33-.68-.33-1.14-.54,0-.44,1-1.42.68.11-.34.44-.45.77-.56-.44-.57-.77,0-1.75-.46.22.23-.11.8.33.91-.77.11-1.86.34-3.17.57l-.43-2.5a11.49,11.49,0,0,1,5.34-1,.11.11,0,0,0,.11-.12Zm-7.64-23.5h.22l-.11.11Zm3.82-.8a3.2,3.2,0,0,1,2,2.73c-.32,0-.43.56-.76.45.44-.34-.33-1.36-.44-.57.66,1.82-1.63-.79-.76,1.14a5.16,5.16,0,0,1-1.74-.8Zm1.75,18.17c.54-.23.43-.8.76-.91,1,1.14.33-.57.65-.57,1.42,2.39,2.95-1.81,4.48-.45-.11-1.25.54-1.36-.22-1.59.43-.34,1-.57,1.42-.91l.43.57c-.43,0-1,.11-1.31.11a2.37,2.37,0,0,0,1.75.57l3.16,4.43-.22.23a.83.83,0,0,1,.44.11l.33.57a2.54,2.54,0,0,1-1.53-.23c-2.18,1.36-4.8,3.29-7.31,3.18,0,.45.44.91-.11.91-.11.11-.11.11-.21,0Zm9.6-24.41c-1.31-1.25-2.95-2.28-4.7-2.05-1.41.12-2.39.57-3.59-.34l4.36-12.38-1.86-6.81a5.19,5.19,0,0,0,.88-2.16c-.11-1.93-2.51-2.61-2.51-4.2h-.11L412,320.48c1.09.12,2,.23,2.19-.11,2.18,1.25,3.49.8,4.58,2.61-.55-.57-.55.23-1.09-.34.32.91.87.23,1.41,1.25.88-.23-.32-.57.11-1.25a15.28,15.28,0,0,1,3.17,3.75l-5,14.19,1.2,4.55a1.67,1.67,0,0,1-.87.45c.1.57.43.68.43,1.25-.33,0-.33-.45-.33-.68-.21.11-.32.34-.65.34a4,4,0,0,0,2.18,1.59l.66,2.5a2.66,2.66,0,0,0-1.64-.12c.87.57,1.09,1.48,2.07,1.25ZM418,374.88l8.4-1Zm8.4-.23a39.46,39.46,0,0,1-4.47,4.2l-3.27-4.43c.32-.11.43-.22.43-.45a1.11,1.11,0,0,0-.87-.23l-.11-.23Zm-8.07.57-.22-.23Zm.65.68-.32-.23c2.4-3.06,3.49-5.45,5.67-8.74l2.84,7.38Zm.66-27.59c2,.79,4.47,1,5.34,2.15a5.31,5.31,0,0,0-2.5.23c.43.68-.11,1.25.87,1.59-.77.11-1.64-1.14-3.06-1.48Zm3.05,21.8c-.76,1-3.05,2.27-2.72,3.29C420.48,372.27,423,370.11,422.66,370.11Zm-2.4-20.9c1-.11,1.09,1.93,1.86,1.25-.55-.22-.22-1.25-.66-1.36S420.48,349,420.26,349.21Zm3.82,13.86a7.8,7.8,0,0,0-.54-3.41,21,21,0,0,0-2.19-3.86l-.65-3.75a.84.84,0,0,0,.76,0c-.11.34-.32.34-.43.34,2.18,2.84,5.12,5.91,5.23,11.25,1.53-2.84-.43-5.11-.76-7.5,1.09,1.36,1.42,3.07,2.18,4.54.44-1.93-.87-4.65-2.51-5.79.87-.79,1.42,1.14,1.86,1.36a1.08,1.08,0,0,0,.76-1.13c1.09.57.44,1.47.66,2.5-.33-.34-.55-.91-1.2-1a21.61,21.61,0,0,0,1.41,3.75c.88-.11-.11-1,.22-1.36,1.2-.11.22,1.82,1.42,1.93-.76.57-1,2-1.09,3.52Zm6,12.38a17.56,17.56,0,0,0-3.05,2.72l-.22-1.7.11.91c-.44-.23-1-.23-.55-1,.11,0,.33.12.44.12l.22,1.7c-1.31,1.14-2.73,2.16-4.26,2.16l-.32-.57c1.63.23,1.74-.23,2.94-2.27l1.86.34a.34.34,0,0,0-.33-.45l-.11-.91a5.51,5.51,0,0,0,2.18-1Zm-4.47-22.15c-.66.68-1.09.46-.33,1.93-.11.57-1.2-.23-1.53-.34,1-.45-1.2-1.47.44-1.59a14.29,14.29,0,0,1-1.42-1.25C424.19,351,424.08,353.76,425.61,353.3Zm.22,7.38a7.25,7.25,0,0,0-2.4-5.45A27.56,27.56,0,0,1,425.83,360.68Zm4.47,2.73a1.28,1.28,0,0,1-.66.68c.33.11,1,1.25,1,.45a.43.43,0,0,1,.11.34L424,367.27c-.11-1.25.22-2.5.11-4l5.35.12v.34c.21,0,.32-.11.32-.34Zm-6.11,3.29v-.11l7.09-.23c0,.57-1.31.8-.87,2-.66.46-.55-.34-1.2.12.11.34.54.45.33,1a1.47,1.47,0,0,0-1,.11,26.3,26.3,0,0,1-3.81,5Zm.22-30.09c.11.11,0,.23,0,.34Zm2.73,15.9c1,.45,1.52-.57,2,.79C428.23,353.76,427.57,353.53,427.14,352.51Zm1.52,22.37c.88-1,1.64-2.39,2.51-3.3.55,1-.76.91-.33,2.5a7.63,7.63,0,0,1-1.09.68ZM431,354.66c-.11.46-.21.91-.32,1.25-1.09,0-.33-1.25-.88-1.47C429,353.76,430.19,354.78,431,354.66Zm.22,9.09c0-.34-.11-.91.66-.57,0,.23-.11.46-.11.68Zm.44-6.13a1.7,1.7,0,0,1,.54,2.15C431.61,359.32,431.5,358.64,431.61,357.62Zm.65,5.67c-.32-.11-.22-.34,0-.34-.32-.22.33-1.47-.32-1.59C432.92,360.8,432.92,362.61,432.26,363.29Z"/><path class="cls-1" d="M494,342.29,477,341l7.09.57-.66,1.13c-.11,0-.11-.11-.21-.11a31.22,31.22,0,0,0-6.44-1.25L477,341l-6.66-.46c2-.22,4-.45,6.11-.79-.65-.23-1.53-1-.76-.8-2.95-.91-5.35,0-8.07-.22.1-.57-.33-.69-.44-1,2.07-.34,5.13-1.13,5.67-2.27-3.71.91-7.2,1.59-9.49,2.27.87-.9,3.6-1,3.27-2.61-2.94,1.25-5,1.37-7.63,2.73.22-.12.76.34.65.22-.76.35-1.42.12-2.18.46a3.85,3.85,0,0,0-1.31,1l-4.91-.34.11,2.73h-.43c-.22,1-1.2,1.36-1.75,2.15,1-.11,1.31-.79,2.18,0-1.52.46-2.73,3.86-4.91,5.23,0-.91,1.42-1.37.22-1.93a27.82,27.82,0,0,0-5.13,10.1l-.54-.34c1.74-4.88,5-10,7.09-13.51-2.84,2.73-4.91,6.24-7.09,9.88.65-2.73,2.94-5.22,3.38-7a46,46,0,0,0-5.78,9.65l-.55-.34a33.4,33.4,0,0,1,3.28-6.25c-.22-.68-1.64.46-1.42,1.59-1-.79-1.09.34-1.42,1.59-.55.46-.55.23-.87-.11a1.64,1.64,0,0,1,0,1.25c-.77-.45-.66,0-1.75-.23.66-.45.11-.34.22-1.25.76.23,1.42.34,1.53-.34a1,1,0,0,0-1.09-.68c1.09-2.95,2.72-3.75,4.36-6.24.33,0,.33.34.33.56.87-.34.21-.9.76-1.36,1.31.8,1.53-1.36,2.73-2.5a31.12,31.12,0,0,1,4.69-2.84l1.85.23,4.91.34c-1.42,1-2.73,2.61-4.8,2.39l-.11-4.32c1.86-1.25,4.37-3.06,6.77-3.41,1.2-2.72,6.54-1.47,8.72-4.31,1.42,1.25,1.86-.8,2.51-.91.22-.11.44.68.55.68,1.2,0,4.36-1.36,4.47-1.81,1.31-.12,3.16.22,3.93-.69a.88.88,0,0,1,.43,1c1,.34,1.31-.34,1.86.22-.22-.91-.44-.34-1.2-.45.33-.57.87-.68,1.63-.68.33.45.11.45-.11.91,1.86-.46,2,1.25,2.95-.12,0-.45-.44-.45-.76-.45.11-.46.65-.23,1.09-.23l-.11,1.25c.54.11,1,0,1.53.11l-1,1.25c-4.58-.45-9.7-.68-13.41,1a92.23,92.23,0,0,1,12.32.69L477,341l17,1.25,2.62-5.79a2.8,2.8,0,0,0,1.64-.69,5.28,5.28,0,0,1-1.31-.11l2.18-4.77a2.4,2.4,0,0,0,.66.46c-1,.9,1.3,1,.87,2.27.76.11,2.07-1.14,1.2.11,1.09-1,1.31.45,2.4.11-.44.69-.22.57-.55,1.71-.54-.12-.21-.8-1.09-.8-.22,1.14,1.64.8,1.2,2a1.38,1.38,0,0,1,1.09-.23l-11.23,6.24-1,2.28a.77.77,0,0,0-.44.9l-.44,1c-.54-.91-1-1.71-1.63-1.93.65-.57.87.45,2.07.34a1.15,1.15,0,0,0-.66-1.48l2.08-1.14.87-.45Zm-57.16,18.62c-.11.11-.11.11-.11.23-.32-.23-.43-.23-.32-.34Zm.66,0c-.11,0-.11.23-.11.34-.22.57-.44-.34,0-.34Zm.87.23a.39.39,0,0,0-.54-.23h-.44c.11-.23,1.31-.23,1.2-.68.33.11.22.57.65.45-.11.57-.54,0-.76.46Zm2.84,19.07a5.38,5.38,0,0,0-.77-.68c1.75.12-.43-.68.44-1.81.33,0,.11.56.44.56-2.73-4.2-2.51-11.24-.77-17.37l.55.23c-1.42,4.88-1.86,10.22.65,15,.66-.68-.76-1.93.77-2.05-1.42,0-.77-1.47,0-1.59-.11,1.59,1,2.61,1.63,4.09.44-1,0-1,.11-2.16-1.09.68-1.42-1-.65-1.25-1.09-.45-.44-1.25-.77-2.15.33,0,.44.22.66.22,0-1-.77-1.25-.77-2.15.33,0,.33.45.55,0a14.55,14.55,0,0,1,.33-7.16l.65.23a18.91,18.91,0,0,0-.11,6.93c.11-.34.33-.69,0-.23.11-1,1.42-3.52,1.64-5.45,1.2-.34.43,1.13.54,1.81-1.85,3.3-.11,7.27,1.42,10.23Zm.32-18.62c-.65,3.18,0,7.5.33,10.68-2-2.73-1.2-7-.44-10.68Zm.11-.45c.33-1,.55-2.05.88-3,.32.12.54.35.43.91a12.86,12.86,0,0,0-1.09,2.05Zm7,12.94a25.92,25.92,0,0,0,1.42,3c-.32-.23-.87-2.16-1.2-.8.77,1,5.35,5.56,5.57,3.86a4.49,4.49,0,0,0,1,1.14l-2,.68,2.3.45.54-.68c.33,0,.76.11,1.2.11l.11,1v2.38a16,16,0,0,0-3.38-.45l1.53-2.39-2.3-.45-3.27,1.13-3-.45c-.66-.68-1.2-1.48-2.18-.91.54.11.21.34-.11.34l-1.53-.23a.34.34,0,0,1-.11-.22c0-.57-.44,0-.76-.12a11,11,0,0,1-.44-1.93l11.45,2.39,2-.68a5.64,5.64,0,0,1,.87.45l-.54.68,1.85.46-.11-1a8.53,8.53,0,0,0,1.53-.22c-.66,1.36,2.51.34,3.82.45.43,0,1,.8,1.41.8,2.08.22,4.7-1.59,4.7.34a1.72,1.72,0,0,1,1.09-.46l-.88,1.82a.74.74,0,0,0-.76-.57,10.21,10.21,0,0,1-.55,1.14l-.32-.12c0-.11.11-.11.21-.22-.54,0-1.09,0-1.2-.34.55-.34,1.31.22,1.86-.8-1.09,0-1.09.34-1.53-.45a5.35,5.35,0,0,0-1.85,1.25l-9.27-2.05-1,1.59,12.77,2.39c-1.31,1.13-2.95-1-3.06.22-.22-.45-1.42.12-.22-.56-1.74.11-2.83-.23-3.16,1,.44-2.16-5.24.45-2.51-1.48l-1-.34v-.68l-2.84-.57-7.63-1.36,3,.45-5.89,2.39c-.33,0-.54-.12-.65.11-1.42-1-.55-2.61-1.64-3.63v-.34l.55.11a1.28,1.28,0,0,0,.87.45c0-.11-.11-.22-.11-.34l1.53.23c-.44.23-.77.23-.33.57.54-.34,3.38.45,2.29,1.59,1-.57,1,0,1.64-.91a1.86,1.86,0,0,1-1.31-.68l7.63,1.36-.54.8a17.77,17.77,0,0,1-2.07-.34c-.11.56-.77.34-.66,1.25.87-.23.55.45,1.09.68a1.06,1.06,0,0,1,1.09-.8l-1.74,2.73c-.66-.12-1.2-.23-1.09,0a8.4,8.4,0,0,0,.87.34l-.87,1.25a5.08,5.08,0,0,1-3.82-1.71c.87.12,1.74-.22,2.29-1.59-.55.12-2.4.23-3.06-1-.21.91-1.2.12-2-.11l9.16-3.52L442,379.53a2.36,2.36,0,0,0-.33-1.25Zm-6.54,9c0-.34.22-.22.54,0Zm2.73-26c-.88-.23,0-1.36,0-1.82C445.68,355.57,444.81,356.59,444.81,357.05Zm2.18-1.36a18.91,18.91,0,0,0-.87,3.06C445.57,359.21,446,355.69,447,355.69Zm1.31-7.38c.22-.23.54-.12.54-.46-1.42,0-1.31,1.25-1.52,2.16.65-.23,1.3-.46,1.41-1.14C448.41,348.87,448.3,348.65,448.3,348.31Zm-.11-5.91c.22-.11.43-.34.65-.34a12.76,12.76,0,0,1,1.2-1v1.47Zm3.49,9.08a1.11,1.11,0,0,1-.87.12,1.34,1.34,0,0,1,.87-1.14Zm-.55-1.36c.11,0,.44-.11.66-.11-.22.45-.22.91-.66,1.13Zm7.42,41.68c-.11,0-.33-.12-.43-.12-1.1-1.47-4-1.25-6.77-1.47l.77-1.25c1,.23,1.85.45,2.4-.23-.66,0-1.53-.11-2.19-.11l1.64-2.84c.33,0,.65.11,1.09.11-.11.46-.54.46-.76.8,1,.11,2.18.45,2.51-.34.65.45.87-.12,1.2.34,0,1.13-1.53.34-1.64,1.13-1.09.12-2.29-1.13-2.62.12,1,0,2.51.22,1.64,1,.65.57,2.4.34,3.05.45l-.11.46s0,.11-.11,0h.11ZM475.46,340v.34c-8.84,1.59-16.36,6.24-22,11,3.28-5.68,9.17-7.61,15.5-10l6.54-1.36,4-10.68c1.74-.23,3.38-.23,5.12-.45l-2.18,9.88Zm-21.82,7.6c-.22-1.13,1.09-.56,1.2-1.24C455.72,346.83,454.3,347.62,453.64,347.62Zm4.15,35.43h7.63a4.85,4.85,0,0,0-.54,1c1,.9,2.29-.12,3.38.34l-10.14.22Zm.11,7.5c1-.57,2.94.34,3.81-.68-.54-.68-2.39.34-2.72-.23.76-.45,1-.68,1.09-1.14.76.46,1.74,0,2.94.34.44,1-.65.69-.76,1.37,1.2-.23,2.29.45,2.73-.91-.66,0-.66.34-1.2.45-.33-.79-.44-1.25,0-1.81a3.37,3.37,0,0,0,2.83.56l-.32,1.37a37.88,37.88,0,0,1-7.86,2.5Zm1.31-1.82c.32,0,.43.23,0,.46ZM467.5,341c-.44.11-1.53.22-2.62.34C465.1,340.58,467,340.47,467.5,341Zm-2.19-3.64c1.1,1,3.17-1.25,3.39-1.36-1.2,0-2.4,0-3.06.68C466.19,337,465.53,337.06,465.31,337.4Zm14.08,49.51-.33.8a5.15,5.15,0,0,0-1.42.57h1.2l-.22.79a7.7,7.7,0,0,1-1.41.34l.1-.91c-1.74-.11-5.56,1.25-5,0-2,.57-3.82,1.14-5.57,1.59l.55-1.36c.33-.11.43-.34.54-.68-.11-.23-.21-.23-.21-.23l.54-1.25a2.66,2.66,0,0,1,1.86,0c-.44,0-.55.46-1,.46-3.49,1,1.86-.34,2.08-.12-.44.46-1.31.69-1.75,1.14.55,1.7,3.49-1.48,3.27.45a47.45,47.45,0,0,1,5.13-1.7l1.64.11.22-.79c.1-.11.32-.11.43-.23l2.4.34c-.54.34-1.2.57-1.85.91Zm-11.68.46c-.54,0-.76.79-1,.11,0-.68.66-1.13,1.42-1.47Zm.44-3.52a1.08,1.08,0,0,1-.54.45.59.59,0,0,1,.21-.45Zm1.09.45a6.54,6.54,0,0,1,2.73-.79l1.53.45c-1.09.23-2.62.23-3.93.46Zm.55,1.37c-.22.11-.33.11-.55.22l.22-.22Zm.65-3.53c.66-.22,1.09-.22,1.2-1.24.77,1,2-.57,2.62-1,0,0,.11.68.33.57.65-.23,1-1.13,1.63-1.48,1.09-.45,2.73.12,3.06-1.7l.11.91c.76-.79,2.4-1.7,2-2.5.22.12.33,0,.65.12l-.1.9a6.39,6.39,0,0,0-2.84,3.07c-1.75-.11-3.38.68-5.35,2.16.88,1.36-1.85,2.38-3.16,2.95-.22-.11-.33-.34-.44-.68Zm.33,1.71c.87-.34,2-.8,2.73-1.14a9.15,9.15,0,0,1-1,1.14Zm5.13,6.24a2.88,2.88,0,0,1-2.4,1.37C473.61,391.46,475.13,389.64,475.9,390.09ZM474,381c.44-.8,1.86-.34,2.62-.68C476.44,381.35,475,380.9,474,381Zm7,1.93a8.1,8.1,0,0,1-6,1.36c.55-.34,1.2-.45,1.53-1a14.11,14.11,0,0,0,4.91-1.7Zm-.65,3.63c-.44.23-.87.57-1.31.8l.11-.8h-1.64c.66-.22,1.09-.68,1.75-.9l-.11.9Zm4,.68a37.15,37.15,0,0,1-5.35,1.14l.33-.79a19.59,19.59,0,0,0,3.49-.69Zm9.27-11.12a19.29,19.29,0,0,1-7,5.9c0-.57.87-.45.54-1.36-1,.23-.76,1.36-1.74,1.47.21.46.43-.11.87-.11-1.53,1-2.84,1.93-4.15,2.84h-2.51c2.29-1.36,4.15-2.84,4.48-4.77.76.68.76-.57,1.41-.68,0,.34-.43.34-.21.91.87-.46.65-.57,1.09-.8-1.09-.57,2.07-1.25.76-1.93-1,.91-2.94.91-2.51,2.16-1.85.23-3.27,1.48-4.8,2.5l.33-1.36a51.69,51.69,0,0,0,5.13-4.32c.32.8,1.63-.45.76-.68l.11.57c-.44-.34-1.42-.12-1.85-.34.1,1.13-1.64,1.47-2.3,1.13-.21,0-.76,1.7-1.52,1.82l.11-.46a1.65,1.65,0,0,0,.54-1.24c-.11.11-.22.11-.33.22l.22-.91c1.31.23,2.08-1.24,3.28-2.38l1.63.34c-.11,0-.33.34,0,.34a.88.88,0,0,0,.76-.11Zm-12,2.83c-.22.12-.44,0-.66-.45a.65.65,0,0,0,.88,0Zm5.67-52.57.11,1a.85.85,0,0,1-.33.11l-.33,1.59c-1.52.12-3.16.35-4.9.46l.65-1.36a14.76,14.76,0,0,1,7.42.22c1-.22.76-1.36,2-1.36,0,.91,2.84.34,3.38.34-.11-.34-.65-.23-1-.23.55-1,1.2-.45,2-.22l-1.09,5.22a14,14,0,0,1-4.14-1l2.4-.23c-.33-.68.11-1-.44-1.13-.22.22,0,1.13-.76.9.22-1.59-5.56-.56-4.26-1.7-.43,0-.76.11-1.2.11l.33-1.59v-.22h.11Zm-4.8,60.3c.66-.34,1.2-.68,1.75-1l1,.11a6.07,6.07,0,0,1-1.2,1Zm9.16-46a5.81,5.81,0,0,1-.87-.34c0,.45.66.79.22.9-2.4.23-5.24,2.05-7.53.91l1.86-11.24a7.7,7.7,0,0,0,1.52-.23c.77-.22.44.91,1,.8,2.07-1,4.47.91,6.43.45l-1,6.93Zm-4.36-14.77c-.87-.45-1.75-.11-3.27-.11.76-.79-.55-.23-.33-1.25.44.34,1.09.34,1.2.8a2.71,2.71,0,0,1,2.62-.68v.45Zm-2.84,59.17a5.58,5.58,0,0,0,2-1,2.82,2.82,0,0,1-1,1.24Zm4.15-8.63c1-.8,1.2-2.73,2.62-3.18-.22-1.48,3.16-2.73,1.74-3.3-1.2,2.39-4.14,4.32-4.8,6.25-.22-.11-.11-.57-.43-.57l.11.68-1.75-.34c.11,0,.11-.11.22-.11,1.09-1,2.73-1.82,4.25-3.41,3.38-3.74,5.13-9.76,6.88-11,0,.11.54.57.76.45.11-.79-.76-.45-.87-1.13-1-.23-.55,2-1.31,1.25,0-.8.54-1.25,1-1.82.44.11.76.34,1.2.45.33-1.59,1.53-3.52,2.18-5.79l5.24-4A22.2,22.2,0,0,1,504,358.3c.65-.12.76.91.22,1.82-.76,0,.33-.69-.22-1.25-3.05,4.31-4,10.1-8.4,13.4,1,0,2.95-.35,3.71-1.82,1,0-.87,1.13.22,1-1.53,1.93-2.73,4-4,5.91Zm-1.31-48.6c-.22-.12-.11-.23,0-.23Zm2-1.37c.22-.34.66-.22.77-.79.11.22.65.57.87.11C491.93,326.73,489.75,327.41,489.31,326.5Zm1.42,46.22c.11.23-.11.57-.22.11-.76,0-.87.68-1.09,1.14C490.08,374.88,491.71,372.15,490.73,372.72ZM491,372c-.44-.12-.66-.57-1.09-.68.54-.46,1.31.11,1.85-.68C492.48,371.13,490.73,371.13,491,372Zm.65-44.52c-.32-.45.77-1.13,1.75-.68C492.91,327.87,492,327,491.6,327.52Zm16.48,12.38c.21,1.82,2.29,3.86.32,4.54a1.49,1.49,0,0,1,.55,2.5c-.66-1.47-.33.91-1.42.46-.11.68,1.2.11,1.42-.12.65.8-.44,2.27-1.2,2.27.11.46.44.46.54.23a29.25,29.25,0,0,1-1.3,4.54l-6.11,2.27a8.59,8.59,0,0,0,1.41-3.63c-.54,1.14.11-2.16-.76-.79.87.9-1.64,3.06-2.29,2.95.87-1,2.4-4.43,1.2-3.64.11-.45.33-.68.87-.56.88-3.75-1.09-6.48-3.05-8.86-1.09,1.59-1.86,3.41-3.49,4.2-1.64-.23-2.4-1.47-3.17-2.61l.44-.91c.11.34.22.57.76.23-.87,0,.88-1.14-.21-1.25,0,0-.11-.11-.11,0l1.2-2.73h.54l12.22.8c-.11.45.33.68,0,1.59a1.11,1.11,0,0,1,.65,1.59c1.86-.46.44-1.14.88-2.05-.44-.11-.55-.45-1.09-1.13Zm-13.86,31.23c-.87.11-2.4.91-2.07,1.36C492.59,371.7,494.33,372.72,494.22,371.13Zm13.2-33.61a3,3,0,0,0-.54-.46,1.29,1.29,0,0,1,.11.57l-11.79,2.95,8.3-8.74a9.94,9.94,0,0,1,1.63.11c-.54,1.37,2.84,2.5,1.75,3.18.21.68,1.31-.11,1.52.46a1.93,1.93,0,0,0,.22,1.7ZM498.37,365a27.25,27.25,0,0,1-2.29,3.75C497.93,368.86,499.89,365.91,498.37,365Zm.87-7.84c.33-.79.44-1.59,1.42-1.59a8.32,8.32,0,0,0-.44,1.14Zm1.75-.11a1.14,1.14,0,0,1-.88.68Zm2.18.91c-1-.12-2,2-2.29,2.61C501.64,359.77,503,359.55,503.17,358Zm3.49,4.65c-.66,1.59-2.18,3.18-2.29,4.55-.22-.12-.22-.57-.66-.57C504.8,365.34,505,363.29,506.66,362.61ZM508.4,360c-.43,1-1.2,1.25-1.63,2.27C506.55,361.82,507.64,360.12,508.4,360Z"/><path class="cls-1" d="M530.22,373.86a11.49,11.49,0,0,1-1.85,2.95,1.42,1.42,0,0,1,.1,1.81c2.08,0,2.51-.45,3.93-.34l-8.62,9.88c0-.22-.11-.56-.54-.45.11.68-1,.91-1.09,2.16l-.11.22c-1-.22-2.07,1-1.53,1.48a8.29,8.29,0,0,1-5.67-.34L515,390c-.77,1-1.42.23-2.29.45a2.35,2.35,0,0,0,.11-2.38c-.66-.23,0,1.36-1,.79,0-1.13,1.2-3.52,2.51-4.08-.76-1.59.33-3.64.88-5.45Zm-15.82,4.2a2.75,2.75,0,0,0,.22-.91L529.46,372c0,.11-.11.23-.11.34Zm2,1.81a3.87,3.87,0,0,0-.33-1.7c.43,0,.54.23.87.23-.65-.8-.11-1.59.76-1,0-.46-.1-.91.22-.91-1.09.11-1.2-1,.22-.8-.76-1.59.44-2.16.11-3.63a3.65,3.65,0,0,0,1.85-1.48c0-.79-.32.46-1.09.12-1.31-1.25,1.53-1.59.77-.8,1.09-1.13.22-3.52,2.4-5.22-.66-.34-1-.91-.55-1.59.33,0,.22.45.44.68a3.9,3.9,0,0,0,.43-1.36l.55-.12c.11.68-.44,1-.76,1.48.32.79.11,1.13.43,1.36.22-1,1-.45.44.34a1.68,1.68,0,0,0,1.09-.79c-.76,0,.87-1.82,0-1.93,0,.56-.44,0-.55.45.22,0,.33.11.11.34-.76-.11-.32-.91-.21-1.36l2.29-.45a1.34,1.34,0,0,0,.1.56c-.43-.11-.76.12-.76.34-.65.91-2.18,6.7-1.74,8.41-.77-.12-1.09.22-.77,1,1.2-.23,1.09-2.84,2.29-1.25,0-.68.33-1.7-.22-2.16,2.51-.34,2.19-5.34,4.48-6.81.22.45-.33.79.11.91a12.89,12.89,0,0,1,.65-1.93l2.51-.57a2.19,2.19,0,0,0-.22,2.27c.22-.68.77-1.7,1-2.5l1.64-.34a12.22,12.22,0,0,1-3.16,3.63c-1.2,2.16-1.2,5.46-1.86,8.41Zm3.38,9c-.44-.45-1.42.12-1.75.57,1-.22-.54,1,.44.91.22-1,.44-.45.87-.11C519,389.41,519.86,389.53,519.75,388.84Zm3.16,1.25v.23h-.11Zm16.47-34.63a21.06,21.06,0,0,1-2.29,4.77l-1.63.23c.43-.91.65-1.71.1-2.28a10.48,10.48,0,0,1-1,2.39l-2.51.34c1.1-2.61,2.62-5.45,2.95-8.52-1-.34-.22,1-1.2.57.33-1.13,1.64-2.95,1.42-3.63-.11.34-.55.68-.66.22.22-.34.55-2.15.22-2.15-1.2,1.13-2.18,4.08-3.38,4.2,0-1.36,2.07-2.39,1-3.75-.76,1.59-1.42,4.32-2.4,4.77,1,.68.22,3.41-1.09,2.5-.11.91.65.91.65,1.82a1.05,1.05,0,0,1-.87-.35c.33.91.44,2.39-.76,2.62.33,1.36-.22,1.47,0,2.27l-2.29.23c.11-.35.22-.69-.11-.57-.11.34-.11.45-.55.34a.42.42,0,0,1,.11.34h-.54c1.09-2.61.76-5.11,2.83-6.36,0-.57-.76-.34-.54-1.14.54.12.76-.22,1.2-.45-1.31-2.61,1.42-4.54,1.42-5.91,0-.9-.77-.56.32-1.47-1.09-.57-.11-1.48-.43-2.84.11,0,.21-.11.32-.11l5.35-.8,1.09,2.84c-.33.57-.44,1.36-.11,1.7a1.12,1.12,0,0,1,.44-.56Zm.44,22.6a20.71,20.71,0,0,0-2.73,0c-.11.9,1.64.11,1.31,1.25-1.64-.23-2,.79-3.49.56-.11.46.22.57.55.68-.44.91-.66-.79-1.42-.45-.66.11.22,1.14.87,1a2.58,2.58,0,0,1-2.07,1.14c1.2.79,4.25.57,4.69-.8a.11.11,0,0,1,.11.12l-1.31,2.27c-.44.23-.77.34-1,.45-3.17.8-7.42,1.71-9.82,2.05-.33.11-.22.56-.33,1-.54.23-.54-.12-.54-.34l8-10.34h1.2c-.11-.68.11-1.13.54-1.13.33.91.33.57-.21,1.13,1.09.46,1-.68,1.74-.79.11,1.36,1.09,0,1.75.68-.11-1.48,2.61-.91,3.38-2.61-.22.57.11,1.13.44,1.13Zm-15.06-18.74c.88-.11,1.2-.91,1.53-1.59C525.2,357.73,525.31,358.87,524.76,359.32Zm3.5,8.63c.21-1,2.18-3.07,2-4.66C529.89,365.11,527,366.36,528.26,368ZM533,338.08l-4.37-7.72c.77-.79.22-3.4,2-3.18l2.4,10.9,2.72,4.77,8.19-.11c.1,3.29-1.53,5.91-3.39,8.4,1.2-2.27,1.42-4.42,2.84-6.7a26.13,26.13,0,0,0-3.49,5.57l-4.15-7.16H534Zm12.1.12H545c.21,1.13,1.2,1.7,1.2,2.84-.55.79-1.1,2.27-1.75,1.93.11.34,0,.68.11,1l-8.18-.34,3.71,7.49c-1.09,1.93-2.08,4-3.17,5.8l-1.52-9.2c.65-.34,1.41-.57,1.52-1.59a1.43,1.43,0,0,0-1.74.45l-.44-3.06,1.64.11-2.51-4.88.87,4.77-5.45-.12a1.2,1.2,0,0,1,1.09-.34c.11-.79-.44-1,.22-1.59l-.88-.11c2.51-.91,1.64-4.54-.21-5.57.43-1.13,1.41-2.72-.22-3.18a5.76,5.76,0,0,1,1-.79c-.22-.45-.55.11-.76-.8.21.12.32,0,.54-.22l3.82,7.95-1.75-11h.11a.86.86,0,0,1-.22-.45l-.43-2.61c2-2.05,3.16-1.14,6-1.82v.23Zm-14.83-9.88a3.27,3.27,0,0,1-.55-2.39.11.11,0,0,1,.11-.11Zm1.42,51.89c-.44.23-1.75-.11-1.64.57.44.68,1-.91,1.53.12-.77,0-1.31.22-1.42.79.87-.23,2.4.11,2.62-.68C532,381.24,532.07,380.44,531.64,380.21Zm2.94-15.1a4.25,4.25,0,0,1-1,2.5C533.38,367.5,533.82,365.34,534.58,365.11Zm.22-42.24h.11c0,.11,0,.11-.11.11Zm10.8,59.73a43.68,43.68,0,0,1-8.84,2c.66-1.13-.54-.56-1.41-.11l1.2-2.27c1.41.57,2.94,0,4-.34.11.45-.22.45-.22.91,1.53-.46,3.28-.91,4.91-1.37Zm-9.71-62.12c5.57.12,12.33,2.27,16.47,1.48.88.34,1,1.36,2.08,1.59.32-.34.32-.68,1.63-.34-.11.45.22.68.11,1.25,2.73,0,3.93.79,6.87,1.93a.83.83,0,0,0,.66-.68c0,.22.11.34.33.57l-1.2,3c-.88.11-1.86-.12-2.08-.68.44,0,1,.22,1.2-.12-1.42-1-2.83-.79-4.36-1.25,0,1.48-1.85.23-2.18.34.33-.56,1.42.23,1.63-.45-.54-.11-1.09-.11-.87-.68-2.07.11-3-.46-1.31,1-.76-.11-2.18-1.25-2.94-.45,2.29,1,3.92,1.81,6.11,1.13,1,.8,2.07,1,2.07,2.5-1.42,0-1.86-.45-2.51.34a13.17,13.17,0,0,1,4,1.82L560,337.52c-5.13-1.25-11-1.37-16.69-1.82Zm9.71,56.78c-.22,0-.44,0-.44.23,0-.45.22-.45.22-.8-1.85.69-3.38,1.14-5.45,1.71l1.2-3.18c.11.11.22,0,.33-.46l-.11.12v-.34a15.11,15.11,0,0,1,2.4-1.25Zm-5.13-2.95H540c.21-.11.32-.11.54-.23Zm2.84-.8c3.16-1.47,6.65-2.72,9.71-4.08l-.44,5.56c-1.63.8-3.16,1.48-5,1-.21.91-1.41,1.14-2.29,1.48Zm1.64,6.7a49.53,49.53,0,0,1,5.89-1.36,40,40,0,0,1-5.46,2.5Zm6.32-3.29c.55,1-1.74.68-2.62.91C548.87,376.69,550.4,377.83,551.27,376.92Zm3.06-6.13c.21-.11.54-.11.76-.23l2.51,3.75a4,4,0,0,0-1.09.79A6.25,6.25,0,0,0,558,375l.87,1.36c-.76-.11-1.2.23-1.75.23-.76-.23.88-.45,1.2-.57a10.22,10.22,0,0,0-5.23.23Zm12.76.11c-.65.46.33,1.25-.11,1.25-1.31.34-.22-.68-.22-1.25-2,1.93-6.22,5.45-7.52,5.23-.66.45-.77.34-.33,1.25a.4.4,0,0,0-.33.11l-1.09-1.25a.84.84,0,0,0,.22-.91,1.11,1.11,0,0,1-.66.23l-2.94-3.29a32.76,32.76,0,0,0,3.93-1.94c-.22,1.71,1-1.24,2.07-.34-.44-1-2-.11-.87-1.36-2.4.34-3.93,2.84-5.57,2.95,1.09-1.93,5.35-2.72,5.13-4.77a21.61,21.61,0,0,0,3.27-1.59l1.86,2c-.88.68-1.31,1.48-3.17,1.13.33.57-.76,1.14.11,1.14-.22-.57,1.31-1,1.53-.34-.76,0-1.09.68-1.42,1a8.14,8.14,0,0,0,3.71-2l1.42,1.59-.11.11h.22Zm14.73-24.41c-.11-1.59-.55-3.18-1.42-3.86,1,1.36.11,1.93.87,2.38-1,.46-.33,1.14-.11,1.82l-2.07,1.25c-.11-.91,1-2.27-.44-2.16.22.57-.11,1.82.22,2.27l-2,1.14c.65-2.05.76-4.66-.55-5.79.44.11.77.56,1,0-.54-.57-1.2-2.39-1.74-1.71.22,1.48,2.07,5.91.11,7.38.65-3.06.11-6.92-1.75-8.74-1.2.23-1.63-.23-1.31-1.14-.43-.45-.54,0-.87.23l-.44.11c-1.3-2.49-5.12-1-6.87-2.38,0-.79.87.68.55-.68a13.4,13.4,0,0,0-3.06-.11l1.86-4.43-2.51,4.31a.92.92,0,0,0-.55.12l.55-5.11a3.25,3.25,0,0,0,3.16-.69c0,.12,0,.12.11.23l-.76,1.14L562,336.5a1.24,1.24,0,0,0-.65-.12l2.51-4.31.65-1.59a3.32,3.32,0,0,0-1.09,0c1.31-.91-.33-.8,1-1.59.33-.12.33.11.33.22s.22.23.33.35l-.44,1,.33-.57c0,.11,0,.23.11.23l-.33.34h-.11l.44-1h.32l-.65,1,.33-.34c.32.34.87-.34,1.63.11-.43.68-1.2.45-2,.23l.65-1h.22c1.09.11-.32.45-.76.34a.11.11,0,0,0,.11.11l-.33.57h-.11l-.65,1.59.76-1.14c-.11,1.14.87.46,1.53.23.11.45.33.57.11,1,1.09-.45,1.2-.23,2.62-.23-.11.68.65.68.43,1.48,1-.34,1.2.34,2.07.11.11-1.13-1-.79-1.85-.79.65-1.25-2-1-2.29-2.27l1.74-.12c.22-1-1-.34-1-1.13.33-.12.33-.34.66-.46,1.52,2.05,2.94,2.16,4.91,3-.33-1.14-1.09-.46-.66-2.05a10.58,10.58,0,0,1-4.14-1.81c.11,1.47-1.2.11-1.42-.12-1-.23-.55.91-1.09,1,0-.22,0-.34-.11-.45l.11-.23a.24.24,0,0,0,.22-.22h-.11l.76-1.25c1.2.45,1.31,0,2,.68.88-.46-.54-.8.22-1.37.87-.11.77.91,1.75.46.22.57-.11.68-.44.68-.22.57,1.31.34,1.09,0,1.09.34-.65.57-.43,1.25a4,4,0,0,1,2.61-.91c.22,1,.55,1.82,1.64,1.82-1.2,1.36-1.64-1.25-3-.8.1.34.76.46.32.68,2.73,1.93,5.13.91,6.87.8-.54.45-1.41,1.59-2.29.91,0,.79.77.79,1.09,1.13-.32.57-.87.8-1.19.46,1.09.91.32,2.16,1.41.11,1.09.91,2.73,1.25,3.06,3.18.22-.11.54-.34.43-.68,1,.23-.21.68-.1,1s.76-.68.65.8c.22-.23.65-.34.76-.69a4.19,4.19,0,0,1,1.31,1l-1.31.22c-.11,0-.22-.11-.43-.22,0,.11.11.22.11.45l-1.31.23v-.57c-.66-.68-1-.23-1.2-.57.11-1.7-1.2-2.5-3-1.93.76,0,1.86.91,2.51,1.36,0,.35-.55.23-.44.57a5.66,5.66,0,0,1,1.09,1.25l-.87.11a2.57,2.57,0,0,0-1.85-1.7c.22.91,1.09,1.25,1.42,1.82l-4.7.79a4.41,4.41,0,0,1-1.09-1,10.21,10.21,0,0,0,.55,1.14h-1.53a.84.84,0,0,1,.55.22c-1.09-2-2.84-3.29-5-2.95a4.76,4.76,0,0,0,3.71,1.48,1.19,1.19,0,0,0,.76,1.25h1.53a3.85,3.85,0,0,0,1.53,1.47,2.65,2.65,0,0,0-1-1.59l4.7-.79c.21.11.21.45,0,.79a.68.68,0,0,0,.43-.91l.87-.11c1.21,1.82,1.75,5.11,2,7.95Zm-19.09-22.37c.43.34,1.52.57,1.41,1,.44-1,2.62,1.14,3.17-.34a.38.38,0,0,1,.22.11l-1.2,3c.11-.12.11-.23.21-.23s.11.11.11.23l-.21.22c0-.11-.11-.11-.11-.22l1.2-3c.32.34-.44,1-.22,1.48.11,0,.11.11.22.11l-.77,1.14c-1.09,0-2.18.45-3.27-.91a2,2,0,0,1-1.42.57Zm2.94,45.53a9,9,0,0,0,.87-1.13c-.21,0-.32-.12-.21-.46a2.76,2.76,0,0,0-1.53.69l-1.75-2.05a29.08,29.08,0,0,0,3.82-3.41c-.22,2.16,2.62-.9,1.86.91,1.2-.22,1.09-1.7,2.18-2.27-1.64-.22-2.4,1.71-3.6.91.11-.79,1.2.34,1.2-.79-.44-.69-1.09.79-1.64-.12,1.09-.22,3-1.36,1.64-1.81.54-.69,1.42.22,1.63-.8-.43,0-.54-.23-.54-.45l6.87-1.71-.33.34c.66.8.33,1,.33,2.16a2.68,2.68,0,0,0,1.53-1.59c-1.2.46-.76-.45-.33-.79-.22,0-.43-.12-.33-.34l.88-.23v.11l4.91-1.13c-.44,1.13-.88,2.27-1.31,3.52-.77-.68-1.2.34-1.75-.12-.11-1,1.2-1.13,1.09-2.15,0-.23-.22-.12-.22-.46-.87.68-.65,1.93-1.63,2.39-1-.57.87-.91.65-1.71-.43-.45-1.09,1.48-2.07,1.59.22.46.65.46,1.2.46-.44.91-1-.12-1.64.56.11.35.66.23.55,0,1-.22-.33,1.37.43,1-1.63,1.7-3.49,2.38-4.58,3.86.11.22.44.22.77.22-2.51,2.28-5.46,3.87-7.53,6.36Zm1.86-.22a7.32,7.32,0,0,0,3.49-1.37c.54.57-1.09,1.25-1.64,1.71,1.64.34,3.71-1.59,5.78-1.82.66-.68-.54.91-1.31.57-.22.45,1.42.57,1.2.11.33.46-2.72,2.16-2.94,1-.55,0-.33,1-.77,1.14-1-.57-1.74,1.25-2.94-.11h-.22Zm5.89-35.21c-.11-.34.32-.45.76-.45-1.42-.91-2.73-2.27-4-1.59C571.56,333,572.22,332.86,573.42,334.22Zm-2.18,6.48a.48.48,0,0,1-.55.11Zm12,8.63c-.65,3.74-3.49,6.7-2.83,8.4l-.87.23c-.11-.23-.22-.34-.44-.34,0,.34-.22.45-.44.56l-7,1.37a1.69,1.69,0,0,1,.44-1c.76,1.13,2.94-2,2.29-2.5.11.34-.33.56-.55.11.55-.11-.22-.45.33-.57a4.64,4.64,0,0,0,1.09-1.7l3.82-2.16a6.73,6.73,0,0,0-.11,1.59,2.67,2.67,0,0,0,1.75-2.61L582,350v1.47c.21-.56.32-1.13.54-1.81Zm-8-13.4c-.11-1.71-.65-1.71-1.85-1.82C574.07,334.68,574.29,335.7,575.27,335.93Zm5.56,13.17a.84.84,0,0,1-.54,1.25c0-.34.22-.8-.11-.91a6.26,6.26,0,0,1-1.2,2.27L574.83,353a10.48,10.48,0,0,0,1.31-2.27l2.19-.68c.1,0,.1.11.21.23V350Zm-5.34-15.33c.55,0,.65.57,1.42.45,0-.45,0-.68.22-.9-1.09.79-1.09-1-2.19-1C574.83,333.32,576,333,575.49,333.77Zm.11-1.93c.11,1.14,1,1.7,1.85,2.38,0-.56-.21-.79-.87-.79C577.34,332.86,576.14,332.29,575.6,331.84Zm3.16,11.36c-.33-1.14.33-2.05-1.09-2.5C577.78,341.83,577.67,343.2,578.76,343.2Zm2.29-10.11c0,.57-.32.57-.65.68,0,.23.22.23.22.57.32-.12.21-.57.65-.57,1.75-.23.87,4.54.33,1.82.22.11.11.45.44.45-.22-1.25-1-1-2-1.13.66-1.71-1.2-1-1.09-2.28A8.32,8.32,0,0,1,581.05,333.09Zm4.69,14.42a6.94,6.94,0,0,1,.22,1.36c-.33.12-.33-.45-.33-.79-.54.68-.1,2.27-.87,2.84,1,.11.55-1.14,1.2-1.37a12.68,12.68,0,0,1-1.74,7l-5,.8c1.2-2.73,4.8-5.34,4-8.63Zm-3.38-.23c0,.8-.11,1.48-.11,2.16l-1.31.57a13.84,13.84,0,0,0,.44-2.27Zm1-.79c.11-2.05-.32-3.64-.21-5.79-.44.22-.88-.68-.88-1.93l1.2-.12c.66,2.16.33,5.11.88,7.38Zm3.17-.68a14.6,14.6,0,0,1,.65,2l-2.4,1.25c-.11-.34-.33-.79-.43-1-.11.45-.11.91-.22,1.36l-.77.34a10.3,10.3,0,0,0,.33-2.38l.87-.57.66,1.36a2.27,2.27,0,0,0,0-1.7Zm-1.86,0a12.67,12.67,0,0,0-.76-2.73c1.2,0,.22-1,.22-2.16.22.12,1.09.91,1.2.12-1.31,0,0-.8.11-1.25-1,0-1-.68-1.2-1.25h1.31a6.56,6.56,0,0,0,1,2.61c-1,.34-.77,2.39-.55,4.2Zm.66,5.56c-.22.57-1.09,2.16-.66,2.5C584.87,353.19,586.18,351.94,585.31,351.37Z"/><path class="cls-1" d="M585,420.53c-.22.11-.55.22-1.09.45.76-.57.32-1-.11-1.59-.87.46.54.8-.22,1.25-.54.11-.33-.91-.76-1.14a1.64,1.64,0,0,1-1.09.46c-.55.45.65,1.48-1,1.36.66-2,0-2.16-.87-4.2.66-.23.77-1.93.77-4.54,1.85-.34,1.2-3,1.85-5.11.65.34.33-.12,1.2-.23a5.51,5.51,0,0,1,.76-3.86Zm-.33-15.33c1.64-2.5,4.58-3.75,3.6-7.84.22-.68,1.2-.57,1.75-.79-1.75.34-.44-2.16.76-1.37-.44-.91-.44-1.47.44-1-.22-.45.11-1.7-.55-1.47a20.38,20.38,0,0,0,1.2-1.71l9.06.34a8.69,8.69,0,0,0-.77,2.39c.77-.23,1-1.71.87-2.39h.55c0,1.48-1.2,3.41-1,4.09.65-1.14,1.74-3.18,1-4.09l1.31.12c.22,1.36-1,3.29-1.09,3.86a39.55,39.55,0,0,1-4,9.88c-1.53,2.72-1.31,5.68-3.27,7.83.11.46.44-.23.87-.11-.65,2-3.27,3.41-2.07,5.22-1.2-.91-1.64.8-1.85,2.16-.44-.34-1.31-.11-1.31-1.14-1.1.23-1.2,1-1.31,1.93-.66-.68.21-2.49.21-3.63-1,1.48-.21,4.32-2.5,5-.77-.46-1-.46-1.2-.23Zm5.13,10.22c-.66,1,.22-2.27-.44-.91,0,.34-.43.45-.43,1,1-.11.32,2.27.65,1.36C589.89,416.78,590.21,415.08,589.78,415.42Zm21.27-58c-1.31,2.61-2.4,5.34-4.25,7.61.32.57.87.68.76,1.7-1.31.11-2.07.34-1.64,1.82-.54.57-.65-.12-1.31-.23,1.1,1.82-1.74.46-.65,2.27a8.35,8.35,0,0,1-3.05,1.93c-.66-.57.1-.68-.22-1.59-1.42-.22-1.09,1.14-2.18,1.14,0-.68-.11-1.48-.77-1.48-.32.8-1.2,1.25-1.53,2.05-.87-.34-2.72-.8-2.07-1.93.44,0,0,.22,0,.56,1.09-1.7-1-2.84.44-5.67a3.44,3.44,0,0,1-1.64-2.05c.55-.57.55.23,1.2.23s-.43-.8.44-1.25c-.55-1.82-.33-4.32,0-7l1.42.11c-.66,2.05-1.53,3.64-.44,4.66-.33.34-1.09,2.27-.44,1.59a6.81,6.81,0,0,1,1.53-2.61c-.54-.12-.76.56-.87.11.43-1.14-.33-3.29,1.09-3.52l.11-.11c.22,1.47-1.42,2.49,0,3.18a6.31,6.31,0,0,0,.11-3.18l.65.22a10.37,10.37,0,0,1,.33,2.39,19,19,0,0,0,.11-2.5l7,.91V358a12.05,12.05,0,0,0,1.2-1.14Zm-16.91-2.5a7.78,7.78,0,0,1,.44-1.13c.33.79.76.45,1.2-.12l.87.12c-.33.56-.76,1.24-1.09,1.7Zm.87,9.65c.22-.9.88-2.49-.54-2.72.76,1.59-.22,1.93,0,2.72C594.47,364.2,594.8,364.43,595,364.54Zm.11-14.08c.22-1.13.88-1.7.33-2.84.76-.56.55,1.37.87.34C596.76,347.28,596,350.35,595.12,350.46Zm.22-4c.33-.46-.11-.8-.11-.91C595,342.29,596.65,345.69,595.34,346.49Zm9.71,45.76-.55-.11a.4.4,0,0,0-.1-.23c.1.11,0,.11,0,.23l-9.17-.34a10.82,10.82,0,0,0,2.08-5c1.3-1.7,2.4-3.18,2.07-5.45,1.74-2.39,2.29-4.88,3.38-8.18.55-.22.55.23,1,.23.76-.11-.87-.68.55-.68.21-1-1.09-.23-.77-1.14a3.43,3.43,0,0,0,1.42-.45,5.38,5.38,0,0,1,2.4-5.56,1.6,1.6,0,0,1-.33-1.25A2,2,0,0,0,608.1,363c.77.46.88.69,1.31-.45,0-.68-.65.57-1.41.11.87-1.93,1.41-.79,2.4-2-.11-.34-.88-1.25-.88-.57-1-.68.55-1.13.88-1.93h.21a.42.42,0,0,0-.11.34.43.43,0,0,1,.11-.23l2.4.12c-.54.68-.76,1.36-.21,1.7a3.91,3.91,0,0,1,.65-1.59h.44a2.56,2.56,0,0,0-.22,1.48,5.26,5.26,0,0,1,.76-1.36l1.75.11a2.62,2.62,0,0,0-.66,2.61c-.32.11-.43.46-1.09.34.77,1.93-1.42,3.75-.65,6,1.31-1.48,1.42-4,3.16-5a18.87,18.87,0,0,1,1-3.86l2.08.34c-1.64,3-3.06,6.25-4.7,8.63,2.3-1.13,3.71-6.36,5.46-8,.22,1.94-1.31,4.66-3.16,5.91-.44,3.63-2.84,7.27-4.15,9.77,0,.11-.44-.46-.65-.35-.11,2.73-2.08,4.55-2.3,5.91-.43,1.59-1.41,1.13-2,1.82-.11.11.22,1.13.11,1.25-1,2-2.73,4.31-3.71,7.26.11.57.77-.68.77.8.21,0,.1-.34.1-.68a1.38,1.38,0,0,1,.44.91ZM597.31,361l-.11-1.25c-1.09.23-.66,1-1.64.57,0,.8.55,1.14,1.31,1.14C596.65,360.91,597,360.68,597.31,361Zm1.52,4.77c-.54-.11-.65-.79-1-1.25-1.53.46-1.42,2.39-2.18,3.41C596.43,368,598.51,366.93,598.83,365.79ZM596.43,337a11.15,11.15,0,0,1,.88-3.07c-.11-.45-.88,0-1-.56,0-.12.11-.23.22-.46l12,5.68a27.18,27.18,0,0,1-.33,5.22c-.65,3-1.74,5.45-2.18,7.5l-3.49.79c0-.45-.11-.91-.54-.79.11.22,0,.57-.22,1l-2.84.68c.33-3.52.77-7,.87-9.31-1.09,1.59-.76,3.63-1.2,5.34-.76,0-.54.56-1.19,0a8.8,8.8,0,0,1-.11,4.43l-.88.11.33-.68c-.33-.34-.76-.34-.65-.91.32.34.43.11.87,0-.22-4.2.54-6.59.65-11l-.87.12c1.75-.46,1.42-3,1.53-5-.11.11-.11.23-.22.34Zm11.46-4.88,1.74.68c-.11.79-.33,1.36-.43,2a21.31,21.31,0,0,0-.22,2.84l-7.2-2.72-4.91,2.15,1.53-.68c-.33,1.36-.11,3.29-1.31,4.54.22.57.76.57.76,1.37-.65-.46-.33-.46-1.2-.12.33-.79.11-3.06.22-5.11l4.91-2.15,6.11-2.84-10.69-3.86a6.27,6.27,0,0,0-.77-3.41l1-.11-.22-.23,13.41,3.29c-.11,1-.43,2.16-.65,3.41Zm-11.46,23.39h0Zm1.42,46.78c-.22.69-1.53,1.82-.65,2.5C597.31,404,598.51,402.7,597.85,402.24Zm-.65-49.62a1.9,1.9,0,0,1,.54-1.14,2.82,2.82,0,0,0-.32,1.14Zm.22,2.95a5.51,5.51,0,0,1,.21-2.27H598a9.94,9.94,0,0,0,.11,2.5Zm14-22.48c-.22.57-.44,1-.66,1.48l-1.63-.91-6.44,1.59L598,332.41c.65-.8,2-2.61.11-3,.33-1,.65-.12,1.2.11v-1.7l9.82,5.79ZM598.07,351.6a6.73,6.73,0,0,0,.65-2.39C599.16,349.44,599.05,352.05,598.07,351.6Zm2.07,11.13.11-.91c-.33,0-.44-.23-.65-.46-.11.57-1.64,1.25-.77,1.82C598.83,362.16,599.71,362.16,600.14,362.73Zm-1.42-39.07c-.43-.79.44-2,0-3.52,1.75-.9,5.13-1.59,7-1-.33,1.14,1.52.91.76,1.7,0,.8.54-.34,1.09.12,1.53,1.81,4.15,2.72,4.15,5.45a6.7,6.7,0,0,1-.77,3.86Zm.22,31.69a22.66,22.66,0,0,0,.11-2.73l2.84-.79a21.56,21.56,0,0,0-.77,2.49c1.2-.68.33,1.25,1.31.68-.11-.68.22-2.38.22-3.52l3.38-1a4.38,4.38,0,0,0,.44,3.18,6.7,6.7,0,0,0-.44,2.5Zm1.86,14.42c-.88.22-1.86,2.61-.33,1.81C599.6,371.36,602,370.33,600.8,369.77Zm4.8,5.22c-1,.34-.44,1.93-2,1.25.22,1.36-1.31,3.07-.65,4.09C603.74,378.4,605.05,376.92,605.6,375Zm4.14-6.7c-2.18,0-2.18,3.29-3.49,3.29.76.12-.44.8-.22,1.59C608.65,372.83,607.89,369.31,609.74,368.29Zm-2.29-9.42c2.73-2.84,5.24-5.8,7.75-8.86l2.83-.91c-1.2,1.25-2.4,2.5-2.18,4.2-.22,0-.33-.34-.44-.57a25,25,0,0,0-3.27,6.36Zm5.89,4.2c-.44-.57,0-1.25-.54-1.36-1.09,2.15-2.08,4.65-3.5,6,.44-.11.44.46.77.34-.22-1.13.22,0,.54,0-.11-1.93,1.75-2.38,2.29-4-1.09,0-.21,1.36-1.19,1.25-.33-1.82,1.74-1,.76-2.27.22-.12.33-.46.54-.46C613.12,362.84,613.12,363.18,613.34,363.07Zm-1.09-3.52a2.73,2.73,0,0,1,2.07-2.16c.11.57-.65,2.38-.22,1.93,0-.34.77-.45.88-.11-.11.11-.22.34-.44.56Zm.65-.91a.42.42,0,0,0,.11-.34c.33.11.11.23.11.34Zm1.64,10.45c-.44,0-.33-.57-.65-.69,0,.46-1.2,1.25-.22,1.59,0-.22,0-.56.22-.56C614,369.88,614.43,369.43,614.54,369.09Zm.22-9.09c.65-.91,1.2-1.59.76-1.59,0,.34-.32.46-.54.57.11-.68.43-1.36-.44-1.48h.76c.88-.34.66-1.25.22-1.93-.87.12-1.31.46-1.31,1.25-.87-.34.33-.79.11-1.47.44.9,1.64-.8,1.75-.23,1.31,0,0,.45-.11.91a4.55,4.55,0,0,1,1.64-.46c-.22-.45-.88-.57-.33-.79-.11-.8-.55.45-1.2,0,0-.46.65-1.36,0-.57-.44-1,1-.68,1.63-1.48-.21-.34-.76-.45-.54-1,.44-.23,1.2-.23,1.53-.79-.66-.12-.22-.46.54-.91l1.31-.12a2.5,2.5,0,0,0-.44,2.05,14.93,14.93,0,0,1,1.42-2.16l1.2-.23a1.71,1.71,0,0,1,.22.8c-1.53.91-1.64,1.93-2.94,1.93-.33,2-1.31,3.07-2.51,4.77,0-.23-.33-.46-.33-.68.44.22.76-.34.33-.57-.55.79-1.2,1.48-.33,1.48-.55.79-1.42,1.93-2,2.84Zm8.29-12.15a9.35,9.35,0,0,1-1.09.8,5,5,0,0,0,.11.56l-1.31.12a10.58,10.58,0,0,0,1-1.37,3.73,3.73,0,0,0-2,1.37l-1.31.11a9,9,0,0,0,1.85-1.36c.22-.8-1.31.57-.76-.68-.33.79-1.31,1.36-2.4,2h-2.84c1.86-1.13,3.82-2.5,5.78-3.86l.55.45c-.44.46-.87.8-.55.8s.44-.45.55-.68l.44.34c-.22.34-.77.57-.11.79a.84.84,0,0,1,.43-.68Zm2.4-1.59.76-.11a2.92,2.92,0,0,1-.54.68l-.77-.57H624c.11-.11.33-.11.44-.23l.43.23.44.34.11-.34.76-2.72a5.84,5.84,0,0,0,1.31-1.14l4.91,3.41,1.2-.12h.66a2.45,2.45,0,0,1-1,.8l3.6-7.61,7.2-15.22,6.33-1c.65.68,1.64,1.36,1.85,2.27,1,4.32-6,5.79-7.09,10-1.52-.12-2.07,1-2.4,2.61a8.7,8.7,0,0,0-3.49,2.72l-10.69-5.9a18.81,18.81,0,0,0,2.18-1.14c-.1-.34-.43-.34-.65-.45,1.75-2.5,4-5,6.11-7.72l7.85-1.37-7.2,15.22,2.4,1.36c-1.74,1.82-3.16,4-5,5.45h-.66l-.33.8-.87-.68-5.89.34a4.09,4.09,0,0,0,.44-1,8.21,8.21,0,0,1-.77,1l-.87.11-.44,1.48a38.18,38.18,0,0,1-4.47,5c-.65.34-2.83.69-2,1.93.22-.34.32-1.13,1-1,.11.34.44.46.44.91-1,1.14-2.51,2.95-3.49,2.16.21.23,0,.34-.11.57l-1.64-.57a.92.92,0,0,0,.11-.91c3.6-2.38,5.78-7.15,9.27-9.54h1.42l-.11.34.33.23a5.65,5.65,0,0,1-.77.91l.44-1.48h-.44l-.43-.23c.11-.11.22-.11.32-.22,0-.57-.54.11-.54-.46.22-.22,1.2.23,1.2-.34-1.2-.11.11-1,.44-.34.11-.57-.44-.57-.55-1,.22.23.55.11.87-.11Zm-5.24,5.34c-.43,1-1.52.79-2.29,1.93C619.12,353.64,620.87,352.73,620.21,351.6Zm4.26,6.47-3.06,3.18-1.85-.68c2-2.73,4.69-5.34,6.87-8.29Zm4.25-22.37-1.42,7.38c.22,0,.33.12.33.23l-.33-.23-.1.68a35.64,35.64,0,0,0-3.06,3l-1.85-1c.43-.56,1.3-1,.54-1.47-.22-.23-.87.45-1.31,1l-.65-.34c.43-.46,1-.91,1.42-1.36.43,0,.54.34.87.34-.55-.57.22-.57,0-1.48a5.48,5.48,0,0,0,1.42-.68L627,343c-.11.11-.11.11-.22.11h.54l1.42-7.38,8.4,3.52-2.51,7.16-1.2.11,1,.68a4.31,4.31,0,0,1-1.52.91,1.71,1.71,0,0,0,.43-1,25.69,25.69,0,0,0-2.94,3.18l-3.27-1.71c.21-.34.32-.68.54-1l5.78-1-5.23-2.84a13,13,0,0,0,1.2-2.39c-1.42,0-1.53,1.25-2.4,1.71l-2.4-1.25c.87-1.25,1.2-3.18,2.51-3a4.46,4.46,0,0,1,1.41-3.18l.11.11Zm-7.74,10c.11-.22.22-.22.43-.22s.11.22,0,.45Zm4.47,5.57,1.31-2.39,3.16,1.71a19.91,19.91,0,0,1-3.16,3.63c.11.23.11.23.22.23-.88.79-1.75,1.81-2.73,2.84Zm1.85,2.5a6.06,6.06,0,0,0-1,.79C626.54,354.21,626.65,353.42,627.3,353.76ZM627,343.42v.12c-.11.11-.33.22-.44.34l.11-.68h0Zm1.2-7.61h0Zm1,5.68c-.33.12-.22.34,0,.57C629.27,341.72,629.27,341.49,629.16,341.49Zm3.16,5.79,1,.57Zm2.84-20.89c1-2.05,2-4.2,2.83-6.59,1-.68,2.73-1.47,2.19-2.72.87.22,1.09-.46,1.74-.46.11,1,.66,1.59.87,2.73.44,0,.66-.23.77-.68.11,0,.11,0,.22.11l-.22.8c-.11.11-.22.22-.22.34h.11l-.87,3.63Zm7.31-3.86,1.2-3.52c1.63-.34,1.41-1,3.49-.91-.22,1.14.54,1.93,1.42,2.61Zm1.85-3.64c.33.23,0,.46-.33.8Z"/></svg>